SplineFontDB: 1.0
FontName: AkrutiMal2Normal
FullName: AkrutiMal2 Normal
FamilyName: AkrutiMal2
Weight: Book
Copyright: Copyright (C) Cyberscape Multimedia Limited, Bangalore, INDIA.YContact: mssridhar@vsnl.comYThis program is free software; you can redistribute it and/orYmodify it under the terms of the GNU General Public LicenseYas published by the Free Software Fou
Version: Macromedia Fontographer 4.1 10/3/02
ItalicAngle: 0
UnderlinePosition: -133
UnderlineWidth: 20
Ascent: 696
Descent: 304
NeedsXUIDChange: 1
FSType: 1
PfmFamily: 81
TTFWeight: 400
TTFWidth: 5
Panose: 0 0 0 0 0 0 0 0 0 0
LineGap: 0
VLineGap: 0

LangName: 1033 "Copyright (C) Cyberscape Multimedia Limited, Bangalore, INDIA.+//8A-Contact: mssridhar@vsnl.com+//8A-This program is free software; you can redistribute it and/or+//8A-modify it under the terms of the GNU General Public License+//8A-as published by the Free Software Fou" "" "" "Macromedia Fontographer 4.1 AkrutiMal2 Normal" "" "Macromedia Fontographer 4.1 10/3/02" 
Encoding: unicode
DisplaySize: -24
BeginChars: 65938 193
StartChar: .notdef
Encoding: 0 -1
Width: 500
Flags: W
Fore
63 0 m 1
 63 696 l 1
 438 696 l 1
 438 0 l 1
 63 0 l 1
125 63 m 1
 375 63 l 1
 375 634 l 1
 125 634 l 1
 125 63 l 1
EndSplineSet
EndChar
StartChar: exclam
Encoding: 33 33
Width: 157
Flags: W
Fore
125 450 m 1
 63 450 l 1
 63 138 l 1
 125 138 l 1
 125 450 l 1
150 41 m 0
 150 53 145 63 135 71 c 0
 125 79 114 83.3333 102 84 c 0
 90.6667 84.6667 79.3333 80.6667 68 72 c 0
 59.3333 64 54.6667 53.6667 54 41 c 0
 53.3333 29 58.1667 19.1667 68.5 11.5 c 0
 78.8333 3.83333 90 2.1684e-19 102 0 c 0
 114 0 125 4 135 12 c 0
 145 20 150 29.6667 150 41 c 0
EndSplineSet
EndChar
StartChar: dollar
Encoding: 36 36
Width: 550
Flags: W
Fore
521 389 m 1
 486 423 l 1
 308 243 l 1
 126 427 l 1
 91 392 l 1
 274 210 l 1
 85 21 l 1
 120 -13 l 1
 308 176 l 1
 491 -6 l 1
 524 28 l 1
 343 210 l 1
 521 389 l 1
EndSplineSet
EndChar
StartChar: quotesingle
Encoding: 39 39
Width: 179
Flags: W
Fore
170 527 m 0
 170.667 558.333 164.667 583 152 601 c 0
 140.667 617 125 625 105 625 c 0
 95 625 84.3333 620 73 610 c 0
 65 601.333 61 590 61 576 c 0
 61 562 65 550.5 73 541.5 c 0
 81 532.5 91 527.667 103 527 c 0
 115.667 526.333 124.667 529 130 535 c 2
 138 544 l 1
 140 530 l 1
 140 503.333 130.667 477.667 112 453 c 0
 100.667 437.667 86 425.667 68 417 c 1
 85 393 l 1
 107 400.333 127 418.667 145 448 c 0
 161 476 169.333 502.333 170 527 c 0
EndSplineSet
EndChar
StartChar: parenleft
Encoding: 40 40
Width: 315
Flags: W
Fore
300 -149 m 1
 238.667 -89.6667 194.667 -31.6667 168 25 c 0
 139.333 86.3333 125 157.333 125 238 c 0
 125 316.667 138.667 386 166 446 c 0
 191.333 500.667 233.667 557.667 293 617 c 1
 238 625 l 1
 184.667 592.333 141.333 535 108 453 c 0
 78.6667 380.333 63.6667 308.667 63 238 c 0
 62.3333 161.333 74.3333 89.6667 99 23 c 0
 127.667 -56.3333 169.667 -113.667 225 -149 c 1
 300 -149 l 1
EndSplineSet
EndChar
StartChar: parenright
Encoding: 41 41
Width: 301
Flags: W
Fore
50 -149 m 1
 125 -149 l 1
 175 -116.333 215.333 -62.3333 246 13 c 0
 272.667 79.6667 286.333 154.667 287 238 c 0
 287.667 308.667 273 380.333 243 453 c 0
 209.667 533.667 166 591 112 625 c 1
 57 617 l 1
 115 560.333 157 503 183 445 c 0
 210.333 385 224.333 316 225 238 c 0
 225.667 166 214 100.667 190 42 c 0
 163.333 -22.6667 116.667 -86.3333 50 -149 c 1
EndSplineSet
EndChar
StartChar: comma
Encoding: 44 44
Width: 197
Flags: W
Fore
186 2 m 0
 186.667 34 180.333 58.3333 167 75 c 0
 153.667 91.6667 135.667 100 113 100 c 0
 80.3333 100 63.3333 83.6667 62 51 c 0
 61.3333 37.6667 66.1667 25.8333 76.5 15.5 c 0
 86.8333 5.16667 98.6667 4.33681e-19 112 0 c 0
 124.667 0 134.667 3.33333 142 10 c 1
 150 20 l 1
 152 4 l 1
 151 -13 l 1
 149.667 -32.3333 140.333 -50.3333 123 -67 c 0
 111.667 -77.6667 95.3333 -88.3333 74 -99 c 1
 87 -124 l 1
 106.333 -118.667 128 -102.667 152 -76 c 0
 174 -51.3333 185.333 -25.3333 186 2 c 0
EndSplineSet
EndChar
StartChar: hyphen
Encoding: 45 45
Width: 506
Flags: W
Fore
132 244 m 1
 132 184 l 1
 390 184 l 1
 390 244 l 1
 132 244 l 1
EndSplineSet
EndChar
StartChar: period
Encoding: 46 46
Width: 171
Flags: W
Fore
163 46 m 0
 163.667 59.3333 159.167 70.5 149.5 79.5 c 0
 139.833 88.5 128.333 93.3333 115 94 c 0
 101.667 94.6667 90.5 90.1667 81.5 80.5 c 0
 72.5 70.8333 67.6667 59.3333 67 46 c 0
 66.3333 32.6667 70.8333 21.8333 80.5 13.5 c 0
 90.1667 5.16667 101.667 0.666667 115 0 c 0
 145.667 -1.33333 161.667 14 163 46 c 0
EndSplineSet
EndChar
StartChar: slash
Encoding: 47 47
Width: 381
Flags: W
Fore
363 625 m 1
 300 625 l 1
 63 -149 l 1
 125 -149 l 1
 363 625 l 1
EndSplineSet
EndChar
StartChar: zero
Encoding: 48 48
Width: 393
Flags: W
Fore
225 450 m 0
 117.667 450 63.6667 379.333 63 238 c 0
 61.6667 79.3333 111.667 -6.93889e-18 213 0 c 0
 321 0 375 75 375 225 c 0
 375 375 325 450 225 450 c 0
313 225 m 0
 313.667 164.333 305.333 120.167 288 92.5 c 0
 270.667 64.8333 245.667 50.6667 213 50 c 0
 155 49.3333 125.667 107.667 125 225 c 0
 124.333 341.667 157.667 400 225 400 c 0
 283 400 312.333 341.667 313 225 c 0
EndSplineSet
EndChar
StartChar: one
Encoding: 49 49
Width: 249
Flags: W
Fore
238 0 m 1
 238 450 l 1
 188 450 l 1
 171.333 433.333 147 417 115 401 c 2
 63 375 l 1
 63 313 l 1
 118 334 l 2
 146.667 345.333 165.667 355 175 363 c 1
 175 0 l 1
 238 0 l 1
EndSplineSet
EndChar
StartChar: two
Encoding: 50 50
Width: 381
Flags: W
Fore
363 0 m 1
 363 50 l 1
 175 50 l 1
 249.667 118.667 300 178 326 228 c 0
 340 254.667 347 284 347 316 c 0
 347 357.333 334.5 390 309.5 414 c 0
 284.5 438 251 450 209 450 c 0
 165.667 450 130.833 437.833 104.5 413.5 c 0
 78.1667 389.167 64.3333 355.667 63 313 c 1
 125 313 l 1
 125 337 131 357.5 143 374.5 c 0
 155 391.5 172.667 400 196 400 c 0
 220.667 400 240.833 392.5 256.5 377.5 c 0
 272.167 362.5 280.333 342.667 281 318 c 0
 281.667 285.333 261.333 244.333 220 195 c 0
 190 159 137.667 106.667 63 38 c 1
 63 0 l 1
 363 0 l 1
EndSplineSet
EndChar
StartChar: three
Encoding: 51 51
Width: 381
Flags: W
Fore
363 125 m 0
 363.667 162.333 349.333 191 320 211 c 0
 311.333 217 297 222 277 226 c 1
 304.333 231.333 325.5 243.167 340.5 261.5 c 0
 355.5 279.833 363 301 363 325 c 0
 363 367 348 398.667 318 420 c 0
 291.333 439.333 256.333 449.333 213 450 c 0
 173.667 450.667 140.333 441 113 421 c 0
 82.3333 399 67 369 67 331 c 1
 130 331 l 1
 130 375.667 157.667 398.667 213 400 c 0
 235.667 400.667 255.667 394.333 273 381 c 0
 290.333 367.667 299.333 349 300 325 c 0
 300.667 302.333 292.167 284.167 274.5 270.5 c 0
 256.833 256.833 236.333 250 213 250 c 2
 175 250 l 1
 175 200 l 1
 213 200 l 2
 270.333 200 299.667 174.667 301 124 c 0
 301.667 92.6667 284.333 70 249 56 c 1
 239 53.3333 227.333 51.6667 214 51 c 0
 156.667 49.6667 127 74.3333 125 125 c 1
 63 125 l 1
 63 84.3333 78.3333 52.6667 109 30 c 0
 135.667 10.6667 170.333 0.666667 213 0 c 0
 255.667 -0.666667 290.667 9 318 29 c 0
 347.333 51.6667 362.333 83.6667 363 125 c 0
EndSplineSet
EndChar
StartChar: four
Encoding: 52 52
Width: 407
Flags: W
Fore
388 138 m 1
 325 138 l 1
 325 450 l 1
 263 450 l 1
 63 138 l 1
 63 88 l 1
 263 88 l 1
 263 0 l 1
 325 0 l 1
 325 88 l 1
 388 88 l 1
 388 138 l 1
263 138 m 1
 125 138 l 1
 263 363 l 1
 263 138 l 1
EndSplineSet
EndChar
StartChar: five
Encoding: 53 53
Width: 367
Flags: W
Fore
350 150 m 0
 350.667 194 340 230.333 318 259 c 0
 294 291 260.667 307 218 307 c 0
 196.667 307 181.667 304.333 173 299 c 1
 162.333 295 152.333 287.333 143 276 c 1
 156 400 l 1
 331 400 l 1
 331 450 l 1
 93 450 l 1
 73 208 l 1
 129 208 l 1
 138 222 l 1
 156 242.667 178.333 253.333 205 254 c 0
 259 255.333 286.667 220.333 288 149 c 0
 288.667 119.667 281.333 96 266 78 c 0
 250.667 60 228.667 50.6667 200 50 c 0
 180 49.3333 161.667 57.3333 145 74 c 1
 133 89.3333 126.333 110.667 125 138 c 1
 63 138 l 1
 63 99.3333 76.1667 66.8333 102.5 40.5 c 0
 128.833 14.1667 161.333 0.666667 200 0 c 0
 298.667 -1.33333 348.667 48.6667 350 150 c 0
EndSplineSet
EndChar
StartChar: six
Encoding: 54 54
Width: 381
Flags: W
Fore
225 288 m 0
 195.667 288.667 170 281 148 265 c 0
 141.333 260.333 134 252.667 126 242 c 1
 126 280.667 133 314.667 147 344 c 0
 164.333 381.333 190.333 400 225 400 c 0
 264.333 400 290 377.333 302 332 c 1
 363 338 l 1
 349 412 305 449.333 231 450 c 0
 191.667 450.667 156.333 435.333 125 404 c 0
 84.3333 363.333 63.6667 301 63 217 c 0
 62.3333 157.667 73.6667 108.667 97 70 c 0
 124.333 24 166 0.666667 222 0 c 0
 266 -0.666667 300.333 11.1667 325 35.5 c 0
 349.667 59.8333 362.333 94 363 138 c 0
 363.667 182.667 351.333 218.667 326 246 c 0
 300.667 273.333 267 287.333 225 288 c 0
300 138 m 0
 300.667 79.3333 275.667 50 225 50 c 0
 170.333 50 143 83.3333 143 150 c 0
 143 176 150.333 197 165 213 c 0
 179.667 229 199.667 237.333 225 238 c 0
 243 238.667 260.667 229.667 278 211 c 1
 292 193 299.333 168.667 300 138 c 0
EndSplineSet
EndChar
StartChar: seven
Encoding: 55 55
Width: 354
Flags: W
Fore
338 400 m 1
 338 450 l 1
 63 450 l 1
 63 400 l 1
 275 400 l 1
 100 0 l 1
 163 0 l 1
 338 400 l 1
EndSplineSet
EndChar
StartChar: eight
Encoding: 56 56
Width: 367
Flags: W
Fore
288 232 m 1
 301.333 237.333 311.667 243.667 319 251 c 0
 339 269.667 349.333 294.333 350 325 c 0
 350.667 364.333 337 395.333 309 418 c 0
 283.667 438.667 250.667 449.333 210 450 c 0
 171.333 450.667 139.167 439.5 113.5 416.5 c 0
 87.8333 393.5 75 363 75 325 c 0
 75 275.667 98.6667 244.667 146 232 c 1
 137.333 230 128.667 227 120 223 c 0
 82 204.333 63 172.667 63 128 c 0
 63 86 78 53.6667 108 31 c 0
 134.667 11 169.667 0.666667 213 0 c 0
 255 -0.666667 288.167 9.66667 312.5 31 c 0
 336.833 52.3333 349.333 83.6667 350 125 c 0
 350.667 153.667 343.667 178.667 329 200 c 0
 319 214.667 305.333 225.333 288 232 c 1
213 263 m 0
 163.667 261.667 138.667 284 138 330 c 0
 137.333 352 144 369.167 158 381.5 c 0
 172 393.833 190.333 400 213 400 c 0
 263 400 288 375 288 325 c 0
 288 301.667 280 284.333 264 273 c 1
 252 267 235 263.667 213 263 c 0
288 125 m 0
 288.667 75.6667 263.667 50.6667 213 50 c 0
 189 49.3333 168.5 55.3333 151.5 68 c 0
 134.5 80.6667 125.667 99.6667 125 125 c 0
 124.333 148.333 133 168.833 151 186.5 c 0
 169 204.167 189.667 213 213 213 c 0
 261.667 213 286.667 183.667 288 125 c 0
EndSplineSet
EndChar
StartChar: nine
Encoding: 57 57
Width: 391
Flags: W
Fore
215 450 m 0
 168.333 450 131.5 437.167 104.5 411.5 c 0
 77.5 385.833 63.6667 350 63 304 c 0
 62.3333 260.667 75.3333 226.667 102 202 c 0
 128.667 177.333 163.667 164.667 207 164 c 0
 223 164 241 167.667 261 175 c 0
 284.333 183 299 193 305 205 c 1
 305 172.333 302.333 146.667 297 128 c 0
 281.667 76 252.667 50 210 50 c 0
 172 50 148 71 138 113 c 1
 75 100 l 1
 87.6667 34 133.667 0.666667 213 0 c 0
 271 -0.666667 313.667 25 341 77 c 0
 361.667 116.333 372.333 168.333 373 233 c 0
 373.667 377.667 321 450 215 450 c 0
294 304 m 0
 294.667 277.333 287.667 255.667 273 239 c 0
 258.333 222.333 238 213.667 212 213 c 0
 186.667 212.333 166.5 221.167 151.5 239.5 c 0
 136.5 257.833 129 280 129 306 c 0
 129 337.333 138 361.333 156 378 c 0
 171.333 392 190.333 399.333 213 400 c 0
 249.667 400.667 274.333 382.667 287 346 c 0
 291.667 334 294 320 294 304 c 0
EndSplineSet
EndChar
StartChar: colon
Encoding: 58 58
Width: 166
Flags: W
Fore
111 320 m 0
 80.3333 320 64.3333 303.667 63 271 c 0
 62.3333 257.667 66.8333 246.5 76.5 237.5 c 0
 86.1667 228.5 97.6667 223.667 111 223 c 0
 124.333 222.333 135.5 226.833 144.5 236.5 c 0
 153.5 246.167 158.333 257.667 159 271 c 0
 159.667 283.667 155.5 295 146.5 305 c 0
 137.5 315 125.667 320 111 320 c 0
159 48 m 0
 159.667 60.6667 155.5 72 146.5 82 c 0
 137.5 92 125.667 97 111 97 c 0
 80.3333 97 64.3333 80.6667 63 48 c 0
 62.3333 34.6667 66.8333 23.5 76.5 14.5 c 0
 86.1667 5.5 97.6667 0.666667 111 0 c 0
 124.333 -0.666667 135.5 3.83333 144.5 13.5 c 0
 153.5 23.1667 158.333 34.6667 159 48 c 0
EndSplineSet
EndChar
StartChar: semicolon
Encoding: 59 59
Width: 217
Flags: W
Fore
129 325 m 0
 98.3333 325 82.3333 308.667 81 276 c 0
 80.3333 262.667 84.8333 251.5 94.5 242.5 c 0
 104.167 233.5 115.667 228.667 129 228 c 0
 142.333 227.333 153.5 231.833 162.5 241.5 c 0
 171.5 251.167 176.333 262.667 177 276 c 0
 177.667 288.667 173.5 300 164.5 310 c 0
 155.5 320 143.667 325 129 325 c 0
201 3 m 0
 201 69.6667 176.667 103 128 103 c 0
 114 103 102 98.1667 92 88.5 c 0
 82 78.8333 77 67 77 53 c 0
 77 39 81.6667 27.3333 91 18 c 0
 100.333 8.66667 111.667 3.66667 125 3 c 0
 137.667 2.33333 149.333 6.33333 160 15 c 1
 165 21 l 1
 167 5 l 1
 166 -12 l 1
 164.667 -29.3333 154.667 -48.6667 136 -70 c 0
 123.333 -84.6667 106.333 -97 85 -107 c 1
 105 -131 l 1
 128.333 -123.667 150.167 -105.667 170.5 -77 c 0
 190.833 -48.3333 201 -21.6667 201 3 c 0
EndSplineSet
EndChar
StartChar: less
Encoding: 60 60
Width: 558
Flags: W
Fore
532 -38 m 1
 532 18 l 1
 176 182 l 1
 532 342 l 1
 532 401 l 1
 91 208 l 1
 91 157 l 1
 532 -38 l 1
EndSplineSet
EndChar
StartChar: greater
Encoding: 62 62
Width: 547
Flags: W
Fore
521 156 m 1
 521 207 l 1
 79 403 l 1
 79 346 l 1
 435 181 l 1
 79 21 l 1
 79 -36 l 1
 521 156 l 1
EndSplineSet
EndChar
StartChar: question
Encoding: 63 63
Width: 370
Flags: W
Fore
210 563 m 0
 172.667 563.667 140.667 551.5 114 526.5 c 0
 87.3333 501.5 73.6667 470.667 73 434 c 0
 72.3333 414 78 397.833 90 385.5 c 0
 102 373.167 118 367 138 367 c 0
 150.667 367 162 372 172 382 c 0
 182 392 187 403.333 187 416 c 0
 187 428.667 182.667 439.833 174 449.5 c 0
 165.333 459.167 153.333 464.333 138 465 c 2
 127 464 l 1
 128.333 476 137.333 487.167 154 497.5 c 0
 170.667 507.833 185.333 513 198 513 c 0
 224 513.667 247.167 505.5 267.5 488.5 c 0
 287.833 471.5 298 450.333 298 425 c 0
 298 392.333 272 355.333 220 314 c 0
 162 268 129.667 234.667 123 214 c 1
 119 194 l 1
 119 186.667 119.333 181.667 120 179 c 0
 120 167 130.667 150.333 152 129 c 1
 216 129 l 1
 203.333 135.667 193 144.667 185 156 c 0
 179.667 165.333 176.333 175.667 175 187 c 0
 175 193.667 176.667 199.333 180 204 c 0
 190 218 225.667 249.667 287 299 c 0
 335 337.667 359.333 375.667 360 413 c 0
 360.667 457.667 346.333 493.667 317 521 c 0
 287.667 548.333 252 562.333 210 563 c 0
241 48 m 0
 241.667 61.3333 237.167 72.5 227.5 81.5 c 0
 217.833 90.5 206.333 95.3333 193 96 c 0
 179.667 96.6667 168.5 92.1667 159.5 82.5 c 0
 150.5 72.8333 145.667 61.3333 145 48 c 0
 144.333 34.6667 148.833 23.5 158.5 14.5 c 0
 168.167 5.5 179.667 0.666667 193 0 c 0
 206.333 -0.666667 217.5 3.83333 226.5 13.5 c 0
 235.5 23.1667 240.333 34.6667 241 48 c 0
EndSplineSet
EndChar
StartChar: at
Encoding: 64 64
Width: 691
Flags: W
Fore
401 529 m 0
 323 529.667 256.667 502.667 202 448 c 0
 147.333 393.333 119.667 327 119 249 c 0
 118.333 169 145.667 102 201 48 c 0
 256.333 -6 324 -33.3333 404 -34 c 0
 454.667 -34.6667 501.833 -22.8333 545.5 1.5 c 0
 589.167 25.8333 622.667 60 646 104 c 1
 603 104 l 1
 581 72 552.167 47 516.5 29 c 0
 480.833 11 443.333 2 404 2 c 0
 335.333 2 278.167 25 232.5 71 c 0
 186.833 117 164 174.333 164 243 c 0
 164 311.667 186.667 370.167 232 418.5 c 0
 277.333 466.833 334 491.333 402 492 c 0
 460 492.667 509.667 475 551 439 c 0
 592.333 403 613.333 355 614 295 c 0
 614.667 259 604 221.333 582 182 c 0
 557.333 136.667 528.333 114 495 114 c 0
 481 114 473.667 121.333 473 136 c 1
 474 152 l 1
 482 175 l 1
 558 400 l 1
 508 400 l 1
 496 366 l 1
 490 381.333 479.167 393.333 463.5 402 c 0
 447.833 410.667 431 415 413 415 c 0
 360.333 415.667 315.333 391 278 341 c 0
 244 295 226.667 244.667 226 190 c 0
 225.333 157.333 234.5 130.667 253.5 110 c 0
 272.5 89.3333 298.333 78.6667 331 78 c 0
 365.667 77.3333 395.333 89.3333 420 114 c 1
 424 103.333 432 94.5 444 87.5 c 0
 456 80.5 469.333 77 484 77 c 0
 532 77 574 101.667 610 151 c 0
 642 195.667 658.333 243 659 293 c 0
 659.667 361.667 633.667 418.667 581 464 c 0
 531 506.667 471 528.333 401 529 c 0
465 317 m 0
 465 280.333 453.667 241 431 199 c 0
 405 150.333 375.333 125.667 342 125 c 0
 323.333 124.333 308.667 131.333 298 146 c 0
 288.667 158.667 284 174.333 284 193 c 0
 284 232.333 295.667 270.667 319 308 c 0
 345 349.333 376.667 370.333 414 371 c 0
 428 371 440 365.667 450 355 c 0
 460 344.333 465 331.667 465 317 c 0
EndSplineSet
EndChar
StartChar: grave
Encoding: 96 96
Width: 179
Flags: W
Fore
63 488 m 0
 63 426 84 394.333 126 393 c 0
 138 392.333 148.333 397.167 157 407.5 c 0
 165.667 417.833 170.333 429 171 441 c 0
 171.667 454.333 167.5 466 158.5 476 c 0
 149.5 486 139.333 491 128 491 c 0
 118 491 109 488 101 482 c 1
 93 473 l 1
 92 488 l 1
 93 507 l 1
 100 532 l 1
 112.667 563.333 133.667 586.333 163 601 c 1
 146 625 l 1
 123.333 617.667 103.667 598.667 87 568 c 0
 71 540 63 513.333 63 488 c 0
EndSplineSet
EndChar
StartChar: otilde
Encoding: 245 245
Width: 949
Flags: W
Fore
75 184 m 1
 936 184 l 1
 936 244 l 1
 75 244 l 1
 75 184 l 1
EndSplineSet
EndChar
StartChar: odieresis
Encoding: 246 246
Width: 506
Flags: W
Fore
46 244 m 1
 46 184 l 1
 476 184 l 1
 476 244 l 1
 46 244 l 1
EndSplineSet
EndChar
StartChar: uni0D02
Encoding: 3330 3330
Width: 393
Flags: HW
Fore
202 50 m 0
 169.333 50 143.333 61.6667 124 85 c 0
 104.667 108.333 94.6667 137.667 94 173 c 0
 93.3333 205.667 103 232.833 123 254.5 c 0
 143 276.167 169.333 287 202 287 c 0
 235.333 287 261.5 276.333 280.5 255 c 0
 299.5 233.667 309.333 206.333 310 173 c 0
 310.667 139.667 301 110.833 281 86.5 c 0
 261 62.1667 234.667 50 202 50 c 0
202 337 m 0
 151.333 337 109.833 321 77.5 289 c 0
 45.1667 257 28.6667 215.667 28 165 c 0
 27.3333 114.333 43.3333 74.1667 76 44.5 c 0
 108.667 14.8333 150.667 8.67362e-19 202 0 c 0
 256.667 0 300.333 17 333 51 c 0
 361 80.3333 375.333 118.333 376 165 c 0
 376.667 215 360.333 256.167 327 288.5 c 0
 293.667 320.833 252 337 202 337 c 0
EndSplineSet
EndChar
StartChar: uni0D03
Encoding: 3331 3331
Width: 315
Flags: HW
Fore
163 213 m 0
 131.667 213.667 106.667 203.833 88 183.5 c 0
 69.3333 163.167 60 137.333 60 106 c 0
 60 74.6667 69.3333 49.3333 88 30 c 0
 106.667 10.6667 131.667 0.666667 163 0 c 0
 193 -0.666667 217.5 9.33333 236.5 30 c 0
 255.5 50.6667 265.333 76 266 106 c 0
 266.667 138 257.667 163.667 239 183 c 0
 220.333 202.333 195 212.333 163 213 c 0
163 50 m 0
 148.333 49.3333 137 54.6667 129 66 c 0
 121 77.3333 117 90.6667 117 106 c 0
 117 120.667 121.167 133.833 129.5 145.5 c 0
 137.833 157.167 149 163 163 163 c 0
 177 163 188.333 157.333 197 146 c 0
 203.667 139.333 208 126 210 106 c 0
 210 91.3333 205.833 78.5 197.5 67.5 c 0
 189.167 56.5 177.667 50.6667 163 50 c 0
163 450 m 0
 132.333 450.667 107.5 441 88.5 421 c 0
 69.5 401 60 375.333 60 344 c 0
 60 312.667 69.3333 287.333 88 268 c 0
 106.667 248.667 131.667 238.667 163 238 c 0
 193 237.333 217.5 247.333 236.5 268 c 0
 255.5 288.667 265.333 314 266 344 c 0
 266.667 376 257.667 401.5 239 420.5 c 0
 220.333 439.5 195 449.333 163 450 c 0
163 400 m 0
 177.667 400 189 394.5 197 383.5 c 0
 205 372.5 209.333 359.333 210 344 c 0
 210.667 331.333 206.667 318 198 304 c 1
 190 294 178.333 288.667 163 288 c 0
 151 287.333 139.333 292.667 128 304 c 1
 120 315.333 116 328.667 116 344 c 0
 116 358.667 120.167 371.667 128.5 383 c 0
 136.833 394.333 148.333 400 163 400 c 0
EndSplineSet
EndChar
StartChar: uni0D05
Encoding: 3333 3333
Width: 1017
Flags: HW
Fore
341 50 m 0
 293 49.3333 258.667 78.3333 238 137 c 0
 234 149 231.333 165.667 230 187 c 1
 231 200 l 2
 233.667 234 243.333 267.667 260 301 c 0
 279.333 340.333 303 365 331 375 c 1
 355 371.667 375 362.167 391 346.5 c 0
 407 330.833 415.333 311.333 416 288 c 0
 416.667 270.667 409.333 255.833 394 243.5 c 0
 378.667 231.167 361 225 341 225 c 2
 306 225 l 1
 306 175 l 1
 341 175 l 2
 360.333 175 377.5 169.333 392.5 158 c 0
 407.5 146.667 415.333 131.667 416 113 c 0
 416.667 94.3333 409.167 79.3333 393.5 68 c 0
 377.833 56.6667 360.333 50.6667 341 50 c 0
904 275 m 2
 948.667 270.333 971.333 244 972 196 c 0
 972.667 159.333 960 126 934 96 c 0
 908 66 877 50.6667 841 50 c 0
 819.667 49.3333 802.333 56.3333 789 71 c 1
 779 85.6667 773.667 104.333 773 127 c 0
 772.333 163 783 196.333 805 227 c 0
 829.667 259.667 859.333 276 894 276 c 2
 904 275 l 2
416 388 m 1
 454 400 l 1
 470 401 l 2
 502.667 403 529 390.833 549 364.5 c 0
 569 338.167 579 304.333 579 263 c 2
 579 0 l 1
 641 0 l 1
 641 263 l 2
 641 304.333 651.667 337.333 673 362 c 0
 694.333 386.667 725.333 399.333 766 400 c 0
 792 400.667 817.5 394.167 842.5 380.5 c 0
 867.5 366.833 883.667 348.333 891 325 c 1
 842.333 325 799.667 304.333 763 263 c 0
 726.333 221.667 708 176.333 708 127 c 0
 708 54.3333 748.333 12.3333 829 1 c 1
 881.667 1 922.667 21.3333 952 62 c 0
 977.333 97.3333 990.333 142.333 991 197 c 0
 991.667 266.333 972 325 932 373 c 0
 890 424.333 834.667 450 766 450 c 0
 736.667 450 708.167 441.833 680.5 425.5 c 0
 652.833 409.167 631.333 388.333 616 363 c 1
 588.667 419.667 534.667 448.667 454 450 c 0
 428 450.667 407.667 448.333 393 443 c 2
 341 425 l 1
 308.333 441.667 279.333 450 254 450 c 0
 188 450.667 132.333 427.833 87 381.5 c 0
 41.6667 335.167 18.6667 279 18 213 c 0
 17.3333 127.667 50.3333 56.6667 117 0 c 1
 168 27 l 1
 110 57.6667 81 119.667 81 213 c 0
 81 259.667 99.3333 303.333 136 344 c 0
 168.667 380.667 200.333 399.333 231 400 c 0
 245.667 400.667 256.333 400.333 263 399 c 0
 269.667 397.667 275.667 394 281 388 c 1
 247 379.333 219 354 197 312 c 0
 178.333 276 168.667 238.667 168 200 c 0
 167.333 144 182 97.6667 212 61 c 0
 243.333 21.6667 286.333 2 341 2 c 0
 377 2 408 11.3333 434 30 c 0
 463.333 50.6667 478.333 78.3333 479 113 c 0
 479.667 132.333 475.333 149.667 466 165 c 0
 456.667 180.333 440 192 416 200 c 1
 432 205.333 446.5 215.333 459.5 230 c 0
 472.5 244.667 479 259.667 479 275 c 0
 479 301.667 474.667 324.333 466 343 c 0
 457.333 361.667 440.667 376.667 416 388 c 1
EndSplineSet
EndChar
StartChar: uni0D06
Encoding: 3334 3334
Width: 1201
Flags: HW
Fore
342 50 m 0
 292.667 49.3333 257.667 78.3333 237 137 c 0
 233 149 230.333 165.667 229 187 c 1
 230 200 l 2
 232.667 234 242.333 267.667 259 301 c 0
 278.333 340.333 302 365 330 375 c 1
 386.667 363 415.667 334 417 288 c 0
 417.667 270.667 410.333 255.833 395 243.5 c 0
 379.667 231.167 362 225 342 225 c 2
 305 225 l 1
 305 175 l 1
 342 175 l 2
 361.333 175 378.5 169.333 393.5 158 c 0
 408.5 146.667 416.333 131.667 417 113 c 0
 417.667 94.3333 410.167 79.3333 394.5 68 c 0
 378.833 56.6667 361.333 50.6667 342 50 c 0
904 275 m 2
 926 273 944 262 958 242 c 0
 970 224.667 976 204 976 180 c 0
 976 143.333 965.333 113 944 89 c 0
 922 63 893 49.6667 857 49 c 2
 842 50 l 2
 818 51.3333 799.833 59.8333 787.5 75.5 c 0
 775.167 91.1667 768.667 111.333 768 136 c 0
 767.333 170 778.5 201.833 801.5 231.5 c 0
 824.5 261.167 852.333 276.333 885 277 c 1
 904 275 l 2
417 388 m 1
 454 400 l 1
 470 401 l 2
 502.667 403 529 390.833 549 364.5 c 0
 569 338.167 579 304.333 579 263 c 2
 579 0 l 1
 642 0 l 1
 642 263 l 2
 642 304.333 652.667 337.333 674 362 c 0
 695.333 386.667 726.333 399.333 767 400 c 0
 825 400.667 862.333 375.667 879 325 c 1
 835 329.667 795 307.333 759 258 c 0
 726.333 214 709.667 169 709 123 c 0
 708.333 92.3333 717.667 65.6667 737 43 c 0
 758.333 18.3333 789 4.33333 829 1 c 2
 842 0 l 2
 878.667 -2.66667 912.667 17.3333 944 60 c 0
 972.667 99.3333 987.333 147 988 203 c 0
 988 223.667 985 247.667 979 275 c 1
 1013.67 254.333 1038.33 232.667 1053 210 c 0
 1069 184 1077.67 143.333 1079 88 c 1
 1058.33 -36 1000.33 -98 905 -98 c 0
 851 -98 809.333 -89.6667 780 -73 c 1
 754 -123 l 1
 824 -138 l 1
 879 -148 l 1
 891 -149 l 1
 904 -149 l 2
 966 -149 1020.33 -128.333 1067 -87 c 0
 1117 -43 1142 15.3333 1142 88 c 0
 1142 154.667 1127.33 209 1098 251 c 0
 1065.33 299 1017.33 323.667 954 325 c 1
 928 407 865.667 448.667 767 450 c 0
 737 450.667 708.167 442.833 680.5 426.5 c 0
 652.833 410.167 631.667 389 617 363 c 1
 589.667 419.667 535.333 448.667 454 450 c 0
 428 450.667 407.667 448.333 393 443 c 2
 342 425 l 1
 300 443 l 2
 295.333 444.333 288 446 278 448 c 0
 274 448.667 266.333 449.333 255 450 c 0
 188.333 450 132.167 427.167 86.5 381.5 c 0
 40.8333 335.833 17.6667 279.667 17 213 c 0
 16.3333 128.333 49.6667 57.3333 117 0 c 1
 167 26 l 1
 109 72.6667 80 135 80 213 c 0
 80 259.667 98.3333 303.333 135 344 c 0
 167.667 380.667 199.333 399.333 230 400 c 0
 244.667 400.667 255.333 400.333 262 399 c 0
 268.667 397.667 274.667 394 280 388 c 1
 246 379.333 218 354 196 312 c 0
 177.333 276 167.667 238.667 167 200 c 0
 166.333 144 181.333 97.3333 212 60 c 0
 244 20.6667 287.333 0.666667 342 0 c 0
 378 -0.666667 409 9 435 29 c 0
 463.667 50.3333 478.333 78.3333 479 113 c 0
 479.667 131.667 475.333 149.167 466 165.5 c 0
 456.667 181.833 440.333 193.333 417 200 c 1
 432.333 205.333 446.333 215.5 459 230.5 c 0
 471.667 245.5 478.333 260.333 479 275 c 0
 479.667 300.333 475.5 322.667 466.5 342 c 0
 457.5 361.333 441 376.667 417 388 c 1
EndSplineSet
EndChar
StartChar: uni0D07
Encoding: 3335 3335
Width: 757
Flags: HW
Fore
158 161 m 0
 140 160.333 124.333 166.667 111 180 c 1
 101 194 95.6667 209.333 95 226 c 0
 94.3333 245.333 99.8333 262.167 111.5 276.5 c 0
 123.167 290.833 138.667 298.333 158 299 c 0
 176 299.667 191 292.333 203 277 c 0
 215 261.667 221 244.667 221 226 c 0
 221 184 200 162.333 158 161 c 0
171 -162 m 2
 683 -162 l 1
 683 -112 l 1
 171 -112 l 2
 151 -112 134.5 -106.167 121.5 -94.5 c 0
 108.5 -82.8333 101.667 -67 101 -47 c 0
 100.333 -28.3333 107.333 -13.3333 122 -2 c 0
 135.333 7.33333 151.667 12 171 12 c 2
 471 12 l 2
 542.333 12 599.5 31.6667 642.5 71 c 0
 685.5 110.333 707.333 165.333 708 236 c 0
 708.667 294 694.667 343 666 383 c 0
 633.333 427 589 449 533 449 c 0
 501.667 449 473 441 447 425 c 0
 431 415 414 398 396 374 c 1
 372.667 404 344.667 424.667 312 436 c 0
 288.667 444 258.333 448.333 221 449 c 0
 167 449.667 120.333 431.833 81 395.5 c 0
 41.6667 359.167 22 314.333 22 261 c 0
 22 217 33.8333 181.333 57.5 154 c 0
 81.1667 126.667 114.667 112.667 158 112 c 0
 197.333 111.333 228 123 250 147 c 0
 272 171 283 199.333 283 232 c 0
 283 260.667 274.5 286.167 257.5 308.5 c 0
 240.5 330.833 215.667 344.333 183 349 c 1
 153.667 349 131.833 345.5 117.5 338.5 c 0
 103.167 331.5 92 318.333 84 299 c 1
 100.667 364.333 150.333 397.667 233 399 c 0
 269 399.667 300.333 390.333 327 371 c 0
 356.333 349 371 320.667 371 286 c 2
 371 124 l 1
 434 124 l 1
 434 286 l 2
 434 340.667 453.667 376 493 392 c 0
 503.667 396.667 517 399 533 399 c 0
 569 399.667 597.333 383 618 349 c 0
 636 319 645.333 281.333 646 236 c 0
 646.667 194.667 634 157.333 608 124 c 0
 582 90.6667 548.667 70 508 62 c 1
 171 62 l 2
 135 62 105 53.6667 81 37 c 0
 54.3333 17.6667 40.6667 -9.33333 40 -44 c 0
 39.3333 -79.3333 52.6667 -108 80 -130 c 0
 104.667 -151.333 135 -162 171 -162 c 2
EndSplineSet
EndChar
StartChar: uni0D08
Encoding: 3336 3336
Width: 1325
Flags: HW
Fore
972 130 m 1
 910 130 l 1
 910 86 929 52.333 967 29 c 0
 999 10.333 1038.33 0.666992 1085 0 c 0
 1154.33 -0.666992 1210 20.667 1252 64 c 0
 1294 107.333 1315.33 163.667 1316 233 c 0
 1316.67 291 1301.33 340.667 1270 382 c 0
 1236.67 426.667 1191.67 449.333 1135 450 c 0
 1075 450.667 1029 427 997 379 c 1
 991.667 401 979 418.333 959 431 c 0
 953 435 943 439.667 929 445 c 0
 918.333 448.333 907.667 450 897 450 c 0
 843.667 450.667 801.667 431.667 771 393 c 0
 743.667 357 730 311.667 730 257 c 2
 730 238 l 2
 730 233.333 730.333 228.833 731 224.5 c 0
 731.667 220.167 733 212 735 200 c 1
 797 200 l 1
 794 254 l 1
 792 296 799 332.333 815 363 c 0
 829 389 852.333 402.333 885 403 c 0
 908.333 403.667 928.667 395.333 946 378 c 0
 963.333 360.667 972 337.333 972 308 c 2
 972 200 l 1
 1035 200 l 1
 1035 308 l 2
 1035 370.667 1064 402.333 1122 403 c 0
 1164.67 403.667 1198.33 386.333 1223 351 c 0
 1244.33 320.333 1255 282.667 1255 238 c 0
 1255 186 1242 142.333 1216 107 c 0
 1186.67 67.667 1147 47.667 1097 47 c 0
 1063.67 46.333 1036 51.667 1014 63 c 0
 986 77.667 972 100 972 130 c 1
158 161 m 0
 140 160.333 124.333 166.667 111 180 c 1
 101 194 95.6667 209.333 95 226 c 0
 94.3333 245.333 99.8333 262.167 111.5 276.5 c 0
 123.167 290.833 138.667 298.333 158 299 c 0
 176 299.667 191 292.333 203 277 c 0
 215 261.667 221 244.667 221 226 c 0
 221 184 200 162.333 158 161 c 0
171 -162 m 2
 683 -162 l 1
 683 -112 l 1
 171 -112 l 2
 151 -112 134.5 -106.167 121.5 -94.5 c 0
 108.5 -82.8333 101.667 -67 101 -47 c 0
 100.333 -28.3333 107.333 -13.3333 122 -2 c 0
 135.333 7.33333 151.667 12 171 12 c 2
 471 12 l 2
 542.333 12 599.5 31.6667 642.5 71 c 0
 685.5 110.333 707.333 165.333 708 236 c 0
 708.667 294 694.667 343 666 383 c 0
 633.333 427 589 449 533 449 c 0
 501.667 449 473 441 447 425 c 0
 431 415 414 398 396 374 c 1
 372.667 404 344.667 424.667 312 436 c 0
 288.667 444 258.333 448.333 221 449 c 0
 167 449.667 120.333 431.833 81 395.5 c 0
 41.6667 359.167 22 314.333 22 261 c 0
 22 217 33.8333 181.333 57.5 154 c 0
 81.1667 126.667 114.667 112.667 158 112 c 0
 197.333 111.333 228 123 250 147 c 0
 272 171 283 199.333 283 232 c 0
 283 260.667 274.5 286.167 257.5 308.5 c 0
 240.5 330.833 215.667 344.333 183 349 c 1
 153.667 349 131.833 345.5 117.5 338.5 c 0
 103.167 331.5 92 318.333 84 299 c 1
 100.667 364.333 150.333 397.667 233 399 c 0
 269 399.667 300.333 390.333 327 371 c 0
 356.333 349 371 320.667 371 286 c 2
 371 124 l 1
 434 124 l 1
 434 286 l 2
 434 340.667 453.667 376 493 392 c 0
 503.667 396.667 517 399 533 399 c 0
 569 399.667 597.333 383 618 349 c 0
 636 319 645.333 281.333 646 236 c 0
 646.667 194.667 634 157.333 608 124 c 0
 582 90.6667 548.667 70 508 62 c 1
 171 62 l 2
 135 62 105 53.6667 81 37 c 0
 54.3333 17.6667 40.6667 -9.33333 40 -44 c 0
 39.3333 -79.3333 52.6667 -108 80 -130 c 0
 104.667 -151.333 135 -162 171 -162 c 2
EndSplineSet
EndChar
StartChar: uni0D09
Encoding: 3337 3337
Width: 539
Flags: HW
Fore
216 225 m 0
 216 185 195 164.333 153 163 c 0
 133.667 162.333 116.5 167.833 101.5 179.5 c 0
 86.5 191.167 78.6667 206.333 78 225 c 0
 77.3333 243.667 85.3333 259 102 271 c 0
 116.667 282.333 133.667 288 153 288 c 0
 170.333 288 185.167 281.833 197.5 269.5 c 0
 209.833 257.167 216 242.333 216 225 c 0
153 64 m 2
 115 64 85 52.8333 63 30.5 c 0
 41 8.16667 29.6667 -22 29 -60 c 0
 28.3333 -94.6667 44.6667 -120.667 78 -138 c 0
 107.333 -153.333 149 -161 203 -161 c 2
 491 -161 l 1
 491 -111 l 1
 191 -111 l 2
 168.333 -111 147.333 -106 128 -96 c 0
 104 -84.6667 92 -68.6667 92 -48 c 0
 92 -7.33333 116.667 13 166 13 c 2
 291 13 l 2
 423.667 13 490.333 83.6667 491 225 c 0
 491.667 299.667 470.667 356.333 428 395 c 0
 387.333 431.667 329 450 253 450 c 0
 182.333 450 126 432.667 84 398 c 0
 39.3333 360.667 16.6667 307.333 16 238 c 0
 15.3333 200 29 169.333 57 146 c 0
 83 124 115 113 153 113 c 0
 185.667 113 214.5 121.833 239.5 139.5 c 0
 264.5 157.167 277.333 181.667 278 213 c 0
 278.667 247.667 268.667 277.167 248 301.5 c 0
 227.333 325.833 200 338 166 338 c 0
 146.667 338 130.167 336.167 116.5 332.5 c 0
 102.833 328.833 90 318 78 300 c 1
 83.3333 329.333 105 354 143 374 c 0
 175 390.667 207.667 399.333 241 400 c 0
 291.667 400.667 335.333 386 372 356 c 0
 408.667 326 427.333 286.667 428 238 c 0
 428.667 190.667 420 151.667 402 121 c 0
 380 83 347 64 303 64 c 2
 153 64 l 2
EndSplineSet
EndChar
StartChar: uni0D0A
Encoding: 3338 3338
Width: 1117
Flags: HW
Fore
763 130 m 1
 701 130 l 1
 701 86 720 52.333 758 29 c 0
 790 10.333 829.333 0.666992 876 0 c 0
 945.333 -0.666992 1001 20.667 1043 64 c 0
 1085 107.333 1106.33 163.667 1107 233 c 0
 1107.67 291 1092.33 340.667 1061 382 c 0
 1027.67 426.667 982.667 449.333 926 450 c 0
 866 450.667 820 427 788 379 c 1
 782.667 401 770 418.333 750 431 c 0
 744 435 734 439.667 720 445 c 0
 709.333 448.333 698.667 450 688 450 c 0
 634.667 450.667 592.667 431.667 562 393 c 0
 534.667 357 521 311.667 521 257 c 2
 521 238 l 2
 521 233.333 521.333 228.833 522 224.5 c 0
 522.667 220.167 524 212 526 200 c 1
 588 200 l 1
 585 254 l 1
 583 296 590 332.333 606 363 c 0
 620 389 643.333 402.333 676 403 c 0
 699.333 403.667 719.667 395.333 737 378 c 0
 754.333 360.667 763 337.333 763 308 c 2
 763 200 l 1
 826 200 l 1
 826 308 l 2
 826 370.667 855 402.333 913 403 c 0
 955.667 403.667 989.333 386.333 1014 351 c 0
 1035.33 320.333 1046 282.667 1046 238 c 0
 1046 186 1033 142.333 1007 107 c 0
 977.667 67.667 938 47.667 888 47 c 0
 854.667 46.333 827 51.667 805 63 c 0
 777 77.667 763 100 763 130 c 1
216 225 m 0
 216 185 195 164.333 153 163 c 0
 133.667 162.333 116.5 167.833 101.5 179.5 c 0
 86.5 191.167 78.6667 206.333 78 225 c 0
 77.3333 243.667 85.3333 259 102 271 c 0
 116.667 282.333 133.667 288 153 288 c 0
 170.333 288 185.167 281.833 197.5 269.5 c 0
 209.833 257.167 216 242.333 216 225 c 0
153 64 m 2
 115 64 85 52.8333 63 30.5 c 0
 41 8.16667 29.6667 -22 29 -60 c 0
 28.3333 -94.6667 44.6667 -120.667 78 -138 c 0
 107.333 -153.333 149 -161 203 -161 c 2
 491 -161 l 1
 491 -111 l 1
 191 -111 l 2
 168.333 -111 147.333 -106 128 -96 c 0
 104 -84.6667 92 -68.6667 92 -48 c 0
 92 -7.33333 116.667 13 166 13 c 2
 291 13 l 2
 423.667 13 490.333 83.6667 491 225 c 0
 491.667 299.667 470.667 356.333 428 395 c 0
 387.333 431.667 329 450 253 450 c 0
 182.333 450 126 432.667 84 398 c 0
 39.3333 360.667 16.6667 307.333 16 238 c 0
 15.3333 200 29 169.333 57 146 c 0
 83 124 115 113 153 113 c 0
 185.667 113 214.5 121.833 239.5 139.5 c 0
 264.5 157.167 277.333 181.667 278 213 c 0
 278.667 247.667 268.667 277.167 248 301.5 c 0
 227.333 325.833 200 338 166 338 c 0
 146.667 338 130.167 336.167 116.5 332.5 c 0
 102.833 328.833 90 318 78 300 c 1
 83.3333 329.333 105 354 143 374 c 0
 175 390.667 207.667 399.333 241 400 c 0
 291.667 400.667 335.333 386 372 356 c 0
 408.667 326 427.333 286.667 428 238 c 0
 428.667 190.667 420 151.667 402 121 c 0
 380 83 347 64 303 64 c 2
 153 64 l 2
EndSplineSet
EndChar
StartChar: uni0D0B
Encoding: 3339 3339
Width: 722
Flags: HW
Fore
141 325 m 0
 140.333 375 161 400 203 400 c 0
 224.333 400 242.167 392.833 256.5 378.5 c 0
 270.833 364.167 278 346.333 278 325 c 0
 278 267 253 238 203 238 c 0
 182.333 238 166.333 247.667 155 267 c 0
 145.667 283 141 302.333 141 325 c 0
528 238 m 0
 504.667 238 488.5 246.167 479.5 262.5 c 0
 470.5 278.833 466 299.667 466 325 c 0
 466 344.333 471.667 361.667 483 377 c 0
 494.333 392.333 509.333 400 528 400 c 0
 570 400.667 591 375.667 591 325 c 0
 591 294.333 585.667 272.167 575 258.5 c 0
 564.333 244.833 548.667 238 528 238 c 0
353 50 m 0
 429.667 50 489 44.3333 531 33 c 0
 571 22.3333 591 -0.666667 591 -36 c 0
 591 -68.6667 559.667 -93 497 -109 c 0
 457 -118.333 413.333 -123.333 366 -124 c 0
 320 -124.667 275.333 -118.333 232 -105 c 0
 172 -86.3333 141.667 -59 141 -23 c 0
 140.333 25.6667 211 50 353 50 c 0
403 325 m 0
 403 286.333 414 254.333 436 229 c 0
 459.333 201.667 490 188 528 188 c 0
 546.667 188 565.333 193.667 584 205 c 0
 605.333 217.667 616 232.667 616 250 c 0
 616 202 584.667 163.667 522 135 c 0
 472.667 112.333 420.667 100.667 366 100 c 0
 296 99.3333 237 115.333 189 148 c 0
 147 176.667 122.667 215 116 263 c 1
 141.333 213 174.667 188 216 188 c 0
 251.333 188 280.833 198 304.5 218 c 0
 328.167 238 340.333 265.333 341 300 c 0
 341.667 343.333 332 378.333 312 405 c 0
 290 435 258 450 216 450 c 0
 166.667 450 128.667 432.667 102 398 c 0
 78.6667 367.333 66.6667 326.333 66 275 c 0
 65.3333 193.667 107 131.333 191 88 c 1
 116.333 69.3333 78.6667 32 78 -24 c 0
 76.6667 -124 176.667 -174 378 -174 c 0
 441.333 -174 496.667 -167 544 -153 c 0
 616 -131.667 652.333 -97 653 -49 c 0
 654.333 29.6667 617 75.3333 541 88 c 1
 633 122 679 184 679 274 c 2
 679 290 l 1
 678 300 l 2
 668 398.667 618 448.667 528 450 c 0
 490 450.667 459.667 439.5 437 416.5 c 0
 414.333 393.5 403 363 403 325 c 0
EndSplineSet
EndChar
StartChar: uni0D0C
Encoding: 3340 3340
Width: 889
Flags: HW
Fore
857 176 m 2
 857 124 845 82 821 50 c 0
 793.667 14.6667 755 -3 705 -3 c 0
 666.333 -3 635.833 10 613.5 36 c 0
 591.167 62 580 94.6667 580 134 c 0
 580 171.333 593.333 201.5 620 224.5 c 0
 646.667 247.5 679 259 717 259 c 2
 782 259 l 1
 768.667 300.333 751.333 329.667 730 347 c 1
 698 379 654.333 395.333 599 396 c 0
 563 396.667 532.167 387.167 506.5 367.5 c 0
 480.833 347.833 468 320 468 284 c 2
 468 -4 l 1
 404 -4 l 1
 404 284 l 2
 404 320 391.5 347.5 366.5 366.5 c 0
 341.5 385.5 310.333 395.333 273 396 c 0
 221 396.667 177.333 380.333 142 347 c 1
 123.333 334.333 106 305 90 259 c 1
 155 259 l 2
 192.333 259 224.333 247.333 251 224 c 0
 277.667 200.667 291.333 170.667 292 134 c 0
 292.667 94.6667 281.667 62.1667 259 36.5 c 0
 236.333 10.8333 205.667 -2.33333 167 -3 c 0
 117 -3.66667 78.3333 14 51 50 c 0
 27 82.6667 15 124.667 15 176 c 2
 15 192 l 1
 17 209 l 1
 27 259 l 2
 31 280.333 41.3333 304 58 330 c 0
 73.3333 354 89 372.333 105 385 c 1
 124.333 404.333 151.333 419.667 186 431 c 0
 216.667 441 247.333 446 278 446 c 0
 311.333 446 342 440.333 370 429 c 0
 398 417.667 420 399.667 436 375 c 1
 467.333 421 520 444.667 594 446 c 0
 626.667 446.667 660 440.667 694 428 c 0
 725.333 416.667 749.667 402.333 767 385 c 1
 783 373 798.833 354.333 814.5 329 c 0
 830.167 303.667 840.333 280.333 845 259 c 1
 855 209 l 1
 857 192 l 1
 857 176 l 2
794 174 m 1
 793 190 l 1
 792 209 l 1
 705 209 l 2
 686.333 209 671.333 201.167 660 185.5 c 0
 648.667 169.833 642.667 152.667 642 134 c 0
 640.667 75.3333 661.667 46 705 46 c 0
 762.333 46 792 88.6667 794 174 c 1
230 134 m 0
 230.667 152 224.667 169 212 185 c 0
 199.333 201 184.333 209 167 209 c 2
 80 209 l 1
 78 174 l 2
 76 140.667 83 110 99 82 c 0
 113 58 135.667 46 167 46 c 0
 207.667 46 228.667 75.3333 230 134 c 0
EndSplineSet
EndChar
StartChar: uni0D0E
Encoding: 3342 3342
Width: 957
Flags: HW
Fore
649 0 m 1
 649 -41.3333 644.667 -71 636 -89 c 0
 624.667 -111.667 604 -123.333 574 -124 c 0
 552 -124.667 533.333 -113.333 518 -90 c 1
 506.667 -68 500.333 -38 499 0 c 1
 649 0 l 1
686 450 m 0
 590 450.667 522 409 482 325 c 0
 452 262.333 437 170.667 437 50 c 1
 337 50 l 1
 351 73.3333 358 99.3333 358 128 c 0
 358 171.333 342.167 210.833 310.5 246.5 c 0
 278.833 282.167 241.667 300 199 300 c 0
 109 300 50.3333 266 23 198 c 0
 16.3333 181.333 12.6667 160.667 12 136 c 0
 11.3333 104.667 18.8333 76 34.5 50 c 0
 50.1667 24 71.6667 7.33333 99 0 c 1
 124 38 l 1
 109.333 47.3333 97.5 60.1667 88.5 76.5 c 0
 79.5 92.8333 75 111 75 131 c 0
 75 164.333 85.3333 192.5 106 215.5 c 0
 126.667 238.5 153.667 250 187 250 c 0
 218.333 250 245 236.5 267 209.5 c 0
 289 182.5 300 153 300 121 c 0
 300 75 279 47.3333 237 38 c 1
 237 0 l 1
 437 0 l 1
 437 -51.3333 449 -92.3333 473 -123 c 0
 499 -156.333 537 -173.333 587 -174 c 0
 627 -174.667 658 -161.333 680 -134 c 0
 700.667 -108.667 711 -75.6667 711 -35 c 2
 711 338 l 1
 649 338 l 1
 649 50 l 1
 499 50 l 1
 499 282 561.333 398.667 686 400 c 0
 742.667 400.667 785.333 362.333 814 285 c 0
 835.333 228.333 846.333 166 847 98 c 0
 847.667 -8.66667 823.333 -86.6667 774 -136 c 1
 799 -173 l 1
 839.667 -161 870 -121 890 -53 c 0
 904.667 -4.33333 912.333 48.3333 913 105 c 0
 913.667 197.667 896 276 860 340 c 0
 819.333 412.667 761.333 449.333 686 450 c 0
EndSplineSet
EndChar
StartChar: uni0D0F
Encoding: 3343 3343
Width: 949
Flags: HW
Fore
647 0 m 1
 647 -42 642.667 -71.6667 634 -89 c 0
 622.667 -111 602 -122.333 572 -123 c 0
 550 -123.667 531.333 -112.667 516 -90 c 1
 504.667 -68.6667 498.333 -38.6667 497 0 c 1
 647 0 l 1
435 50 m 1
 335 50 l 1
 353 76.6667 362.333 104.333 363 133 c 0
 363.667 177 347.167 215.667 313.5 249 c 0
 279.833 282.333 241 299.333 197 300 c 0
 143 300.667 99 287.667 65 261 c 0
 28.3333 232.333 9.66667 192 9 140 c 0
 8.33333 108.667 15.6667 80.3333 31 55 c 0
 46.3333 29.6667 68.3333 11.3333 97 0 c 1
 122 38 l 1
 107.333 46 94.6667 59.3333 84 78 c 0
 76 92.6667 71.6667 111 71 133 c 0
 70.3333 165.667 81 193.333 103 216 c 0
 125 238.667 152.333 250 185 250 c 0
 218.333 250 246 238 268 214 c 0
 286.667 193.333 296.333 167.333 297 136 c 0
 297.667 115.333 292.5 97 281.5 81 c 0
 270.5 65 255 54.6667 235 50 c 1
 235 0 l 1
 435 0 l 1
 435 -50.6667 447.333 -91.6667 472 -123 c 0
 498.667 -156.333 536.333 -173.333 585 -174 c 0
 626.333 -174.667 657.5 -162.167 678.5 -136.5 c 0
 699.5 -110.833 710 -77.3333 710 -36 c 2
 710 338 l 1
 647 338 l 1
 647 50 l 1
 497 50 l 1
 497 282 559.667 398.667 685 400 c 0
 730.333 400.667 768 389.667 798 367 c 0
 830 342.333 846.333 307.667 847 263 c 0
 847.667 204.333 822.667 175 772 175 c 2
 747 175 l 1
 747 125 l 1
 772 125 l 2
 796 125 814.667 108.333 828 75 c 0
 837.333 50.3333 842.333 23.6667 843 -5 c 0
 843.667 -34.3333 839 -59.6667 829 -81 c 0
 817 -109 798 -123.333 772 -124 c 0
 768.667 -124 763.333 -121 756 -115 c 1
 747 -99 l 1
 747 -161 l 1
 756 -167 l 1
 762.667 -169.667 772.333 -172 785 -174 c 1
 827.667 -174 860.333 -156.333 883 -121 c 0
 903 -89.6667 913.333 -50.6667 914 -4 c 0
 914.667 28 908.667 58 896 86 c 0
 882 119.333 861.667 140.667 835 150 c 1
 885 163.333 910 201 910 263 c 0
 910 324.333 887.333 371.667 842 405 c 0
 801.333 434.333 749 449.333 685 450 c 0
 595 450.667 528.333 407.667 485 321 c 0
 453 256.333 436.333 166 435 50 c 1
EndSplineSet
EndChar
StartChar: uni0D10
Encoding: 3344 3344
Width: 1437
Flags: HW
Fore
183 50 m 0
 159.667 49.3333 140.667 59 126 79 c 0
 113.333 97 107 118 107 142 c 0
 107 192 132.333 217.667 183 219 c 0
 232.333 219.667 257.667 194 259 142 c 0
 259.667 119.333 252.833 98.5 238.5 79.5 c 0
 224.167 60.5 205.667 50.6667 183 50 c 0
396 0 m 1
 424.667 26.6667 447.333 60 464 100 c 0
 480.667 140 489.333 180 490 220 c 0
 490.667 286.667 471 341.5 431 384.5 c 0
 391 427.5 337.667 449.333 271 450 c 0
 199.667 450.667 141 424 95 370 c 0
 52.3333 319.333 31 257.667 31 185 c 0
 31 133 43 90.3333 67 57 c 0
 94.3333 19.6667 133 0.666667 183 0 c 0
 222.333 -0.666667 255 10.8333 281 34.5 c 0
 307 58.1667 320.333 89.6667 321 129 c 0
 321.667 169.667 309 203.167 283 229.5 c 0
 257 255.833 223.667 269.333 183 270 c 0
 162.333 270 142.833 264 124.5 252 c 0
 106.167 240 92.6667 224.667 84 206 c 1
 91.3333 262 110 307.333 140 342 c 0
 173.333 380 217 399.333 271 400 c 0
 321.667 400.667 360.667 384.333 388 351 c 0
 413.333 319.667 426.333 278.333 427 227 c 0
 427.667 191.667 421 157 407 123 c 0
 392.333 86.3333 372 58 346 38 c 1
 396 0 l 1
1162 0 m 1
 1162 -41.333 1157.67 -71 1149 -89 c 0
 1137.67 -111.667 1117 -123.333 1087 -124 c 0
 1065 -124.667 1046.33 -113.333 1031 -90 c 1
 1019.67 -68 1013.33 -38 1012 0 c 1
 1162 0 l 1
1199 450 m 0
 1103 450.667 1035 409 995 325 c 0
 965 262.333 950 170.667 950 50 c 1
 850 50 l 1
 864 73.333 871 99.333 871 128 c 0
 871 171.333 855.167 210.833 823.5 246.5 c 0
 791.833 282.167 754.667 300 712 300 c 0
 622 300 563.333 266 536 198 c 0
 529.333 181.333 525.667 160.667 525 136 c 0
 524.333 104.667 531.833 76 547.5 50 c 0
 563.167 24 584.667 7.33301 612 0 c 1
 637 38 l 1
 622.333 47.333 610.5 60.167 601.5 76.5 c 0
 592.5 92.833 588 111 588 131 c 0
 588 164.333 598.333 192.5 619 215.5 c 0
 639.667 238.5 666.667 250 700 250 c 0
 731.333 250 758 236.5 780 209.5 c 0
 802 182.5 813 153 813 121 c 0
 813 75 792 47.333 750 38 c 1
 750 0 l 1
 950 0 l 1
 950 -51.333 962 -92.333 986 -123 c 0
 1012 -156.333 1050 -173.333 1100 -174 c 0
 1140 -174.667 1171 -161.333 1193 -134 c 0
 1213.67 -108.667 1224 -75.667 1224 -35 c 2
 1224 338 l 1
 1162 338 l 1
 1162 50 l 1
 1012 50 l 1
 1012 282 1074.33 398.667 1199 400 c 0
 1255.67 400.667 1298.33 362.333 1327 285 c 0
 1348.33 228.333 1359.33 166 1360 98 c 0
 1360.67 -8.66699 1336.33 -86.667 1287 -136 c 1
 1312 -173 l 1
 1352.67 -161 1383 -121 1403 -53 c 0
 1417.67 -4.33301 1425.33 48.333 1426 105 c 0
 1426.67 197.667 1409 276 1373 340 c 0
 1332.33 412.667 1274.33 449.333 1199 450 c 0
EndSplineSet
EndChar
StartChar: uni0D12
Encoding: 3346 3346
Width: 549
Flags: HW
Fore
149 51 m 0
 127 50.3333 109.833 57.3333 97.5 72 c 0
 85.1667 86.6667 79 105.333 79 128 c 0
 79 151.333 85 171.167 97 187.5 c 0
 109 203.833 126.333 212.333 149 213 c 0
 171 213.667 188.333 204.667 201 186 c 0
 212.333 170 218.333 150.667 219 128 c 0
 219.667 108.667 213.667 90.3333 201 73 c 0
 189 59 171.667 51.6667 149 51 c 0
374 50 m 0
 366 50 354.667 52 340 56 c 1
 324 63 l 1
 324 13 l 1
 326 12.3333 329 11.1667 333 9.5 c 0
 337 7.83333 340 6.33333 342 5 c 0
 348 4.33333 353 3.33333 357 2 c 1
 399 1 l 2
 432.333 0.333333 459.333 12.3333 480 37 c 0
 499.333 59.6667 509 88 509 122 c 0
 509 176.667 489 211 449 225 c 1
 465 229.667 478 240.333 488 257 c 0
 497.333 271.667 502 288 502 306 c 0
 502.667 342 486.667 374 454 402 c 0
 416.667 434 361 450 287 450 c 0
 203.667 450 136 423.667 84 371 c 0
 36 322.333 12 261.333 12 188 c 0
 12 64.6667 57.6667 2.33333 149 1 c 0
 189 0.333333 221.833 12 247.5 36 c 0
 273.167 60 286.333 92 287 132 c 0
 287.667 169.333 276.333 200.333 253 225 c 0
 229.667 249.667 199.333 262.333 162 263 c 0
 146 263 134.667 262.833 128 262.5 c 0
 121.333 262.167 113 259.5 103 254.5 c 0
 93 249.5 83.3333 239.667 74 225 c 1
 86.6667 341 157.667 399.333 287 400 c 0
 323.667 400 356.333 394 385 382 c 0
 423 366 442.333 341.667 443 309 c 0
 443.667 289.667 434.667 274.667 416 264 c 0
 400.667 254.667 382.667 250 362 250 c 2
 324 250 l 1
 324 201 l 1
 362 200 l 2
 386 199.333 405.333 191.167 420 175.5 c 0
 434.667 159.833 442.333 140.667 443 118 c 0
 443.667 97.3333 437.5 81 424.5 69 c 0
 411.5 57 394.667 50.6667 374 50 c 0
EndSplineSet
EndChar
StartChar: uni0D13
Encoding: 3347 3347
Width: 881
Flags: HW
Fore
597 263 m 1
 597 295 604 324 618 350 c 0
 636 382.667 662.333 399.333 697 400 c 0
 731.667 400.667 760 382.333 782 345 c 0
 800 314.333 809.333 274.333 810 225 c 0
 810.667 182.333 802.667 144.667 786 112 c 0
 765.333 71.333 735.667 50.667 697 50 c 0
 632.333 49.333 599 91 597 175 c 1
 535 175 l 1
 535 123.667 549.167 81.667 577.5 49 c 0
 605.833 16.333 645.667 0 697 0 c 0
 755 0 799.667 22.333 831 67 c 0
 858.333 106.333 872 156 872 216 c 0
 872 272.667 859.333 323.667 834 369 c 0
 803.333 422.333 761.667 449.333 709 450 c 0
 654.333 450.667 611.667 433.333 581 398 c 0
 550.333 362.667 535 317.667 535 263 c 1
 597 263 l 1
149 51 m 0
 127 50.3333 109.833 57.3333 97.5 72 c 0
 85.1667 86.6667 79 105.333 79 128 c 0
 79 151.333 85 171.167 97 187.5 c 0
 109 203.833 126.333 212.333 149 213 c 0
 171 213.667 188.333 204.667 201 186 c 0
 212.333 170 218.333 150.667 219 128 c 0
 219.667 108.667 213.667 90.3333 201 73 c 0
 189 59 171.667 51.6667 149 51 c 0
374 50 m 0
 366 50 354.667 52 340 56 c 1
 324 63 l 1
 324 13 l 1
 326 12.3333 329 11.1667 333 9.5 c 0
 337 7.83333 340 6.33333 342 5 c 0
 348 4.33333 353 3.33333 357 2 c 1
 399 1 l 2
 432.333 0.333333 459.333 12.3333 480 37 c 0
 499.333 59.6667 509 88 509 122 c 0
 509 176.667 489 211 449 225 c 1
 465 229.667 478 240.333 488 257 c 0
 497.333 271.667 502 288 502 306 c 0
 502.667 342 486.667 374 454 402 c 0
 416.667 434 361 450 287 450 c 0
 203.667 450 136 423.667 84 371 c 0
 36 322.333 12 261.333 12 188 c 0
 12 64.6667 57.6667 2.33333 149 1 c 0
 189 0.333333 221.833 12 247.5 36 c 0
 273.167 60 286.333 92 287 132 c 0
 287.667 169.333 276.333 200.333 253 225 c 0
 229.667 249.667 199.333 262.333 162 263 c 0
 146 263 134.667 262.833 128 262.5 c 0
 121.333 262.167 113 259.5 103 254.5 c 0
 93 249.5 83.3333 239.667 74 225 c 1
 86.6667 341 157.667 399.333 287 400 c 0
 323.667 400 356.333 394 385 382 c 0
 423 366 442.333 341.667 443 309 c 0
 443.667 289.667 434.667 274.667 416 264 c 0
 400.667 254.667 382.667 250 362 250 c 2
 324 250 l 1
 324 201 l 1
 362 200 l 2
 386 199.333 405.333 191.167 420 175.5 c 0
 434.667 159.833 442.333 140.667 443 118 c 0
 443.667 97.3333 437.5 81 424.5 69 c 0
 411.5 57 394.667 50.6667 374 50 c 0
EndSplineSet
EndChar
StartChar: uni0D14
Encoding: 3348 3348
Width: 1127
Flags: HW
Fore
776 130 m 1
 714 130 l 1
 714 86 733 52.333 771 29 c 0
 803 10.333 842.333 0.666992 889 0 c 0
 958.333 -0.666992 1014 20.667 1056 64 c 0
 1098 107.333 1119.33 163.667 1120 233 c 0
 1120.67 291 1105.33 340.667 1074 382 c 0
 1040.67 426.667 995.667 449.333 939 450 c 0
 879 450.667 833 427 801 379 c 1
 795.667 401 783 418.333 763 431 c 0
 757 435 747 439.667 733 445 c 0
 722.333 448.333 711.667 450 701 450 c 0
 647.667 450.667 605.667 431.667 575 393 c 0
 547.667 357 534 311.667 534 257 c 2
 534 238 l 2
 534 233.333 534.333 228.833 535 224.5 c 0
 535.667 220.167 537 212 539 200 c 1
 601 200 l 1
 598 254 l 1
 596 296 603 332.333 619 363 c 0
 633 389 656.333 402.333 689 403 c 0
 712.333 403.667 732.667 395.333 750 378 c 0
 767.333 360.667 776 337.333 776 308 c 2
 776 200 l 1
 839 200 l 1
 839 308 l 2
 839 370.667 868 402.333 926 403 c 0
 968.667 403.667 1002.33 386.333 1027 351 c 0
 1048.33 320.333 1059 282.667 1059 238 c 0
 1059 186 1046 142.333 1020 107 c 0
 990.667 67.667 951 47.667 901 47 c 0
 867.667 46.333 840 51.667 818 63 c 0
 790 77.667 776 100 776 130 c 1
149 51 m 0
 127 50.3333 109.833 57.3333 97.5 72 c 0
 85.1667 86.6667 79 105.333 79 128 c 0
 79 151.333 85 171.167 97 187.5 c 0
 109 203.833 126.333 212.333 149 213 c 0
 171 213.667 188.333 204.667 201 186 c 0
 212.333 170 218.333 150.667 219 128 c 0
 219.667 108.667 213.667 90.3333 201 73 c 0
 189 59 171.667 51.6667 149 51 c 0
374 50 m 0
 366 50 354.667 52 340 56 c 1
 324 63 l 1
 324 13 l 1
 326 12.3333 329 11.1667 333 9.5 c 0
 337 7.83333 340 6.33333 342 5 c 0
 348 4.33333 353 3.33333 357 2 c 1
 399 1 l 2
 432.333 0.333333 459.333 12.3333 480 37 c 0
 499.333 59.6667 509 88 509 122 c 0
 509 176.667 489 211 449 225 c 1
 465 229.667 478 240.333 488 257 c 0
 497.333 271.667 502 288 502 306 c 0
 502.667 342 486.667 374 454 402 c 0
 416.667 434 361 450 287 450 c 0
 203.667 450 136 423.667 84 371 c 0
 36 322.333 12 261.333 12 188 c 0
 12 64.6667 57.6667 2.33333 149 1 c 0
 189 0.333333 221.833 12 247.5 36 c 0
 273.167 60 286.333 92 287 132 c 0
 287.667 169.333 276.333 200.333 253 225 c 0
 229.667 249.667 199.333 262.333 162 263 c 0
 146 263 134.667 262.833 128 262.5 c 0
 121.333 262.167 113 259.5 103 254.5 c 0
 93 249.5 83.3333 239.667 74 225 c 1
 86.6667 341 157.667 399.333 287 400 c 0
 323.667 400 356.333 394 385 382 c 0
 423 366 442.333 341.667 443 309 c 0
 443.667 289.667 434.667 274.667 416 264 c 0
 400.667 254.667 382.667 250 362 250 c 2
 324 250 l 1
 324 201 l 1
 362 200 l 2
 386 199.333 405.333 191.167 420 175.5 c 0
 434.667 159.833 442.333 140.667 443 118 c 0
 443.667 97.3333 437.5 81 424.5 69 c 0
 411.5 57 394.667 50.6667 374 50 c 0
EndSplineSet
EndChar
StartChar: uni0D15
Encoding: 3349 3349
Width: 741
Flags: HW
Fore
254 262 m 1
 254 354 283.333 400 342 400 c 0
 375.333 400 401 385 419 355 c 0
 432.333 331.667 439.667 300.667 441 262 c 1
 254 262 l 1
354 50 m 0
 318.667 49.3333 293 63.3333 277 92 c 0
 263 116.667 255.333 157 254 213 c 1
 441 213 l 1
 441 163 437.667 127.667 431 107 c 0
 419 69.6667 393.333 50.6667 354 50 c 0
142 50 m 1
 121.333 50 105.333 57 94 71 c 0
 82.6667 85 76.6667 103.667 76 127 c 0
 75.3333 148.333 81 167 93 183 c 0
 105 199 121.333 209 142 213 c 1
 192 213 l 1
 196 127 l 1
 196.667 107.667 193 90.3333 185 75 c 0
 178.333 63 164 54.6667 142 50 c 1
354 450 m 0
 300.667 450 259.667 431.333 231 394 c 0
 205 360.667 192 316.667 192 262 c 1
 142 262 l 2
 102.667 262 72.1667 249.167 50.5 223.5 c 0
 28.8333 197.833 17.6667 165 17 125 c 0
 16.3333 90.3333 26.3333 61.3333 47 38 c 0
 67.6667 12.6667 95 -8.67362e-19 129 0 c 0
 155.667 0 175.667 2.66667 189 8 c 0
 207 15.3333 220.333 29.3333 229 50 c 1
 251.667 16.6667 293.333 1.73472e-18 354 0 c 0
 454 0 504 71 504 213 c 1
 579 213 l 2
 599 213 615 203 627 183 c 0
 636.333 165.667 641 146.333 641 125 c 0
 641 106.333 635.167 89.1667 623.5 73.5 c 0
 611.833 57.8333 597 50 579 50 c 2
 566 50 l 2
 560 50 554 50.5 548 51.5 c 0
 542 52.5 535.667 56 529 62 c 1
 529 12 l 1
 579 0 l 1
 618.333 0 649 12 671 36 c 0
 693 60 704 94 704 138 c 0
 704 181.333 692.5 212.833 669.5 232.5 c 0
 646.5 252.167 612 262 566 262 c 2
 504 262 l 1
 504 314 492.333 357 469 391 c 0
 441.667 430.333 403.333 450 354 450 c 0
EndSplineSet
EndChar
StartChar: uni0D16
Encoding: 3350 3350
Width: 804
Flags: HW
Fore
153 212 m 0
 173.667 212.667 191.167 206.667 205.5 194 c 0
 219.833 181.333 227.333 164.667 228 144 c 0
 228.667 120.667 222.333 100 209 82 c 0
 194.333 62 175.667 51.6667 153 51 c 0
 121.667 50.3333 98.6667 67 84 101 c 0
 80 110.333 78 122.667 78 138 c 0
 78 157.333 85.6667 174.333 101 189 c 0
 116.333 203.667 133.667 211.333 153 212 c 0
353 50 m 1
 353 0 l 1
 753 0 l 1
 753 437 l 1
 690 437 l 1
 690 50 l 1
 440 50 l 1
 472.667 82.6667 489.333 141 490 225 c 0
 490.667 296.333 469 352 425 392 c 0
 382.333 430 325 449.333 253 450 c 0
 177.667 450.667 118.333 421 75 361 c 0
 35.6667 307 16 241 16 163 c 0
 16 119 27.6667 81.6667 51 51 c 0
 76.3333 17.6667 110.333 0.666667 153 0 c 0
 191.667 -0.666667 224 10.5 250 33.5 c 0
 276 56.5 289.333 87 290 125 c 0
 290.667 161 281.333 192 262 218 c 0
 240.667 246.667 212.667 261.333 178 262 c 0
 124.667 262.667 91.3333 250.333 78 225 c 1
 78 280.333 93.3333 323.167 124 353.5 c 0
 154.667 383.833 197.667 399.333 253 400 c 0
 298.333 400.667 338.667 383.333 374 348 c 0
 409.333 312.667 427.333 267.333 428 212 c 0
 428.667 180 423.167 151.833 411.5 127.5 c 0
 399.833 103.167 380.333 77.3333 353 50 c 1
EndSplineSet
EndChar
StartChar: uni0D17
Encoding: 3351 3351
Width: 689
Flags: HW
Fore
525 0 m 1
 567.667 13.3333 601 47 625 101 c 0
 645 145.667 655.333 193.333 656 244 c 0
 656.667 302.667 643.667 350.333 617 387 c 0
 587 429 543.667 450 487 450 c 0
 424.333 450 381 429.333 357 388 c 0
 341 360 331.333 314 328 250 c 0
 324.667 176.667 320 130.333 314 111 c 0
 301.333 71 275.667 50.6667 237 50 c 0
 199.667 49.3333 170.667 67.3333 150 104 c 0
 133.333 133.333 125 168.333 125 209 c 0
 125 314.333 162.333 386.333 237 425 c 1
 188 450 l 1
 148.667 422.667 117.833 385.833 95.5 339.5 c 0
 73.1667 293.167 62 245.333 62 196 c 0
 62 138 76.3333 91.6667 105 57 c 0
 136.333 19.6667 180.333 0.666667 237 0 c 0
 297 -0.666667 338.333 22 361 68 c 0
 377.667 102 386.333 162.667 387 250 c 0
 387.667 349.333 421 399.333 487 400 c 0
 525 400.667 553.333 384.333 572 351 c 0
 587.333 323.667 595 289.667 595 249 c 0
 595 206.333 586.667 165.333 570 126 c 0
 550 80 522.333 50.6667 487 38 c 1
 525 0 l 1
EndSplineSet
EndChar
StartChar: uni0D18
Encoding: 3352 3352
Width: 1100
Flags: HW
Fore
503 200 m 1
 503 287 l 2
 503 317.667 516 344 542 366 c 0
 568 388 596.667 399.333 628 400 c 0
 669.333 400.667 702.5 390.167 727.5 368.5 c 0
 752.5 346.833 765 315.667 765 275 c 2
 765 200 l 1
 503 200 l 1
328 200 m 1
 344 249 l 2
 350 267.667 353 284.667 353 300 c 0
 353 346.667 335 384 299 412 c 0
 266.333 437.333 226 450 178 450 c 0
 130 450 87.6667 435 51 405 c 0
 11.6667 373.667 -8.33333 334.333 -9 287 c 0
 -9.66667 226.333 19.3333 180.667 78 150 c 1
 116 200 l 1
 96.6667 200 80.6667 212.333 68 237 c 0
 58 257.667 53 278.667 53 300 c 0
 53 328 64.8333 351.5 88.5 370.5 c 0
 112.167 389.5 138 399.333 166 400 c 0
 198 400.667 226.667 391 252 371 c 0
 277.333 351 290.333 323 291 287 c 0
 291.667 237.667 266.667 208.667 216 200 c 1
 216 150 l 1
 441 150 l 1
 441 0 l 1
 1040 0 l 1
 1040 450 l 1
 978 450 l 1
 978 50 l 1
 503 50 l 1
 503 150 l 1
 840 150 l 1
 828 275 l 2
 820 358.333 779.333 412.667 706 438 c 0
 682.667 446 656.667 450 628 450 c 0
 537.333 450 479 408.333 453 325 c 0
 451 317.667 447.667 303 443 281 c 1
 441 200 l 1
 328 200 l 1
EndSplineSet
EndChar
StartChar: uni0D19
Encoding: 3353 3353
Width: 826
Flags: HW
Fore
199 212 m 0
 220.333 212.667 238.167 205.5 252.5 190.5 c 0
 266.833 175.5 274 157.667 274 137 c 0
 274 80.3333 249 51.6667 199 51 c 0
 174.333 51 155.833 58.5 143.5 73.5 c 0
 131.167 88.5 124.667 109.667 124 137 c 0
 123.333 157 130.667 174.333 146 189 c 0
 161.333 203.667 179 211.333 199 212 c 0
724 225 m 1
 745.333 235.667 762 248.667 774 264 c 0
 782 274.667 786.333 295 787 325 c 0
 787.667 366.333 768 398.667 728 422 c 0
 695.333 440 656.667 449.333 612 450 c 0
 544 450.667 489.667 425.667 449 375 c 1
 431.667 398.333 408 416.667 378 430 c 0
 348 443.333 317.667 450 287 450 c 0
 212.333 450.667 155 420.333 115 359 c 0
 81 307 63.6667 241.333 63 162 c 0
 62.3333 115.333 73 77.6667 95 49 c 0
 119 17 153.667 0.666667 199 0 c 0
 291 -0.666667 337 41 337 125 c 0
 337 166.333 326.333 199.333 305 224 c 0
 283.667 248.667 252.667 261.333 212 262 c 0
 188.667 262.667 169.333 259.5 154 252.5 c 0
 138.667 245.5 125 232 113 212 c 1
 113 254.667 129.5 296.5 162.5 337.5 c 0
 195.5 378.5 232.667 399.333 274 400 c 0
 308 400.667 339.5 390.333 368.5 369 c 0
 397.5 347.667 412 320.333 412 287 c 2
 412 0 l 1
 474 0 l 1
 474 287 l 2
 474 321 486.667 348.667 512 370 c 0
 535.333 390 564.333 400 599 400 c 0
 629 400 655.333 395 678 385 c 0
 708 371 723.333 351 724 325 c 0
 724.667 275 695.667 250 637 250 c 2
 562 250 l 1
 562 200 l 1
 649 200 l 2
 671 200 688.833 193 702.5 179 c 0
 716.167 165 723.333 147 724 125 c 0
 724.667 100.333 716.5 79.6667 699.5 63 c 0
 682.5 46.3333 661.667 38 637 38 c 0
 621.667 38 606.333 41.6667 591 49 c 2
 562 63 l 1
 562 13 l 1
 566.667 11 577.667 7.66667 595 3 c 1
 649 0 l 2
 681.667 -2 712.833 7.5 742.5 28.5 c 0
 772.167 49.5 787 77.6667 787 113 c 0
 787 170.333 766 207.667 724 225 c 1
EndSplineSet
EndChar
StartChar: uni0D1A
Encoding: 3354 3354
Width: 715
Flags: HW
Fore
213 50 m 1
 1 50 l 1
 1 0 l 1
 663 0 l 1
 663 450 l 1
 600 450 l 1
 600 50 l 1
 313 50 l 1
 341.667 74 356 106.333 356 147 c 0
 356 188.333 342.5 222 315.5 248 c 0
 288.5 274 254.333 287 213 287 c 0
 173.667 287 140.333 274 113 248 c 0
 85.6667 222 72 189.333 72 150 c 2
 72 134 l 1
 76 112 l 1
 138 112 l 1
 134 142 l 1
 134 168.667 140.667 191 154 209 c 0
 167.333 227 187 236.333 213 237 c 0
 235 237.667 253 229.5 267 212.5 c 0
 281 195.5 288 175.667 288 153 c 0
 288 100.333 263 66 213 50 c 1
EndSplineSet
EndChar
StartChar: uni0D1B
Encoding: 3355 3355
Width: 969
Flags: HW
Fore
630 25 m 1
 601.333 39.6667 579.333 65 564 101 c 0
 550.667 131.667 543.667 165 543 201 c 0
 542.333 255 555.333 300.333 582 337 c 0
 612 378.333 653 399.333 705 400 c 0
 753 400.667 794.667 375.667 830 325 c 1
 745.333 303 691.333 259.333 668 194 c 0
 662 176.667 658.667 157.333 658 136 c 0
 657.333 101.333 667 71 687 45 c 0
 707 19 734 4 768 0 c 1
 820 0 856.333 7 877 21 c 0
 911.667 44.3333 929.333 95.6667 930 175 c 0
 930.667 247.667 914 309.667 880 361 c 0
 841.333 419.667 787.333 449.333 718 450 c 0
 650 450.667 593.167 428.333 547.5 383 c 0
 501.833 337.667 478.667 281 478 213 c 0
 477.333 153 494.667 98.6667 530 50 c 1
 319 50 l 1
 343.667 76 356.333 108.333 357 147 c 0
 357.667 187 345.167 219.667 319.5 245 c 0
 293.833 270.333 261 283.333 221 284 c 0
 181.667 284.667 148.167 271.833 120.5 245.5 c 0
 92.8333 219.167 79 186.333 79 147 c 2
 79 131 l 1
 83 109 l 1
 146 109 l 1
 143 126 l 1
 142 140 l 1
 140.667 162 146.667 183 160 203 c 0
 173.333 223 193.667 233.333 221 234 c 0
 244.333 234.667 262.333 225.667 275 207 c 0
 286.333 191.667 292.333 171.667 293 147 c 0
 293.667 123.667 287.333 102.667 274 84 c 0
 260.667 65.3333 242 54 218 50 c 1
 6 50 l 1
 6 0 l 1
 630 0 l 1
 630 25 l 1
780 50 m 0
 768.667 50 759.5 55 752.5 65 c 0
 745.5 75 742 88 742 104 c 0
 742 130.667 750.333 166 767 210 c 0
 787 261.333 807.333 287 828 287 c 0
 834 287 839 283 843 275 c 0
 858.333 243 866 207.667 866 169 c 0
 866 91 837.333 51.3333 780 50 c 0
EndSplineSet
EndChar
StartChar: uni0D1C
Encoding: 3356 3356
Width: 729
Flags: HW
Fore
145 343 m 0
 173 343 187 335.667 187 321 c 0
 187 310.333 180.333 301.333 167 294 c 0
 156.333 287.333 145 284 133 284 c 0
 121 284 111.667 286.667 105 292 c 0
 98.3333 297.333 94.3333 304.333 93 313 c 0
 93 333 110.333 343 145 343 c 0
570 48 m 0
 555.333 47.3333 542.667 51 532 59 c 0
 524.667 65 520 74 518 86 c 1
 518 106.667 535.333 117.667 570 119 c 0
 602.667 119.667 620 108.667 622 86 c 1
 622 62 604.667 49.3333 570 48 c 0
458 225 m 2
 258 225 l 2
 193.333 225 141.667 211.667 103 185 c 0
 69 161.667 51.6667 133.667 51 101 c 0
 50.3333 70.3333 65.3333 47 96 31 c 0
 120 19 149 12.6667 183 12 c 1
 235.667 16 287 26.6667 337 44 c 2
 483 95 l 1
 480.333 91 478 83.6667 476 73 c 1
 476 57.6667 485.333 41 504 23 c 1
 522.667 8.33333 544.667 0.666667 570 0 c 0
 597.333 -0.666667 622.167 7 644.5 23 c 0
 666.833 39 678 60 678 86 c 0
 678 137.333 642 164 570 166 c 1
 547.333 163.333 505.667 151.667 445 131 c 2
 320 88 l 2
 279.333 74 237.667 64.6667 195 60 c 1
 143 60 117 74.6667 117 104 c 0
 117 130.667 137.333 150.667 178 164 c 0
 206.667 173.333 237.333 178 270 178 c 2
 445 178 l 2
 513 178 568.667 195 612 229 c 0
 648.667 258.333 667.333 294.333 668 337 c 0
 668.667 374.333 652.667 403.333 620 424 c 0
 593.333 441.333 560 450 520 450 c 0
 480.667 450 449.667 444.667 427 434 c 0
 411 426.667 392 412.333 370 391 c 1
 328.667 430.333 278.667 450 220 450 c 0
 164.667 450 120 436 86 408 c 0
 58 384.667 43.6667 355.667 43 321 c 0
 42.3333 295 50.5 274.5 67.5 259.5 c 0
 84.5 244.5 106.333 237 133 237 c 0
 161 237 184.667 242.667 204 254 c 0
 227.333 267.333 239 287 239 313 c 0
 239 329.667 232 345.333 218 360 c 1
 204 372 184 378.333 158 379 c 0
 139.333 379.667 128.167 379.5 124.5 378.5 c 0
 120.833 377.5 115.333 373.667 108 367 c 1
 118 375 127.333 381 136 385 c 0
 161.333 397 189.333 403 220 403 c 0
 254.667 403 283 396 305 382 c 0
 331.667 365.333 345 340.667 345 308 c 2
 345 249 l 1
 408 249 l 1
 408 308 l 2
 408 370 445.333 401.667 520 403 c 0
 542 403.667 560.5 397 575.5 383 c 0
 590.5 369 598 351 598 329 c 0
 598 295 582.667 268.333 552 249 c 0
 526 233 494.667 225 458 225 c 2
EndSplineSet
EndChar
StartChar: uni0D1D
Encoding: 3357 3357
Width: 1199
Flags: HW
Fore
312 50 m 1
 299 49 l 2
 273.667 47 255.333 65 244 103 c 0
 236.667 127.667 232.667 156.333 232 189 c 0
 231.333 224.333 235.333 258.667 244 292 c 0
 256 341.333 274.667 366 300 366 c 1
 312 363 l 1
 346 348.333 370.667 308 386 242 c 0
 390 225.333 392 205.667 392 183 c 0
 392 107.667 365.333 63.3333 312 50 c 1
99 0 m 1
 149 25 l 1
 90.3333 67 60.6667 125 60 199 c 0
 59.3333 248.333 72.6667 292.167 100 330.5 c 0
 127.333 368.833 164.667 392 212 400 c 1
 234.667 400 248.333 399.333 253 398 c 0
 261 398 268 394.667 274 388 c 1
 201.333 319.333 165 246.333 165 169 c 0
 165 127.667 177.333 90 202 56 c 0
 228.667 19.3333 262 1 302 1 c 2
 312 1 l 2
 358 1 394.667 20 422 58 c 0
 445.333 91.3333 457.333 132 458 180 c 0
 458.667 215.333 451.167 251.5 435.5 288.5 c 0
 419.833 325.5 395.333 358.667 362 388 c 1
 367.333 393.333 375.333 396.333 386 397 c 2
 424 400 l 2
 458 402.667 486.333 389.333 509 360 c 0
 527.667 336 537 303.667 537 263 c 0
 537.667 181 545.667 122 561 86 c 0
 585 29.3333 631.333 0.666667 700 0 c 0
 759.333 -0.666667 805 24.3333 837 75 c 1
 848.333 53 865.667 34.3333 889 19 c 1
 913 6.33333 937.333 -4.33681e-19 962 0 c 0
 1021.33 -0.666667 1067.67 21.3333 1101 66 c 0
 1131 106 1146 156.333 1146 217 c 0
 1146 291.667 1125 354.667 1083 406 c 0
 1070.33 422.667 1055 437.333 1037 450 c 1
 986 413 l 1
 1018 395 1043.33 367 1062 329 c 0
 1079.33 294.333 1088 257.333 1088 218 c 0
 1088 174 1078.33 136.333 1059 105 c 0
 1036.33 68.3333 1004 50 962 50 c 0
 934 50 912.5 59.6667 897.5 79 c 0
 882.5 98.3333 875 122.333 875 151 c 1
 874 450 l 1
 812 450 l 1
 812 150 l 2
 812 120.667 802.667 96.6667 784 78 c 0
 765.333 59.3333 741.333 50 712 50 c 0
 668 50 636.667 70 618 110 c 0
 606 136 599.667 178.667 599 238 c 0
 598.333 303.333 588.667 351 570 381 c 0
 544.667 421 500.333 444 437 450 c 1
 406.333 450 381.5 446.5 362.5 439.5 c 0
 343.5 432.5 330.667 423.667 324 413 c 1
 314 427 295 437.333 267 444 c 0
 253.667 447.333 239.333 449.333 224 450 c 1
 154 444 99.3333 416.333 60 367 c 0
 25.3333 323.667 7.66667 270.667 7 208 c 0
 6.33333 123.333 37 54 99 0 c 1
EndSplineSet
EndChar
StartChar: uni0D1E
Encoding: 3358 3358
Width: 1049
Flags: HW
Fore
157 212 m 0
 176.333 212.667 193.5 205.167 208.5 189.5 c 0
 223.5 173.833 231.333 156.333 232 137 c 0
 233.333 81 208.333 52.3333 157 51 c 0
 135.667 50.3333 118 59 104 77 c 0
 90 95 82.6667 115 82 137 c 0
 81.3333 159 88.1667 176.833 102.5 190.5 c 0
 116.833 204.167 135 211.333 157 212 c 0
732 375 m 1
 734 378.333 741.667 382.333 755 387 c 2
 795 400 l 1
 829.667 400 859.333 389.167 884 367.5 c 0
 908.667 345.833 926.333 318 937 284 c 0
 943 264 946.333 240 947 212 c 0
 947.667 151.333 929 99.3333 891 56 c 0
 881 44.6667 869.667 34.3333 857 25 c 1
 907 0 l 1
 940.333 22 966.333 52.6667 985 92 c 0
 1003 129.333 1012 167.667 1012 207 c 0
 1012 277 989.167 335 943.5 381 c 0
 897.833 427 840 450 770 450 c 0
 759.333 450 743 444.667 721 434 c 0
 709 428.667 696 421.667 682 413 c 1
 643.333 437 597.667 449.333 545 450 c 0
 523 450 498.833 443.167 472.5 429.5 c 0
 446.167 415.833 424.333 397.667 407 375 c 1
 383 403 356 423.333 326 436 c 0
 304.667 444.667 277.667 449.333 245 450 c 0
 175 450.667 119.333 424 78 370 c 0
 40.6667 320.667 21.6667 259.667 21 187 c 0
 20.3333 135.667 30 93.6667 50 61 c 0
 73.3333 21.6667 109 1.66667 157 1 c 0
 197.667 0.333333 230.667 12.8333 256 38.5 c 0
 281.333 64.1667 294.333 97.3333 295 138 c 0
 295.667 176 283.5 206.167 258.5 228.5 c 0
 233.5 250.833 204 262 170 262 c 0
 148.667 262 130.5 257.5 115.5 248.5 c 0
 100.5 239.5 89.3333 227.333 82 212 c 1
 82 262.667 96.8333 306.5 126.5 343.5 c 0
 156.167 380.5 195.667 399.333 245 400 c 0
 279.667 400.667 309.167 390.5 333.5 369.5 c 0
 357.833 348.5 370 321 370 287 c 2
 370 1 l 1
 432 1 l 1
 432 287 l 2
 432 322.333 444.333 350.333 469 371 c 0
 491.667 390.333 521 400 557 400 c 1
 572.333 398 584 395.333 592 392 c 0
 597.333 390.667 604.5 388.833 613.5 386.5 c 0
 622.5 384.167 628.667 380.333 632 375 c 1
 569.333 323 538 256 538 174 c 0
 538 125.333 549.667 85.3333 573 54 c 0
 599 18.6667 635.333 0.666667 682 0 c 0
 726.667 -0.666667 762.667 16 790 50 c 0
 814.667 81.3333 827.333 120 828 166 c 0
 828.667 242.667 796.667 312.333 732 375 c 1
682 50 m 1
 671 49 l 2
 645 49 626 72.3333 614 119 c 0
 606 149.667 602 183 602 219 c 0
 602 315 619 363.667 653 365 c 0
 659.667 365 669.333 360 682 350 c 1
 734 298 760.667 236.667 762 166 c 0
 763.333 103.333 736.667 64.6667 682 50 c 1
EndSplineSet
EndChar
StartChar: uni0D1F
Encoding: 3359 3359
Width: 449
Flags: HW
Fore
206 0 m 0
 337.333 0 403.667 46 405 138 c 0
 405.667 179.333 385.667 209.667 345 229 c 0
 315 243 276.5 250 229.5 250 c 0
 182.5 250 149.667 252 131 256 c 0
 101.667 262 84.6667 276.667 80 300 c 1
 79 315 l 1
 77.6667 339 90.6667 359.667 118 377 c 0
 142 392.333 175.333 400 218 400 c 0
 268 400 322 379 380 337 c 1
 405 375 l 1
 386.333 395.667 361.333 413.167 330 427.5 c 0
 298.667 441.833 261.333 449.333 218 450 c 0
 164 450.667 119.333 441.667 84 423 c 0
 40.6667 399 18.3333 362.333 17 313 c 1
 18 300 l 2
 22 245.333 53 212 111 200 c 1
 263 193 l 2
 316.333 190.333 343 167.667 343 125 c 0
 343 102.333 329.667 83.6667 303 69 c 1
 275.667 57 243 50.6667 205 50 c 0
 172.333 49.3333 141 54.6667 111 66 c 0
 81 77.3333 54.3333 93 31 113 c 1
 6 63 l 1
 43.3333 39.6667 75 23.6667 101 15 c 0
 131 5 166 0 206 0 c 0
EndSplineSet
EndChar
StartChar: uni0D20
Encoding: 3360 3360
Width: 502
Flags: HW
Fore
79 226 m 0
 79 270.667 95 310.833 127 346.5 c 0
 159 382.167 197.333 400.333 242 401 c 0
 284.667 401.667 322.667 383 356 345 c 0
 387.333 309 403.333 269.333 404 226 c 0
 404.667 175.333 390.5 133.5 361.5 100.5 c 0
 332.5 67.5 292.667 50.6667 242 50 c 0
 191.333 49.3333 151 66.3333 121 101 c 0
 93 133 79 174.667 79 226 c 0
241 0 m 0
 310.333 0 365.333 20.5 406 61.5 c 0
 446.667 102.5 467 157.333 467 226 c 0
 467 289.333 445.333 342.5 402 385.5 c 0
 358.667 428.5 305.333 450 242 450 c 0
 178.667 450 125.5 428.5 82.5 385.5 c 0
 39.5 342.5 17.6667 289.333 17 226 c 0
 16.3333 157.333 36.3333 102.5 77 61.5 c 0
 117.667 20.5 172.333 0 241 0 c 0
EndSplineSet
EndChar
StartChar: uni0D21
Encoding: 3361 3361
Width: 980
Flags: HW
Fore
182 26 m 1
 125.333 68 96.3333 136 95 230 c 0
 94.3333 276 103.333 314.333 122 345 c 0
 143.333 381 175.667 399.333 219 400 c 0
 285.667 400.667 319 357.667 319 271 c 0
 319 187.667 327 126.667 343 88 c 0
 367 30 413.333 1 482 1 c 0
 548.667 1 594.667 26.6667 620 78 c 1
 645.333 27.3333 686.667 1.66667 744 1 c 0
 805.333 0.333333 853 23 887 69 c 0
 917 110.333 932 162.667 932 226 c 0
 932 272 923 314.667 905 354 c 0
 885 399.333 856.333 431.333 819 450 c 1
 769 412 l 1
 799 392.667 822.667 364 840 326 c 0
 856 290.667 864.333 253.667 865 215 c 0
 865.667 173 856.333 136.667 837 106 c 0
 814.333 70.6667 783.333 53 744 53 c 0
 718 53 696.833 62.5 680.5 81.5 c 0
 664.167 100.5 656 123.333 656 150 c 2
 656 450 l 1
 594 450 l 1
 594 150 l 2
 594 120 585.167 96.5 567.5 79.5 c 0
 549.833 62.5 525.667 53.6667 495 53 c 0
 449.667 52.3333 418 72.6667 400 114 c 0
 388 142 381.667 185.667 381 245 c 0
 380.333 317 370.667 367 352 395 c 0
 328 431 283.667 449.333 219 450 c 0
 161 450.667 114.667 427 80 379 c 0
 48 336.333 32 285 32 225 c 0
 32 132.333 65.3333 57.3333 132 0 c 1
 182 26 l 1
EndSplineSet
EndChar
StartChar: uni0D22
Encoding: 3362 3362
Width: 1015
Flags: HW
Fore
726 0 m 0
 801.333 -0.666667 862.333 23.8333 909 73.5 c 0
 955.667 123.167 979.333 185.667 980 261 c 0
 980.667 312.333 968.333 355.667 943 391 c 0
 914.333 430.333 875.333 450 826 450 c 0
 786.667 450 756.667 438.167 736 414.5 c 0
 715.333 390.833 704.667 361.333 704 326 c 0
 703.333 288.667 714.167 256.5 736.5 229.5 c 0
 758.833 202.5 788.667 188.667 826 188 c 0
 839.333 188 849.5 188.5 856.5 189.5 c 0
 863.5 190.5 871.667 193.667 881 199 c 0
 894.333 204.333 905 217.333 913 238 c 1
 913 114 854.667 51.3333 738 50 c 0
 712 50 689 60.1667 669 80.5 c 0
 649 100.833 639 124 639 150 c 2
 639 450 l 1
 576 450 l 1
 576 150 l 2
 576 120.667 566.667 96.6667 548 78 c 0
 529.333 59.3333 505.333 50 476 50 c 0
 442.667 50 416.167 62.1667 396.5 86.5 c 0
 376.833 110.833 366 160 364 234 c 0
 362 310.667 352.333 363 335 391 c 0
 311 429.667 266.333 449.333 201 450 c 0
 143 450.667 96.6667 426.333 62 377 c 0
 32 333.667 17 281.667 17 221 c 0
 17 128.333 49.3333 54.6667 114 0 c 1
 164 25 l 1
 135.333 43.6667 113 70.6667 97 106 c 0
 82.3333 139.333 74.6667 177 74 219 c 0
 73.3333 269 84 310.667 106 344 c 0
 130 380.667 161.667 399.333 201 400 c 0
 267 400.667 300.333 355.333 301 264 c 0
 301.667 181.333 309.667 122 325 86 c 0
 349 29.3333 395.333 0.666667 464 0 c 0
 527.333 -0.666667 573.333 24.6667 602 76 c 1
 614.667 50 631.667 30.8333 653 18.5 c 0
 674.333 6.16667 698.667 4.33681e-19 726 0 c 0
838 238 m 0
 817.333 237.333 800.667 248 788 270 c 0
 777.333 288.667 772 309.333 772 332 c 0
 772 376 790.667 399 828 401 c 1
 838 400 l 2
 880.667 396 902.667 370 904 322 c 0
 904.667 301.333 898.833 282.333 886.5 265 c 0
 874.167 247.667 858 238.667 838 238 c 0
EndSplineSet
EndChar
StartChar: uni0D23
Encoding: 3363 3363
Width: 1040
Flags: HW
Fore
149 212 m 0
 167 212 184 204 200 188 c 0
 216 172 224 155 224 137 c 0
 224 80.3333 199 51.3333 149 50 c 0
 127.667 49.3333 109.667 58.6667 95 78 c 0
 81.6667 94.6667 74.6667 114.333 74 137 c 0
 73.3333 158.333 80.5 176.167 95.5 190.5 c 0
 110.5 204.833 128.333 212 149 212 c 0
237 450 m 0
 182.333 450.667 134 432 92 394 c 0
 39.3333 346 12.6667 277 12 187 c 0
 11.3333 136.333 21.3333 94.3333 42 61 c 0
 66 21 101.667 0.666667 149 0 c 0
 189.667 -0.666667 222.5 12 247.5 38 c 0
 272.5 64 285.333 97.3333 286 138 c 0
 286.667 172.667 274.667 201.833 250 225.5 c 0
 225.333 249.167 195.667 261.333 161 262 c 0
 139 262.667 120.667 258 106 248 c 0
 95.3333 240.667 84.6667 228.667 74 212 c 1
 74 262.667 88.8333 306.5 118.5 343.5 c 0
 148.167 380.5 187.667 399.333 237 400 c 0
 270.333 400.667 299.333 390 324 368 c 0
 348.667 346 361 319 361 287 c 2
 361 1 l 1
 424 1 l 1
 424 287 l 2
 424 322.333 436.333 350.333 461 371 c 0
 483.667 390.333 513 400 549 400 c 0
 575.667 400 599 388 619 364 c 0
 639 340 649 314.333 649 287 c 2
 649 1 l 1
 711 1 l 1
 711 287 l 2
 711 318.333 720 345 738 367 c 0
 756 389 780.333 400 811 400 c 0
 893 400 934.667 345.667 936 237 c 0
 936.667 153.667 903.667 87.3333 837 38 c 1
 886 0 l 1
 960.667 66 998.333 141.333 999 226 c 0
 1000.33 360.667 942.333 435.333 825 450 c 1
 788.333 450 759.333 443.5 738 430.5 c 0
 716.667 417.5 699.667 394.667 687 362 c 1
 663.667 420 617.667 449.333 549 450 c 0
 487.667 450.667 437.667 425.667 399 375 c 1
 360.333 424.333 306.333 449.333 237 450 c 0
EndSplineSet
EndChar
StartChar: uni0D24
Encoding: 3364 3364
Width: 712
Flags: HW
Fore
335 350 m 1
 372.333 314 396 270.667 406 220 c 1
 410 171 l 1
 413.333 127.667 402 94 376 70 c 0
 362.667 57.3333 345 51 323 51 c 0
 299 51 279.833 62.6667 265.5 86 c 0
 251.167 109.333 244 138.667 244 174 c 0
 244 187.333 244.667 195.667 246 199 c 1
 248 213 l 2
 255.333 264.333 284.333 310 335 350 c 1
382 375 m 1
 400 391 422.333 399 449 399 c 0
 494.333 399 532.333 378.667 563 338 c 0
 591.667 301.333 606.333 259.667 607 213 c 0
 607.667 181 601.167 149.833 587.5 119.5 c 0
 573.833 89.1667 551.333 58.3333 520 27 c 1
 557 0 l 1
 591.667 22 619 53.6667 639 95 c 0
 656.333 133 665.333 174 666 218 c 0
 666.667 278 651.667 330.333 621 375 c 0
 586.333 425 540 450 482 450 c 0
 462 450 448.333 449.333 441 448 c 0
 429 447.333 413.5 444.167 394.5 438.5 c 0
 375.5 432.833 355.333 424 334 412 c 1
 311.333 436 276.333 448 229 448 c 0
 167 448 116.667 428.5 78 389.5 c 0
 39.3333 350.5 20 300 20 238 c 0
 20 183.333 27 139.667 41 107 c 0
 55 72.3333 81.3333 36.6667 120 0 c 1
 139 13 l 1
 162 26 l 1
 108 67.3333 81 127.667 81 207 c 2
 81 226 l 1
 83 238 l 2
 90.3333 283.333 106.333 320.667 131 350 c 0
 158.333 382.667 187.667 399.333 219 400 c 0
 241.667 400.667 263 392.333 283 375 c 1
 254.333 352.333 230.667 326.333 212 297 c 1
 196 265.667 187.667 229.333 187 188 c 0
 186.333 140 196.333 98.3333 217 63 c 0
 241.667 21 276.333 0 321 0 c 0
 371.667 0 410.333 15.3333 437 46 c 0
 463.667 76.6667 477.333 117.667 478 169 c 0
 478.667 207 470.167 245.333 452.5 284 c 0
 434.833 322.667 411.333 353 382 375 c 1
EndSplineSet
EndChar
StartChar: uni0D25
Encoding: 3365 3365
Width: 701
Flags: HW
Fore
584 237 m 2
 584 50 l 1
 322 50 l 1
 322 225 l 2
 322 280.333 331 321.667 349 349 c 0
 370.333 382.333 407 399.333 459 400 c 0
 542.333 400.667 584 346.333 584 237 c 2
646 0 m 1
 646 250 l 2
 646 382.667 583.667 449.333 459 450 c 0
 325.667 451.333 259 380.667 259 238 c 2
 259 50 l 1
 84 50 l 1
 84 450 l 1
 22 450 l 1
 22 0 l 1
 646 0 l 1
EndSplineSet
EndChar
StartChar: uni0D26
Encoding: 3366 3366
Width: 526
Flags: HW
Fore
325 50 m 2
 279 51 l 2
 267.667 51 258 54.3333 250 61 c 1
 250 12 l 1
 278 6 l 2
 296.667 2 312.333 0 325 0 c 0
 367.667 0 403.333 12.3333 432 37 c 0
 460.667 61.6667 475 95 475 137 c 0
 475 159.667 469.5 179.833 458.5 197.5 c 0
 447.5 215.167 432 226.333 412 231 c 1
 454.667 249 476 279.333 476 322 c 0
 476 364 456.333 396.667 417 420 c 0
 383.667 439.333 344.667 449.333 300 450 c 0
 227.333 450.667 169 425.667 125 375 c 0
 84.3333 327 63.6667 266 63 192 c 0
 62.3333 129.333 78.6667 65.3333 112 0 c 1
 162 36 l 1
 136 94 123 150 123 204 c 0
 123 262 138.333 309.167 169 345.5 c 0
 199.667 381.833 243.333 400 300 400 c 0
 328.667 400 353 394.667 373 384 c 0
 397.667 370.667 410.333 351 411 325 c 0
 411.667 308.333 403.833 292.5 387.5 277.5 c 0
 371.167 262.5 350.333 255 325 255 c 2
 237 255 l 1
 237 207 l 1
 325 207 l 2
 357.667 207 380.5 200.333 393.5 187 c 0
 406.5 173.667 413.333 157 414 137 c 0
 414.667 113 406 92.3333 388 75 c 0
 370 57.6667 349 49.3333 325 50 c 2
EndSplineSet
EndChar
StartChar: uni0D27
Encoding: 3367 3367
Width: 692
Flags: HW
Fore
454 0 m 0
 542.667 -1.33333 601.667 41.6667 631 129 c 0
 639 153 643 180.667 643 212 c 0
 643 259.333 633.667 303.667 615 345 c 0
 594.333 389 565.667 424 529 450 c 1
 479 413 l 1
 510.333 395 535.333 367 554 329 c 0
 571.333 293.667 580 256.667 580 218 c 0
 580 174 570.333 136.333 551 105 c 0
 528.333 68.3333 496 50 454 50 c 0
 396 50 367 83.3333 367 150 c 2
 367 450 l 1
 304 450 l 1
 305 150 l 1
 305 120 295.5 95.8333 276.5 77.5 c 0
 257.5 59.1667 233.333 50 204 50 c 0
 162 50 130 65.6667 108 97 c 0
 89.3333 124.333 79.6667 160 79 204 c 0
 77.6667 293.333 111 362.667 179 412 c 1
 129 450 l 1
 92.3333 425.333 63.6667 389.667 43 343 c 0
 24.3333 299.667 14.6667 254.333 14 207 c 0
 13.3333 148.333 27.6667 100 57 62 c 0
 89.6667 20.6667 134.667 1.73472e-18 192 0 c 0
 252.667 0 298.333 25 329 75 c 1
 348.333 51 368.667 32.5 390 19.5 c 0
 411.333 6.5 432.667 0 454 0 c 0
EndSplineSet
EndChar
StartChar: uni0D28
Encoding: 3368 3368
Width: 691
Flags: HW
Fore
309 0 m 1
 372 0 l 1
 371 292 l 1
 371 321.333 378.333 346 393 366 c 0
 409 388.667 431 400.333 459 401 c 0
 499 401.667 530.667 384.333 554 349 c 0
 574 318.333 584.333 282 585 240 c 0
 586.333 154.667 552.667 87 484 37 c 1
 534 0 l 1
 570 24.6667 598 59.6667 618 105 c 0
 636.667 147 646.333 191.333 647 238 c 0
 647.667 296.667 632.667 345.667 602 385 c 0
 569.333 427.667 521.667 449.333 459 450 c 0
 429.667 450 403.667 442.667 381 428 c 0
 367 418.667 351.333 401.667 334 377 c 1
 308 425 266.333 449.333 209 450 c 0
 149.667 450.667 102.667 429 68 385 c 0
 35.3333 345 19 294.667 19 234 c 0
 19 133.333 57.3333 55.3333 134 0 c 1
 184 37 l 1
 152 57.6667 127.5 86 110.5 122 c 0
 93.5 158 84.6667 197.667 84 241 c 0
 83.3333 284.333 93 320.667 113 350 c 0
 135.667 383.333 167.667 400.333 209 401 c 0
 239 401.667 263.167 391.333 281.5 370 c 0
 299.833 348.667 309 322.667 309 292 c 2
 309 0 l 1
EndSplineSet
EndChar
StartChar: uni0D2A
Encoding: 3370 3370
Width: 715
Flags: HW
Fore
663 0 m 1
 663 450 l 1
 600 450 l 1
 600 50 l 1
 351 50 l 1
 365 75.3333 372.333 102 373 130 c 0
 373.667 172.667 358.667 212 328 248 c 0
 299.333 282 262 299.333 216 300 c 0
 161.333 300.667 117.333 288.333 84 263 c 0
 46.6667 235 28 194.667 28 142 c 0
 28 111.333 35 82.6667 49 56 c 0
 64.3333 26 85.6667 7.33333 113 0 c 1
 138 38 l 1
 104 62 87 96 87 140 c 0
 87 174.667 97.8333 201.5 119.5 220.5 c 0
 141.167 239.5 169.333 249.333 204 250 c 0
 236 250.667 262 240 282 218 c 0
 302 196 312.333 169 313 137 c 0
 313.667 89 293 60 251 50 c 1
 251 0 l 1
 663 0 l 1
EndSplineSet
EndChar
StartChar: uni0D2B
Encoding: 3371 3371
Width: 937
Flags: HW
Fore
699 400 m 0
 743.667 400.667 776.667 381.667 798 343 c 0
 815.333 312.333 824 273 824 225 c 2
 824 50 l 1
 561 50 l 1
 561 250 l 2
 561 293.333 573.333 329 598 357 c 0
 622.667 385 656.333 399.333 699 400 c 0
224 38 m 1
 224 0 l 1
 886 0 l 1
 886 250 l 2
 886 309.333 870 357.333 838 394 c 0
 804 431.333 757.667 450 699 450 c 0
 635.667 450 586.5 432.333 551.5 397 c 0
 516.5 361.667 499 312.667 499 250 c 2
 499 50 l 1
 337 50 l 1
 351.667 84 359 113.667 359 139 c 0
 359 187 342.5 225.667 309.5 255 c 0
 276.5 284.333 235.667 299.333 187 300 c 0
 137.667 300.667 96.3333 285.167 63 253.5 c 0
 29.6667 221.833 12.6667 181.667 12 133 c 0
 11.3333 81.6667 36.3333 37.3333 87 0 c 1
 124 38 l 1
 87.3333 61.3333 68.3333 94.3333 67 137 c 0
 66.3333 151.667 68.5 165.5 73.5 178.5 c 0
 78.5 191.5 87 204 99 216 c 0
 121 238 150.333 249.333 187 250 c 0
 219.667 250.667 245.667 240.833 265 220.5 c 0
 284.333 200.167 294.333 173.667 295 141 c 0
 295.667 87 272 52.6667 224 38 c 1
EndSplineSet
EndChar
StartChar: uni0D2C
Encoding: 3372 3372
Width: 1050
Flags: HW
Fore
200 212 m 0
 218 212 235 204 251 188 c 0
 267 172 275 155 275 137 c 0
 275 81 250 52.3333 200 51 c 0
 178.667 50.3333 161 59 147 77 c 0
 133 95 125.667 115 125 137 c 0
 124.333 158.333 131.5 176.167 146.5 190.5 c 0
 161.5 204.833 179.333 212 200 212 c 0
587 450 m 0
 535 450.667 489.333 425.667 450 375 c 1
 411.333 424.333 357.333 449.333 288 450 c 0
 218 450.667 162.333 424 121 370 c 0
 83.6667 320.667 64.6667 259.667 64 187 c 0
 63.3333 63 108.667 0.666667 200 0 c 0
 290 -0.666667 335.667 45.3333 337 138 c 0
 337.667 172.667 325.667 201.833 301 225.5 c 0
 276.333 249.167 246.667 261.333 212 262 c 0
 164 262.667 131 246 113 212 c 1
 113 262.667 129.5 306.5 162.5 343.5 c 0
 195.5 380.5 237 399.333 287 400 c 0
 321.667 400.667 351.167 390.5 375.5 369.5 c 0
 399.833 348.5 412 321 412 287 c 1
 413 0 l 1
 475 0 l 1
 475 287 l 2
 475 322.333 487.333 350.333 512 371 c 0
 534.667 390.333 564 400 600 400 c 0
 628.667 400 652.667 375.333 672 326 c 0
 687.333 287.333 695 250.667 695 216 c 0
 695 129.333 663.333 74 600 50 c 1
 600 0 l 1
 1000 0 l 1
 1000 450 l 1
 937 450 l 1
 937 50 l 1
 700 50 l 1
 716.667 70.6667 732.333 98.6667 747 134 c 1
 757.667 169.333 763 201.667 763 231 c 0
 763.667 289.667 749.333 339.333 720 380 c 0
 688 426 643.667 449.333 587 450 c 0
EndSplineSet
EndChar
StartChar: uni0D2D
Encoding: 3373 3373
Width: 480
Flags: HW
Fore
324 50 m 2
 282 50 l 2
 262.667 50 237.667 52.3333 207 57 c 0
 172.333 62.3333 149 68.3333 137 75 c 1
 149 25 l 1
 152.333 21.6667 172.667 16 210 8 c 0
 220.667 6.66667 235.667 4.66667 255 2 c 0
 262.333 2 273 1.33333 287 0 c 1
 385 0 434.667 29 436 87 c 0
 437.333 145.667 408.333 175 349 175 c 2
 262 175 l 2
 242 175 227 178.667 217 186 c 0
 207 193.333 201.667 203 201 215 c 0
 200.333 223.667 205.333 232 216 240 c 1
 227.333 246 242.667 249.333 262 250 c 0
 293.333 250.667 311.667 251.333 317 252 c 0
 337.667 253.333 355.667 256.333 371 261 c 0
 413.667 274.333 435.333 300 436 338 c 0
 436.667 379.333 417 409.667 377 429 c 0
 347 443 308.667 450 262 450 c 0
 180.667 450 118.667 427.667 76 383 c 0
 33.3333 338.333 12 275.333 12 194 c 0
 12 127.333 24.3333 62.6667 49 0 c 1
 99 25 l 1
 83 90.3333 74.6667 146.333 74 193 c 0
 73.3333 257 88.8333 307.5 120.5 344.5 c 0
 152.167 381.5 199.333 400 262 400 c 0
 300.667 400 329.167 394.333 347.5 383 c 0
 365.833 371.667 375.333 358.667 376 344 c 0
 376.667 334 370.667 323.333 358 312 c 0
 347.333 304 331.667 300 311 300 c 2
 275 300 l 2
 240.333 300 211.333 294 188 282 c 0
 158.667 266.667 143.667 243.333 143 212 c 0
 142.333 186.667 151.333 165.833 170 149.5 c 0
 188.667 133.167 211 125 237 125 c 2
 324 125 l 2
 350.667 125 366.333 112.333 371 87 c 1
 371 79 366.333 70.8333 357 62.5 c 0
 347.667 54.1667 336.667 50 324 50 c 2
EndSplineSet
EndChar
StartChar: uni0D2E
Encoding: 3374 3374
Width: 481
Flags: HW
Fore
89 187 m 2
 89 246.333 94 290 104 318 c 0
 117.333 356 141.667 375 177 375 c 0
 198.333 375 215 367.333 227 352 c 0
 239 336.667 245.333 318 246 296 c 0
 246.667 253.333 229.667 206.667 195 156 c 0
 164.333 110.667 129 75.3333 89 50 c 1
 89 187 l 2
239 450 m 0
 175.667 450.667 126.333 435.333 91 404 c 0
 48.3333 366 27 306.333 27 225 c 2
 27 0 l 1
 452 0 l 1
 452 225 l 2
 452 338.333 410.333 409 327 437 c 0
 302.333 445 273 449.333 239 450 c 0
164 50 m 1
 203.333 80.6667 237 116.667 265 158 c 0
 298.333 206.667 315.333 251.667 316 293 c 0
 316.667 336.333 295.333 372 252 400 c 1
 300 400 335.667 382 359 346 c 0
 379 315.333 389 275 389 225 c 2
 389 50 l 1
 164 50 l 1
EndSplineSet
EndChar
StartChar: uni0D2F
Encoding: 3375 3375
Width: 810
Flags: HW
Fore
414 399 m 0
 445.333 399.667 472 377.667 494 333 c 0
 512 295.667 521.333 250 522 196 c 0
 522.667 163.333 518.333 134 509 108 c 0
 496.333 72.6667 476.333 54.6667 449 54 c 0
 439 54 427.333 57.3333 414 64 c 0
 380.667 81.3333 354 108.333 334 145 c 0
 316 178.333 306.667 215.333 306 256 c 0
 305.333 294.667 313.333 327 330 353 c 0
 349.333 383 377.333 398.333 414 399 c 0
289 373 m 1
 260.333 424.333 218.667 450 164 450 c 0
 118.667 450 83 431.333 57 394 c 0
 34.3333 361.333 22.6667 321 22 273 c 0
 21.3333 193.667 47.8333 128.333 101.5 77 c 0
 155.167 25.6667 222 1.73472e-18 302 0 c 2
 355 0 l 2
 358.333 0.666667 363 1.33333 369 2 c 0
 392.333 5.33333 407.333 9 414 13 c 1
 461 4 l 1
 514 0 l 1
 585.333 9.33333 643.667 36.3333 689 81 c 0
 737.667 128.333 762.333 187 763 257 c 0
 763.667 327.667 735 392 677 450 c 1
 627 424 l 1
 651 404 669.333 380.167 682 352.5 c 0
 694.667 324.833 701.333 295.333 702 264 c 0
 702.667 199.333 679 147 631 107 c 0
 585.667 70.3333 530 52 464 52 c 1
 498 70.6667 525.167 99.5 545.5 138.5 c 0
 565.833 177.5 576 218.333 576 261 c 0
 576 314.333 562.667 358.333 536 393 c 0
 506.667 430.333 466 449.333 414 450 c 1
 359.333 444 317.667 418.333 289 373 c 1
339 52 m 1
 297 49 l 2
 231 44.3333 176.333 69.6667 133 125 c 0
 101 165.667 85 216.333 85 277 c 0
 85 307 90.6667 333.333 102 356 c 0
 116 384.667 136.667 399 164 399 c 0
 206 399 231.333 376.667 240 332 c 1
 240 288.667 244.667 240.333 254 187 c 0
 264.667 125.667 293 80.6667 339 52 c 1
EndSplineSet
EndChar
StartChar: uni0D30
Encoding: 3376 3376
Width: 520
Flags: HW
Fore
406 385 m 1
 390.667 406.333 367 423 335 435 c 0
 307 445 278 450 248 450 c 0
 190 450 141.333 434.333 102 403 c 0
 60 369 37 316.333 33 245 c 2
 31 209 l 1
 30.3333 191.667 32.3333 171.333 37 148 c 0
 47 102.667 78.6667 53.3333 132 0 c 1
 152 14 l 1
 162 18 169 22 173 26 c 1
 118.333 70 91 130 91 206 c 0
 91 256 103.667 299.333 129 336 c 0
 157.667 377.333 195.667 398.667 243 400 c 1
 273 397 l 2
 279 396.333 284.5 395.167 289.5 393.5 c 0
 294.5 391.833 300 389.333 306 386 c 1
 271.333 356.667 245.667 329.333 229 304 c 0
 209 274 198.667 237 198 193 c 0
 197.333 143.667 207 101 227 65 c 0
 251 21.6667 286 1.73472e-18 332 0 c 0
 383.333 0 422.667 17.6667 450 53 c 0
 474.667 84.3333 487.333 126.667 488 180 c 0
 488.667 217.333 481.667 254.833 467 292.5 c 0
 452.333 330.167 432 361 406 385 c 1
346 359 m 1
 366.667 338.333 383.333 316.333 396 293 c 0
 404.667 277.667 412.333 253.333 419 220 c 1
 422 179 l 2
 424.667 144.333 417 113.333 399 86 c 0
 383.667 62 361.333 50 332 50 c 0
 304.667 50 284.333 64.6667 271 94 c 0
 261 116 255.667 142.667 255 174 c 0
 255 188 256.333 202.667 259 218 c 0
 265.667 252 275 278.667 287 298 c 0
 299 317.333 318.667 337.667 346 359 c 1
EndSplineSet
EndChar
StartChar: uni0D31
Encoding: 3377 3377
Width: 466
Flags: HW
Fore
137 0 m 1
 162 37 l 1
 104.667 73 75.3333 135.333 74 224 c 0
 73.3333 274 85.3333 315 110 347 c 0
 137.333 382.333 175.333 400 224 400 c 0
 268.667 400 303.333 381.667 328 345 c 0
 349.333 313.667 360.333 274.667 361 228 c 0
 361.667 189.333 353.667 153 337 119 c 0
 319 83 294 55.6667 262 37 c 1
 286 0 l 1
 330.667 26 365.333 61.3333 390 106 c 0
 412 146 423.333 190 424 238 c 0
 424.667 299.333 406.667 349.833 370 389.5 c 0
 333.333 429.167 284.667 449.333 224 450 c 0
 161.333 450.667 109.333 427 68 379 c 0
 30 335 11 281.667 11 219 c 0
 11 122.333 53 49.3333 137 0 c 1
EndSplineSet
EndChar
StartChar: uni0D32
Encoding: 3378 3378
Width: 730
Flags: HW
Fore
63 238 m 2
 63 0 l 1
 662 0 l 1
 663 450 l 1
 600 450 l 1
 600 50 l 1
 125 50 l 1
 125 150 l 1
 450 150 l 1
 450 350 387.333 450 262 450 c 0
 196.667 450 147.167 431.167 113.5 393.5 c 0
 79.8333 355.833 63 304 63 238 c 2
125 263 m 2
 125 353.667 166.667 399.333 250 400 c 0
 341.333 401.333 387 347.333 387 238 c 2
 387 200 l 1
 125 200 l 1
 125 263 l 2
EndSplineSet
EndChar
StartChar: uni0D33
Encoding: 3379 3379
Width: 571
Flags: HW
Fore
171 287 m 0
 190.333 287.667 206.667 280.833 220 266.5 c 0
 233.333 252.167 240.333 235 241 215 c 0
 241.667 195.667 235.167 180.167 221.5 168.5 c 0
 207.833 156.833 191 150.667 171 150 c 0
 150.333 149.333 133.5 154.833 120.5 166.5 c 0
 107.5 178.167 101 194.333 101 215 c 0
 101 235 107.667 251.833 121 265.5 c 0
 134.333 279.167 151 286.333 171 287 c 0
334 200 m 1
 384 200 l 2
 404 200 422.167 194.667 438.5 184 c 0
 454.833 173.333 463.333 158.333 464 139 c 0
 464.667 112.333 451 92.3333 423 79 c 0
 401.667 68.3333 376.333 63 347 63 c 2
 147 63 l 2
 113 63 84.3333 53.6667 61 35 c 0
 37.6667 16.3333 25.6667 -9.66667 25 -43 c 0
 24.3333 -75.6667 36.6667 -102 62 -122 c 0
 85.3333 -140 113.667 -149 147 -149 c 2
 509 -149 l 1
 509 -99 l 1
 147 -99 l 2
 113.667 -99 96.3333 -81.3333 95 -46 c 0
 94.3333 -30 98.8333 -16.1667 108.5 -4.5 c 0
 118.167 7.16667 131 13 147 13 c 2
 359 13 l 2
 403.667 13 441.333 22 472 40 c 0
 508.667 62 527 93.6667 527 135 c 0
 527 178.333 508.333 208.333 471 225 c 1
 485.667 233 498 244 508 258 c 1
 516 273.333 520.333 291.333 521 312 c 0
 521.667 351.333 504.667 383.333 470 408 c 0
 430.667 436 373 450 297 450 c 0
 225 450 164 434 114 402 c 0
 56 364.667 26.6667 312 26 244 c 0
 25.3333 201.333 38.6667 166.833 66 140.5 c 0
 93.3333 114.167 128.667 100.667 172 100 c 0
 209.333 99.3333 240.5 109.167 265.5 129.5 c 0
 290.5 149.833 303.333 178.333 304 215 c 0
 304.667 249 293.333 277.833 270 301.5 c 0
 246.667 325.167 218 337 184 337 c 0
 138.667 337 105.667 316.333 85 275 c 1
 99 312.333 119.333 341 146 361 c 0
 180 387 230.333 400 297 400 c 0
 403.667 400 457.667 370.667 459 312 c 0
 459.667 270.667 434.667 250 384 250 c 2
 334 250 l 1
 334 200 l 1
EndSplineSet
EndChar
StartChar: uni0D34
Encoding: 3380 3380
Width: 487
Flags: HW
Fore
271 200 m 0
 224.333 200 200.667 220.667 200 262 c 0
 199.333 291.333 211.833 321.5 237.5 352.5 c 0
 263.167 383.5 291 399.333 321 400 c 0
 341.667 400.667 358 392 370 374 c 0
 381.333 358.667 387 340.333 387 319 c 0
 387 285 376.167 256.667 354.5 234 c 0
 332.833 211.333 305 200 271 200 c 0
309 450 m 0
 269.667 450.667 237.833 437.5 213.5 410.5 c 0
 189.167 383.5 176.667 350 176 310 c 0
 175.333 276.667 186.333 240 209 200 c 1
 124.333 200 81.3333 236.333 80 309 c 0
 79.3333 345 93 379.333 121 412 c 1
 84 450 l 1
 42 402 21 353.667 21 305 c 0
 21 253.667 42.3333 214.333 85 187 c 0
 121.667 163 167 150.667 221 150 c 1
 230 125 l 2
 234 113.667 236 104 236 96 c 0
 236 66 218.667 50.6667 184 50 c 0
 153.333 49.3333 120 66 84 100 c 1
 59 63 l 1
 73.6667 46.3333 92.6667 30.6667 116 16 c 1
 137.333 6 160 0.666667 184 0 c 0
 216 -0.666667 242.333 6.66667 263 22 c 0
 286.333 38.6667 298 62.6667 298 94 c 0
 298 112.667 293.333 131.333 284 150 c 1
 330 150 368.5 166.667 399.5 200 c 0
 430.5 233.333 446.333 273.333 447 320 c 0
 447.667 360 434.667 392 408 416 c 0
 383.333 438 350.333 449.333 309 450 c 0
EndSplineSet
EndChar
StartChar: uni0D35
Encoding: 3381 3381
Width: 774
Flags: HW
Fore
303 50 m 1
 303 0 l 1
 716 0 l 1
 716 450 l 1
 653 450 l 1
 653 50 l 1
 391 50 l 1
 411.667 59.3333 428 84.6667 440 126 c 0
 448.667 157.333 453 188.667 453 220 c 0
 453.667 282.667 438.667 334.667 408 376 c 0
 372 424.667 316.333 449.333 241 450 c 0
 177.667 450.667 125.5 427.833 84.5 381.5 c 0
 43.5 335.167 22.6667 280 22 216 c 0
 21.3333 124 65 52 153 0 c 1
 191 37 l 1
 121.667 75.6667 87 137 87 221 c 0
 87 270.333 100 311.667 126 345 c 0
 154.667 381 193 399.333 241 400 c 0
 312.333 400.667 359.333 365 382 293 c 0
 388 273.667 391.333 251 392 225 c 0
 392.667 191 385 157.333 369 124 c 0
 355 94.6667 333 70 303 50 c 1
EndSplineSet
EndChar
StartChar: uni0D36
Encoding: 3382 3382
Width: 765
Flags: HW
Fore
604 365 m 0
 618 375 631 380.333 643 381 c 0
 673.667 382.333 689 348.333 689 279 c 0
 689 237 682 192.333 668 145 c 0
 648.667 81.6667 623.333 50 592 50 c 0
 564 50 542.333 64.6667 527 94 c 0
 515.667 116.667 509.667 143.667 509 175 c 0
 507.667 253.667 539.333 317 604 365 c 0
179 413 m 1
 142 450 l 1
 99.3333 433.333 66.6667 398.667 44 346 c 0
 26 302.667 17 254.667 17 202 c 0
 17 144 31.3333 96.6667 60 60 c 0
 91.3333 20 135.333 0 192 0 c 0
 255.333 0 299.667 24 325 72 c 0
 343.667 107.333 353.333 167.167 354 251.5 c 0
 354.667 335.833 400.667 386 492 402 c 1
 516 399 l 2
 525.333 399 532 398.333 536 397 c 0
 540 395.667 546 393.333 554 390 c 1
 519.333 362 492.667 329 474 291 c 0
 457.333 255.667 448.667 217.333 448 176 c 0
 447.333 131.333 457.667 92.3333 479 59 c 0
 503.667 20.3333 537 0.666667 579 0 c 0
 628.333 -0.666667 666.667 17.6667 694 55 c 0
 718.667 89 731 131.333 731 182 c 2
 731 198 l 1
 729 215 l 2
 711 370.333 632 448.667 492 450 c 0
 431.333 450.667 383 433.333 347 398 c 0
 311 362.667 292.667 314.333 292 253 c 0
 291.333 195.667 287 153.333 279 126 c 0
 263.667 75.3333 234.667 50 192 50 c 0
 153.333 50 123.667 66.6667 103 100 c 0
 85.6667 127.333 77 161.667 77 203 c 0
 77 245 85 285 101 323 c 0
 119.667 366.333 145.667 396.333 179 413 c 1
EndSplineSet
EndChar
StartChar: uni0D37
Encoding: 3383 3383
Width: 905
Flags: HW
Fore
591 300 m 2
 591 345.333 585.667 379.333 575 402 c 0
 559.667 434 532 450 492 450 c 0
 432.667 450 393 422.667 373 368 c 0
 368.333 354.667 365.667 337.667 365 317 c 0
 364.333 270.333 379.667 233.167 411 205.5 c 0
 442.333 177.833 481.667 163.667 529 163 c 1
 529 50 l 1
 329 50 l 1
 347 74 356.333 102.333 357 135 c 0
 357.667 175.667 342 213.333 310 248 c 0
 278 282.667 239.333 300 194 300 c 0
 130 300 81.3333 283 48 249 c 0
 20 220.333 5.66667 183.333 5 138 c 0
 4.33333 107.333 11.3333 79 26 53 c 0
 42 24.3333 63.6667 6.66667 91 0 c 1
 116 38 l 1
 101.333 46 88.6667 59.3333 78 78 c 0
 70 92.6667 65.6667 111 65 133 c 0
 64.3333 167 75 194.833 97 216.5 c 0
 119 238.167 147 249.333 181 250 c 0
 213.667 250.667 240.333 238.833 261 214.5 c 0
 281.667 190.167 292.333 161.333 293 128 c 0
 293.667 79.3333 273 49.3333 231 38 c 1
 231 0 l 1
 854 0 l 1
 854 450 l 1
 804 450 l 1
 804 400.667 780.667 349.167 734 295.5 c 0
 687.333 241.833 639.667 214.333 591 213 c 1
 591 300 l 2
591 163 m 1
 665.667 175.667 732.333 217 791 287 c 1
 791 50 l 1
 591 50 l 1
 591 163 l 1
529 213 m 1
 493.667 213 466.667 223.667 448 245 c 0
 429.333 266.333 419.667 292 419 322 c 0
 418.333 342.667 423.333 360.667 434 376 c 0
 444.667 391.333 460 399.333 480 400 c 0
 491.333 400.667 502.333 393.333 513 378 c 0
 523.667 362.667 529 345 529 325 c 2
 529 213 l 1
EndSplineSet
EndChar
StartChar: uni0D38
Encoding: 3384 3384
Width: 983
Flags: HW
Fore
771 424 m 1
 798.333 404.667 819.5 376 834.5 338 c 0
 849.5 300 857.333 260.667 858 220 c 0
 858.667 174 848 133.667 826 99 c 0
 805.333 67 774.667 50.6667 734 50 c 0
 668 49.3333 634.667 92.6667 634 180 c 0
 633.333 267.333 626 328.333 612 363 c 0
 588.667 421 543.667 450 477 450 c 0
 409 450 361 424 333 372 c 1
 309 424 269.333 450 214 450 c 0
 152 450 104 426.333 70 379 c 0
 39.3333 336.333 23.6667 283.333 23 220 c 0
 22.3333 173.333 30.6667 131.333 48 94 c 0
 67.3333 51.3333 96 20 134 0 c 1
 184 38 l 1
 153.333 57.3333 130 85.6667 114 123 c 0
 98.6667 157 91 193.333 91 232 c 0
 91 276 100.333 313.333 119 344 c 0
 141.667 380.667 173.333 399.333 214 400 c 0
 240 400.667 260.333 390.833 275 370.5 c 0
 289.667 350.167 297 326.667 297 300 c 2
 297 0 l 1
 359 0 l 1
 359 300 l 2
 359 330 369 354 389 372 c 0
 409 390 434 399.333 464 400 c 0
 508 400.667 538.667 379.667 556 337 c 0
 566 311.667 571.333 267.667 572 205 c 0
 572.667 133 582.333 83 601 55 c 0
 625 19 669.333 0.666667 734 0 c 0
 793.333 -0.666667 840 23 874 71 c 0
 904.667 113 920.333 164.667 921 226 c 0
 921.667 315.333 888.333 390 821 450 c 1
 771 424 l 1
EndSplineSet
EndChar
StartChar: uni0D39
Encoding: 3385 3385
Width: 970
Flags: HW
Fore
754 39 m 1
 792 0 l 1
 835.333 27.3333 868 61 890 101 c 0
 910 137.667 920.333 179 921 225 c 0
 921.667 286.333 903 338.333 865 381 c 0
 824.333 427 771 450 705 450 c 0
 639.667 450 587.167 429.667 547.5 389 c 0
 507.833 348.333 488 295.333 488 230 c 0
 488 161.333 510.333 101.667 555 51 c 1
 355 51 l 1
 371 97 l 1
 375 113 377 128.333 377 143 c 0
 377 191 360.5 230.5 327.5 261.5 c 0
 294.5 292.5 253.667 308.333 205 309 c 0
 156.333 309.667 113 293.833 75 261.5 c 0
 37 229.167 17.6667 189 17 141 c 0
 16.3333 87 45.6667 40 105 0 c 1
 142 38 l 1
 122.667 45.3333 107 60.6667 95 84 c 0
 84.3333 104.667 79 126.333 79 149 c 0
 79 185 91.3333 212.333 116 231 c 0
 138 247.667 167.667 256.333 205 257 c 0
 236.333 257.667 262.667 247.167 284 225.5 c 0
 305.333 203.833 316.333 177 317 145 c 0
 317.667 102.333 297 71 255 51 c 1
 255 0 l 1
 629 0 l 1
 629 51 l 1
 578.333 89 552.667 145.333 552 220 c 0
 551.333 269.333 564.5 311.167 591.5 345.5 c 0
 618.5 379.833 656.333 397.333 705 398 c 0
 751.667 398.667 789.333 380.667 818 344 c 0
 844 310.667 857.333 270 858 222 c 0
 858.667 185.333 850.167 150.5 832.5 117.5 c 0
 814.833 84.5 788.667 58.3333 754 39 c 1
EndSplineSet
EndChar
StartChar: uni0D3E
Encoding: 3390 3390
Width: 407
Flags: HW
Fore
64 263 m 1
 64 295 71 324 85 350 c 0
 103 382.667 129.333 399.333 164 400 c 0
 198.667 400.667 227 382.333 249 345 c 0
 267 314.333 276.333 274.333 277 225 c 0
 277.667 182.333 269.667 144.667 253 112 c 0
 232.333 71.3333 202.667 50.6667 164 50 c 0
 99.3333 49.3333 66 91 64 175 c 1
 2 175 l 1
 2 123.667 16.1667 81.6667 44.5 49 c 0
 72.8333 16.3333 112.667 -1.73472e-18 164 0 c 0
 222 0 266.667 22.3333 298 67 c 0
 325.333 106.333 339 156 339 216 c 0
 339 272.667 326.333 323.667 301 369 c 0
 270.333 422.333 228.667 449.333 176 450 c 0
 121.333 450.667 78.6667 433.333 48 398 c 0
 17.3333 362.667 2 317.667 2 263 c 1
 64 263 l 1
EndSplineSet
EndChar
StartChar: uni0D3F
Encoding: 3391 3391
Width: 293
Flags: HW
Fore
82 496 m 2
 82 0 l 1
 145 0 l 1
 144 508 l 1
 144 548.667 131.333 581.5 106 606.5 c 0
 80.6667 631.5 47.6667 644.333 7 645 c 0
 -37 645.667 -70.8333 634 -94.5 610 c 0
 -118.167 586 -130 552 -130 508 c 1
 -68 508 l 1
 -68 566 -43 595 7 595 c 0
 57 595 82 562 82 496 c 2
EndSplineSet
EndChar
StartChar: uni0D40
Encoding: 3392 3392
Width: 259
Flags: HW
Fore
-91 510 m 0
 -104.333 510 -115.5 515 -124.5 525 c 0
 -133.5 535 -138.333 545.667 -139 557 c 0
 -139.667 566.333 -136.5 575.167 -129.5 583.5 c 0
 -122.5 591.833 -113.667 596.333 -103 597 c 0
 -90.3333 597.667 -79 592.167 -69 580.5 c 0
 -59 568.833 -54 556.333 -54 543 c 0
 -54 521 -66.3333 510 -91 510 c 0
59 547 m 2
 59 0 l 1
 121 0 l 1
 121 522 l 2
 121 630 71 684.333 -29 685 c 0
 -70.3333 685 -105.5 672.5 -134.5 647.5 c 0
 -163.5 622.5 -178.333 589.667 -179 549 c 0
 -179.667 521.667 -171.833 500.167 -155.5 484.5 c 0
 -139.167 468.833 -117.667 460.667 -91 460 c 0
 -57.6667 459.333 -32.3333 467 -15 483 c 0
 -1 495.667 6 513 6 535 c 0
 6 556.333 -0.833333 578 -14.5 600 c 0
 -28.1667 622 -45.3333 633.667 -66 635 c 1
 -48 637 l 1
 -35 637 l 2
 -4.33333 637 19 628.667 35 612 c 0
 51 595.333 59 573.667 59 547 c 2
EndSplineSet
EndChar
StartChar: uni0D41
Encoding: 3393 3393
Width: 304
Flags: HW
Fore
122 -161 m 0
 104 -161 88.3333 -155 75 -143 c 1
 65 -131 60 -115.667 60 -97 c 0
 60 -77 65.5 -59.8333 76.5 -45.5 c 0
 87.5 -31.1667 102.667 -24 122 -24 c 0
 140 -24 154.833 -31.5 166.5 -46.5 c 0
 178.167 -61.5 184 -78.3333 184 -97 c 0
 184 -139.667 163.333 -161 122 -161 c 0
110 -211 m 0
 149.333 -211.667 181.167 -201.167 205.5 -179.5 c 0
 229.833 -157.833 242.333 -127.667 243 -89 c 0
 243.667 -61.6667 236.667 -37 222 -15 c 0
 206 10.3333 185.333 23.6667 160 25 c 1
 180 166 l 1
 185 250 l 1
 186.333 276 182.667 303 174 331 c 0
 166.667 354.333 154.667 375.667 138 395 c 0
 107.333 430.333 69 448.667 23 450 c 1
 23 400 l 1
 55.6667 400 81.3333 380 100 340 c 0
 114.667 308.667 122 274.667 122 238 c 0
 122 196 113.667 125 97 25 c 1
 67 25 43 12.3333 25 -13 c 0
 9.66667 -35 1.66667 -61.6667 1 -93 c 0
 0.333333 -127 9.83333 -155 29.5 -177 c 0
 49.1667 -199 76 -210.333 110 -211 c 0
EndSplineSet
EndChar
StartChar: uni0D42
Encoding: 3394 3394
Width: 304
Flags: HW
Fore
105 -211 m 0
 144.333 -211.667 176.167 -201.167 200.5 -179.5 c 0
 224.833 -157.833 237.333 -127.667 238 -89 c 0
 238.667 -61.6667 231.667 -37 217 -15 c 0
 201 10.3333 180.333 23.6667 155 25 c 1
 173 144 l 1
 176.333 168 178.667 203.333 180 250 c 0
 181.333 308.667 165.667 357 133 395 c 0
 102.333 430.333 64 448.667 18 450 c 1
 18 400 l 1
 50.6667 400 76.3333 380 95 340 c 0
 109.667 308.667 117.333 274.667 118 238 c 0
 118.667 210.667 118.167 189.333 116.5 174 c 0
 114.833 158.667 107 109 93 25 c 1
 63.6667 25 40.3333 13.6667 23 -9 c 0
 5.66667 -31.6667 -3.33333 -59.6667 -4 -93 c 0
 -4.66667 -127 4.83333 -155 24.5 -177 c 0
 44.1667 -199 71 -210.333 105 -211 c 0
180 -99 m 0
 184 -95 183.333 -91.3333 178 -88 c 0
 169.333 -84 152.333 -81.3333 127 -80 c 0
 117.667 -79.3333 109 -79.6667 101 -81 c 0
 73 -82.3333 57.6667 -88.3333 55 -99 c 0
 55 -103.667 60.1667 -107.833 70.5 -111.5 c 0
 80.8333 -115.167 93.3333 -117.333 108 -118 c 0
 124.667 -118.667 139.333 -117 152 -113 c 0
 164 -111 173.333 -106.333 180 -99 c 0
118 -24 m 0
 144.667 -23.3333 165.333 -40 180 -74 c 1
 162 -86 139.667 -92.3333 113 -93 c 0
 87.6667 -93.6667 68.3333 -87.3333 55 -74 c 1
 65.6667 -42 86.6667 -25.3333 118 -24 c 0
EndSplineSet
EndChar
StartChar: uni0D43
Encoding: 3395 3395
Width: 399
Flags: HW
Fore
113 -186 m 0
 97 -186.667 85 -178 77 -160 c 0
 70.3333 -146 67 -130 67 -112 c 0
 67 -90 70.8333 -72.1667 78.5 -58.5 c 0
 86.1667 -44.8333 97.6667 -37.6667 113 -37 c 0
 127 -36.3333 138.333 -43.6667 147 -59 c 0
 148.333 -62.3333 150.667 -68.5 154 -77.5 c 0
 157.333 -86.5 159.333 -98 160 -112 c 0
 160.667 -129.333 157.333 -145 150 -159 c 0
 141.333 -176.333 129 -185.333 113 -186 c 0
150 113 m 1
 154.667 104.333 171 83 199 49 c 2
 202 46 l 2
 242 -2 262.333 -42 263 -74 c 0
 263.667 -124.667 238.667 -162 188 -186 c 1
 210 -168 221 -141.333 221 -106 c 0
 221 -72.6667 211.167 -44.6667 191.5 -22 c 0
 171.833 0.666667 145.667 12.3333 113 13 c 0
 79 13.6667 51.6667 1.83333 31 -22.5 c 0
 10.3333 -46.8333 8.67362e-19 -76.6667 0 -112 c 0
 0 -150 11.3333 -180 34 -202 c 0
 56.6667 -224 87 -235.333 125 -236 c 0
 181.667 -236.667 228 -224 264 -198 c 0
 304.667 -169.333 325 -128 325 -74 c 0
 325 -42 310.333 -5.33333 281 36 c 2
 196 156 l 1
 165.333 209.333 150 261.667 150 313 c 2
 150 450 l 1
 88 450 l 1
 88 313 l 2
 88 233 108.667 166.333 150 113 c 1
EndSplineSet
EndChar
StartChar: uni0D46
Encoding: 3398 3398
Width: 533
Flags: HW
Fore
183 50 m 0
 159.667 49.3333 140.667 59 126 79 c 0
 113.333 97 107 118 107 142 c 0
 107 192 132.333 217.667 183 219 c 0
 232.333 219.667 257.667 194 259 142 c 0
 259.667 119.333 252.833 98.5 238.5 79.5 c 0
 224.167 60.5 205.667 50.6667 183 50 c 0
396 0 m 1
 424.667 26.6667 447.333 60 464 100 c 0
 480.667 140 489.333 180 490 220 c 0
 490.667 286.667 471 341.5 431 384.5 c 0
 391 427.5 337.667 449.333 271 450 c 0
 199.667 450.667 141 424 95 370 c 0
 52.3333 319.333 31 257.667 31 185 c 0
 31 133 43 90.3333 67 57 c 0
 94.3333 19.6667 133 0.666667 183 0 c 0
 222.333 -0.666667 255 10.8333 281 34.5 c 0
 307 58.1667 320.333 89.6667 321 129 c 0
 321.667 169.667 309 203.167 283 229.5 c 0
 257 255.833 223.667 269.333 183 270 c 0
 162.333 270 142.833 264 124.5 252 c 0
 106.167 240 92.6667 224.667 84 206 c 1
 91.3333 262 110 307.333 140 342 c 0
 173.333 380 217 399.333 271 400 c 0
 321.667 400.667 360.667 384.333 388 351 c 0
 413.333 319.667 426.333 278.333 427 227 c 0
 427.667 191.667 421 157 407 123 c 0
 392.333 86.3333 372 58 346 38 c 1
 396 0 l 1
EndSplineSet
EndChar
StartChar: uni0D47
Encoding: 3399 3399
Width: 458
Flags: HW
Fore
326 300 m 0
 314.667 299.333 305.5 302.667 298.5 310 c 0
 291.5 317.333 288 326 288 336 c 0
 288 365.333 300.667 382.333 326 387 c 1
 336.667 387 345.667 381.333 353 370 c 0
 360.333 358.667 364 347.333 364 336 c 0
 364 328 361 319.333 355 310 c 1
 349 304 339.333 300.667 326 300 c 0
326 63 m 1
 302 63 289.333 80 288 114 c 0
 287.333 122 290.333 130.667 297 140 c 1
 303 146 312.667 149.333 326 150 c 0
 338 150.667 347.333 147 354 139 c 0
 360 133.667 363.333 125.333 364 114 c 0
 364.667 95.3333 357.667 80.6667 343 70 c 0
 338.333 66.6667 332.667 64.3333 326 63 c 1
252 450 m 0
 186 450.667 132.667 429.333 92 386 c 0
 51.3333 342.667 30.6667 288 30 222 c 0
 29.3333 162.667 47.6667 111.667 85 69 c 0
 125 23 180.667 0 252 0 c 0
 296 0 333.333 7 364 21 c 0
 404 40.3333 424.333 69.3333 425 108 c 0
 425.667 134 416 155.667 396 173 c 0
 376 190.333 352.667 199.333 326 200 c 0
 298 200.667 275 194.333 257 181 c 0
 237.667 165.667 227.667 144.667 227 118 c 0
 226.333 90 238.667 67.3333 264 50 c 1
 214 50 173.5 67.6667 142.5 103 c 0
 111.5 138.333 95.6667 181.333 95 232 c 0
 94.3333 277.333 108.167 316.167 136.5 348.5 c 0
 164.833 380.833 207.333 398 264 400 c 1
 240 384.667 227.667 362.333 227 333 c 0
 226.333 305.667 236.333 284.667 257 270 c 0
 275 256.667 298 250 326 250 c 0
 352.667 250 376 257.167 396 271.5 c 0
 416 285.833 426.333 306 427 332 c 0
 427.667 372 407.333 402.667 366 424 c 0
 333.333 440.667 295.333 449.333 252 450 c 0
EndSplineSet
EndChar
StartChar: uni0D48
Encoding: 3400 3400
Width: 979
Flags: HW
Fore
664 50 m 0
 640.667 49.333 621.667 59 607 79 c 0
 594.333 97 588 118 588 142 c 0
 588 192 613.333 217.667 664 219 c 0
 713.333 219.667 738.667 194 740 142 c 0
 740.667 119.333 733.833 98.5 719.5 79.5 c 0
 705.167 60.5 686.667 50.667 664 50 c 0
877 0 m 1
 905.667 26.667 928.333 60 945 100 c 0
 961.667 140 970.333 180 971 220 c 0
 971.667 286.667 952 341.5 912 384.5 c 0
 872 427.5 818.667 449.333 752 450 c 0
 680.667 450.667 622 424 576 370 c 0
 533.333 319.333 512 257.667 512 185 c 0
 512 133 524 90.333 548 57 c 0
 575.333 19.667 614 0.666992 664 0 c 0
 703.333 -0.666992 736 10.833 762 34.5 c 0
 788 58.167 801.333 89.667 802 129 c 0
 802.667 169.667 790 203.167 764 229.5 c 0
 738 255.833 704.667 269.333 664 270 c 0
 643.333 270 623.833 264 605.5 252 c 0
 587.167 240 573.667 224.667 565 206 c 1
 572.333 262 591 307.333 621 342 c 0
 654.333 380 698 399.333 752 400 c 0
 802.667 400.667 841.667 384.333 869 351 c 0
 894.333 319.667 907.333 278.333 908 227 c 0
 908.667 191.667 902 157 888 123 c 0
 873.333 86.333 853 58 827 38 c 1
 877 0 l 1
183 50 m 0
 159.667 49.3333 140.667 59 126 79 c 0
 113.333 97 107 118 107 142 c 0
 107 192 132.333 217.667 183 219 c 0
 232.333 219.667 257.667 194 259 142 c 0
 259.667 119.333 252.833 98.5 238.5 79.5 c 0
 224.167 60.5 205.667 50.6667 183 50 c 0
396 0 m 1
 424.667 26.6667 447.333 60 464 100 c 0
 480.667 140 489.333 180 490 220 c 0
 490.667 286.667 471 341.5 431 384.5 c 0
 391 427.5 337.667 449.333 271 450 c 0
 199.667 450.667 141 424 95 370 c 0
 52.3333 319.333 31 257.667 31 185 c 0
 31 133 43 90.3333 67 57 c 0
 94.3333 19.6667 133 0.666667 183 0 c 0
 222.333 -0.666667 255 10.8333 281 34.5 c 0
 307 58.1667 320.333 89.6667 321 129 c 0
 321.667 169.667 309 203.167 283 229.5 c 0
 257 255.833 223.667 269.333 183 270 c 0
 162.333 270 142.833 264 124.5 252 c 0
 106.167 240 92.6667 224.667 84 206 c 1
 91.3333 262 110 307.333 140 342 c 0
 173.333 380 217 399.333 271 400 c 0
 321.667 400.667 360.667 384.333 388 351 c 0
 413.333 319.667 426.333 278.333 427 227 c 0
 427.667 191.667 421 157 407 123 c 0
 392.333 86.3333 372 58 346 38 c 1
 396 0 l 1
EndSplineSet
EndChar
StartChar: uni0D4A
Encoding: 3402 3402
Width: 1669
Flags: HW
Fore
1383 263 m 1
 1383 295 1390 324 1404 350 c 0
 1422 382.667 1448.33 399.333 1483 400 c 0
 1517.67 400.667 1546 382.333 1568 345 c 0
 1586 314.333 1595.33 274.333 1596 225 c 0
 1596.67 182.333 1588.67 144.667 1572 112 c 0
 1551.33 71.333 1521.67 50.667 1483 50 c 0
 1418.33 49.333 1385 91 1383 175 c 1
 1321 175 l 1
 1321 123.667 1335.17 81.667 1363.5 49 c 0
 1391.83 16.333 1431.67 0 1483 0 c 0
 1541 0 1585.67 22.333 1617 67 c 0
 1644.33 106.333 1658 156 1658 216 c 0
 1658 272.667 1645.33 323.667 1620 369 c 0
 1589.33 422.333 1547.67 449.333 1495 450 c 0
 1440.33 450.667 1397.67 433.333 1367 398 c 0
 1336.33 362.667 1321 317.667 1321 263 c 1
 1383 263 l 1
183 50 m 0
 159.667 49.3333 140.667 59 126 79 c 0
 113.333 97 107 118 107 142 c 0
 107 192 132.333 217.667 183 219 c 0
 232.333 219.667 257.667 194 259 142 c 0
 259.667 119.333 252.833 98.5 238.5 79.5 c 0
 224.167 60.5 205.667 50.6667 183 50 c 0
396 0 m 1
 424.667 26.6667 447.333 60 464 100 c 0
 480.667 140 489.333 180 490 220 c 0
 490.667 286.667 471 341.5 431 384.5 c 0
 391 427.5 337.667 449.333 271 450 c 0
 199.667 450.667 141 424 95 370 c 0
 52.3333 319.333 31 257.667 31 185 c 0
 31 133 43 90.3333 67 57 c 0
 94.3333 19.6667 133 0.666667 183 0 c 0
 222.333 -0.666667 255 10.8333 281 34.5 c 0
 307 58.1667 320.333 89.6667 321 129 c 0
 321.667 169.667 309 203.167 283 229.5 c 0
 257 255.833 223.667 269.333 183 270 c 0
 162.333 270 142.833 264 124.5 252 c 0
 106.167 240 92.6667 224.667 84 206 c 1
 91.3333 262 110 307.333 140 342 c 0
 173.333 380 217 399.333 271 400 c 0
 321.667 400.667 360.667 384.333 388 351 c 0
 413.333 319.667 426.333 278.333 427 227 c 0
 427.667 191.667 421 157 407 123 c 0
 392.333 86.3333 372 58 346 38 c 1
 396 0 l 1
EndSplineSet
EndChar
StartChar: uni0D4B
Encoding: 3403 3403
Width: 1666
Flags: HW
Fore
1383 263 m 1
 1383 295 1390 324 1404 350 c 0
 1422 382.667 1448.33 399.333 1483 400 c 0
 1517.67 400.667 1546 382.333 1568 345 c 0
 1586 314.333 1595.33 274.333 1596 225 c 0
 1596.67 182.333 1588.67 144.667 1572 112 c 0
 1551.33 71.333 1521.67 50.667 1483 50 c 0
 1418.33 49.333 1385 91 1383 175 c 1
 1321 175 l 1
 1321 123.667 1335.17 81.667 1363.5 49 c 0
 1391.83 16.333 1431.67 0 1483 0 c 0
 1541 0 1585.67 22.333 1617 67 c 0
 1644.33 106.333 1658 156 1658 216 c 0
 1658 272.667 1645.33 323.667 1620 369 c 0
 1589.33 422.333 1547.67 449.333 1495 450 c 0
 1440.33 450.667 1397.67 433.333 1367 398 c 0
 1336.33 362.667 1321 317.667 1321 263 c 1
 1383 263 l 1
326 300 m 0
 314.667 299.333 305.5 302.667 298.5 310 c 0
 291.5 317.333 288 326 288 336 c 0
 288 365.333 300.667 382.333 326 387 c 1
 336.667 387 345.667 381.333 353 370 c 0
 360.333 358.667 364 347.333 364 336 c 0
 364 328 361 319.333 355 310 c 1
 349 304 339.333 300.667 326 300 c 0
326 63 m 1
 302 63 289.333 80 288 114 c 0
 287.333 122 290.333 130.667 297 140 c 1
 303 146 312.667 149.333 326 150 c 0
 338 150.667 347.333 147 354 139 c 0
 360 133.667 363.333 125.333 364 114 c 0
 364.667 95.3333 357.667 80.6667 343 70 c 0
 338.333 66.6667 332.667 64.3333 326 63 c 1
252 450 m 0
 186 450.667 132.667 429.333 92 386 c 0
 51.3333 342.667 30.6667 288 30 222 c 0
 29.3333 162.667 47.6667 111.667 85 69 c 0
 125 23 180.667 0 252 0 c 0
 296 0 333.333 7 364 21 c 0
 404 40.3333 424.333 69.3333 425 108 c 0
 425.667 134 416 155.667 396 173 c 0
 376 190.333 352.667 199.333 326 200 c 0
 298 200.667 275 194.333 257 181 c 0
 237.667 165.667 227.667 144.667 227 118 c 0
 226.333 90 238.667 67.3333 264 50 c 1
 214 50 173.5 67.6667 142.5 103 c 0
 111.5 138.333 95.6667 181.333 95 232 c 0
 94.3333 277.333 108.167 316.167 136.5 348.5 c 0
 164.833 380.833 207.333 398 264 400 c 1
 240 384.667 227.667 362.333 227 333 c 0
 226.333 305.667 236.333 284.667 257 270 c 0
 275 256.667 298 250 326 250 c 0
 352.667 250 376 257.167 396 271.5 c 0
 416 285.833 426.333 306 427 332 c 0
 427.667 372 407.333 402.667 366 424 c 0
 333.333 440.667 295.333 449.333 252 450 c 0
EndSplineSet
EndChar
StartChar: uni0D4C
Encoding: 3404 3404
Width: 648
Flags: HW
Fore
249 130 m 1
 187 130 l 1
 187 86 206 52.3333 244 29 c 0
 276 10.3333 315.333 0.666667 362 0 c 0
 431.333 -0.666667 487 20.6667 529 64 c 0
 571 107.333 592.333 163.667 593 233 c 0
 593.667 291 578.333 340.667 547 382 c 0
 513.667 426.667 468.667 449.333 412 450 c 0
 352 450.667 306 427 274 379 c 1
 268.667 401 256 418.333 236 431 c 0
 230 435 220 439.667 206 445 c 0
 195.333 448.333 184.667 450 174 450 c 0
 120.667 450.667 78.6667 431.667 48 393 c 0
 20.6667 357 7 311.667 7 257 c 2
 7 238 l 2
 7 233.333 7.33333 228.833 8 224.5 c 0
 8.66667 220.167 10 212 12 200 c 1
 74 200 l 1
 71 254 l 1
 69 296 76 332.333 92 363 c 0
 106 389 129.333 402.333 162 403 c 0
 185.333 403.667 205.667 395.333 223 378 c 0
 240.333 360.667 249 337.333 249 308 c 2
 249 200 l 1
 312 200 l 1
 312 308 l 2
 312 370.667 341 402.333 399 403 c 0
 441.667 403.667 475.333 386.333 500 351 c 0
 521.333 320.333 532 282.667 532 238 c 0
 532 186 519 142.333 493 107 c 0
 463.667 67.6667 424 47.6667 374 47 c 0
 340.667 46.3333 313 51.6667 291 63 c 0
 263 77.6667 249 100 249 130 c 1
EndSplineSet
EndChar
StartChar: uni0D4D
Encoding: 3405 3405
Width: 72
Flags: HW
Fore
63 650 m 1
 0 650 l 1
 0 576.667 -31 539.333 -93 538 c 0
 -114.333 537.333 -132.833 544.333 -148.5 559 c 0
 -164.167 573.667 -174 591.667 -178 613 c 1
 -179 627 l 1
 -181 641 l 1
 -180 650 l 1
 -243 650 l 1
 -244 638 l 1
 -243 616 l 2
 -241 574.667 -224.333 542.667 -193 520 c 0
 -163.667 499.333 -130.333 488.667 -93 488 c 0
 -43.6667 487.333 -5.33333 501.667 22 531 c 0
 49.3333 560.333 63 600 63 650 c 1
EndSplineSet
EndChar
StartChar: uni0D57
Encoding: 3415 3415
Width: 648
Flags: HW
Fore
249 130 m 1
 187 130 l 1
 187 86 206 52.3333 244 29 c 0
 276 10.3333 315.333 0.666667 362 0 c 0
 431.333 -0.666667 487 20.6667 529 64 c 0
 571 107.333 592.333 163.667 593 233 c 0
 593.667 291 578.333 340.667 547 382 c 0
 513.667 426.667 468.667 449.333 412 450 c 0
 352 450.667 306 427 274 379 c 1
 268.667 401 256 418.333 236 431 c 0
 230 435 220 439.667 206 445 c 0
 195.333 448.333 184.667 450 174 450 c 0
 120.667 450.667 78.6667 431.667 48 393 c 0
 20.6667 357 7 311.667 7 257 c 2
 7 238 l 2
 7 233.333 7.33333 228.833 8 224.5 c 0
 8.66667 220.167 10 212 12 200 c 1
 74 200 l 1
 71 254 l 1
 69 296 76 332.333 92 363 c 0
 106 389 129.333 402.333 162 403 c 0
 185.333 403.667 205.667 395.333 223 378 c 0
 240.333 360.667 249 337.333 249 308 c 2
 249 200 l 1
 312 200 l 1
 312 308 l 2
 312 370.667 341 402.333 399 403 c 0
 441.667 403.667 475.333 386.333 500 351 c 0
 521.333 320.333 532 282.667 532 238 c 0
 532 186 519 142.333 493 107 c 0
 463.667 67.6667 424 47.6667 374 47 c 0
 340.667 46.3333 313 51.6667 291 63 c 0
 263 77.6667 249 100 249 130 c 1
EndSplineSet
EndChar
StartChar: 01
Encoding: 65542 -1
Width: 658
Flags: HW
Fore
474 0 m 1
 516.667 13.3333 550 47 574 101 c 0
 594 145.667 604.333 193.333 605 244 c 0
 605.667 302.667 592.667 350.333 566 387 c 0
 536 429 492.667 450 436 450 c 0
 373.333 450 330 429.333 306 388 c 0
 290 360 280.333 314 277 250 c 0
 273.667 176.667 269 130.333 263 111 c 0
 250.333 71 224.667 50.6667 186 50 c 0
 148.667 49.3333 119.667 67.3333 99 104 c 0
 82.3333 133.333 74 168.333 74 209 c 0
 74 314.333 111.333 386.333 186 425 c 1
 137 450 l 1
 97.6667 422.667 66.8333 385.833 44.5 339.5 c 0
 22.1667 293.167 11 245.333 11 196 c 0
 11 138 25.3333 91.6667 54 57 c 0
 85.3333 19.6667 129.333 0.666667 186 0 c 0
 246 -0.666667 287.333 22 310 68 c 0
 326.667 102 335.333 162.667 336 250 c 0
 336.667 349.333 370 399.333 436 400 c 0
 474 400.667 502.333 384.333 521 351 c 0
 536.333 323.667 544 289.667 544 249 c 0
 544 206.333 535.667 165.333 519 126 c 0
 499 80 471.333 50.6667 436 38 c 1
 474 0 l 1
446 -324 m 1
 476 -315.333 500.667 -292.667 520 -256 c 0
 536 -223.333 544.333 -189.667 545 -155 c 0
 545.667 -113.667 534.833 -80.1667 512.5 -54.5 c 0
 490.167 -28.8333 458.667 -15.6667 418 -15 c 0
 360 -14.3333 322.667 -39.3333 306 -90 c 0
 300 -108.667 296.667 -132.333 296 -161 c 0
 295.333 -208.333 292.667 -237.333 288 -248 c 0
 279.333 -276 260 -290 230 -290 c 0
 202.667 -290 181 -277 165 -251 c 0
 151.667 -228.333 145 -202.667 145 -174 c 0
 145 -112 173.333 -67.6667 230 -41 c 1
 193 -15 l 1
 163.667 -32.3333 140.667 -56.8333 124 -88.5 c 0
 107.333 -120.167 99 -153.667 99 -189 c 0
 99 -230.333 110.667 -263.167 134 -287.5 c 0
 157.333 -311.833 189.333 -324 230 -324 c 0
 275.333 -324 306.333 -308.333 323 -277 c 0
 335.667 -253 342.333 -211.333 343 -152 c 0
 343.667 -120.667 349.5 -95.8333 360.5 -77.5 c 0
 371.5 -59.1667 390.667 -49.6667 418 -49 c 0
 474.667 -47.6667 503 -81 503 -149 c 0
 503 -179.667 495.333 -210.167 480 -240.5 c 0
 464.667 -270.833 445 -291 421 -301 c 1
 446 -324 l 1
EndSplineSet
EndChar
StartChar: 02
Encoding: 65543 -1
Width: 1216
Flags: HW
Fore
1166 407 m 1
 1083 407 l 1
 1083 0 l 1
 819 0 l 1
 879 62 909 131.333 909 208 c 0
 909 263.333 891.667 311.5 857 352.5 c 0
 822.333 393.5 778 414.333 724 415 c 0
 688 415.667 656.667 405.667 630 385 c 1
 604.667 405 572.667 415 534 415 c 0
 510.667 415 488.5 407.5 467.5 392.5 c 0
 446.5 377.5 431.667 359 423 337 c 1
 391 389 340.333 415 271 415 c 0
 193.667 415 131.333 388.333 84 335 c 0
 38.6667 284.333 16 219.667 16 141 c 0
 16 90.3333 26.6667 48.3333 48 15 c 0
 73.3333 -23 110.333 -42.3333 159 -43 c 0
 191.667 -43.6667 219.167 -32.5 241.5 -9.5 c 0
 263.833 13.5 275 45 275 85 c 0
 275 119.667 263.667 152.167 241 182.5 c 0
 218.333 212.833 190 228 156 228 c 0
 131.333 228 110.667 222 94 210 c 0
 84 202.667 69.6667 184.667 51 156 c 1
 48 159 l 1
 57.3333 253.667 95 315.667 161 345 c 0
 181 353.667 205.667 358.333 235 359 c 0
 265 359.667 292.333 352 317 336 c 0
 345 318.667 359 295.667 359 267 c 2
 359 -33 l 1
 442 -33 l 1
 442 275 l 2
 442 333.667 471.667 364 531 366 c 0
 540.333 366 549.333 364.333 558 361 c 0
 563.333 360.333 573 356.333 587 349 c 1
 553.667 317.667 530.5 288.333 517.5 261 c 0
 504.5 233.667 497.667 202 497 166 c 0
 496.333 129.333 505.667 98.3333 525 73 c 0
 546.333 45 574.667 30.6667 610 30 c 0
 646.667 29.3333 678.333 45.3333 705 78 c 0
 729.667 108.667 742.333 142.667 743 180 c 0
 743.667 217.333 737.167 250.333 723.5 279 c 0
 709.833 307.667 690.333 334.667 665 360 c 1
 683 365 l 1
 709 366 l 2
 743 367.333 772.333 350.333 797 315 c 0
 819.667 282.333 831.333 240 832 188 c 0
 832.667 135.333 814.333 85.3333 777 38 c 0
 768.333 26.6667 756.333 14 741 0 c 1
 492 0 l 1
 492 -33 l 1
 1166 -33 l 1
 1166 407 l 1
600 92 m 0
 578.667 92 561 103.667 547 127 c 0
 535.667 146.333 529.667 167.667 529 191 c 0
 528.333 215 536.833 242.167 554.5 272.5 c 0
 572.167 302.833 591.667 322.667 613 332 c 1
 655.667 296.667 677 251 677 195 c 0
 677 169 670.667 146.333 658 127 c 0
 644 103.667 624.667 92 600 92 c 0
209 92 m 0
 209.667 71.3333 203 53 189 37 c 0
 175 21 157.667 12.6667 137 12 c 0
 117 11.3333 100 20.3333 86 39 c 0
 72 57.6667 65 77.3333 65 98 c 0
 65 120 72 139 86 155 c 0
 100 171 117.667 179 139 179 c 0
 160.333 179 177.667 169.667 191 151 c 0
 202.333 134.333 208.333 114.667 209 92 c 0
EndSplineSet
EndChar
StartChar: 03
Encoding: 65544 -1
Width: 1030
Flags: HW
Fore
576 -286 m 0
 554 -286 533 -272 513 -244 c 0
 494.333 -218 484.667 -193.333 484 -170 c 0
 483.333 -140 501.333 -124.667 538 -124 c 0
 564 -123.333 584.5 -131.5 599.5 -148.5 c 0
 614.5 -165.5 622.333 -187.333 623 -214 c 0
 623.667 -231.333 620.333 -247 613 -261 c 0
 604.333 -277.667 592 -286 576 -286 c 0
863 -49 m 1
 883 -59 899.333 -79.3333 912 -110 c 0
 922.667 -136.667 928.333 -162.667 929 -188 c 0
 929.667 -212.667 924.667 -234.167 914 -252.5 c 0
 903.333 -270.833 886.333 -282 863 -286 c 1
 831 -286 809.667 -274.667 799 -252 c 0
 791.667 -236.667 788 -210.667 788 -174 c 0
 788 -128 775.333 -91.1667 750 -63.5 c 0
 724.667 -35.8333 689.333 -21.6667 644 -21 c 0
 592 -20.3333 549.5 -36.5 516.5 -69.5 c 0
 483.5 -102.5 466.667 -144.667 466 -196 c 0
 465.333 -232.667 474.5 -263 493.5 -287 c 0
 512.5 -311 540 -323 576 -323 c 0
 605.333 -323 629.333 -311 648 -287 c 0
 664.667 -265 673 -239 673 -209 c 0
 673 -177 664.333 -150.333 647 -129 c 0
 627.667 -105.667 599.667 -91.3333 563 -86 c 1
 576.333 -64 598.333 -53 629 -53 c 0
 661.667 -53 688.333 -65 709 -89 c 0
 727.667 -111.667 737.333 -139.667 738 -173 c 0
 739.333 -271.667 781 -321.667 863 -323 c 0
 900.333 -323.667 928.333 -309 947 -279 c 0
 963 -254.333 971.333 -222.333 972 -183 c 0
 972.667 -148.333 966.333 -115.333 953 -84 c 0
 937.667 -47.3333 916 -23 888 -11 c 1
 863 -49 l 1
169 213 m 0
 188.333 213.667 205.5 206.167 220.5 190.5 c 0
 235.5 174.833 243.333 157.333 244 138 c 0
 245.333 81.3333 220.333 52.3333 169 51 c 0
 146.333 50.3333 128.333 59.6667 115 79 c 0
 101.667 98.3333 94.6667 118 94 138 c 0
 93.3333 160 100.167 177.833 114.5 191.5 c 0
 128.833 205.167 147 212.333 169 213 c 0
557 450 m 0
 503.667 450.667 457.667 425.667 419 375 c 1
 395 403 368 423.333 338 436 c 0
 316.667 445.333 289.667 450 257 450 c 0
 187.667 450.667 131 422.333 87 365 c 0
 47 313 26.6667 251.333 26 180 c 0
 25.3333 130.667 36.3333 89.3333 59 56 c 0
 85 18.6667 121.667 1.73472e-18 169 0 c 0
 213 0 247.667 13.6667 273 41 c 0
 295 65 306.333 95 307 131 c 0
 307.667 168.333 296.333 199.5 273 224.5 c 0
 249.667 249.5 219.333 262.333 182 263 c 0
 134.667 263.667 101.333 247 82 213 c 1
 82 264.333 98.3333 308.167 131 344.5 c 0
 163.667 380.833 205.667 399.333 257 400 c 0
 292.333 400.667 321.167 390.167 343.5 368.5 c 0
 365.833 346.833 377 320 377 288 c 2
 377 0 l 1
 439 0 l 1
 439 288 l 2
 439 326 454.333 355.333 485 376 c 0
 509 392 537 400 569 400 c 0
 599 400 623.333 375.667 642 327 c 0
 657.333 288.333 665 251.333 665 216 c 0
 665 132.667 633 77.6667 569 51 c 1
 569 1 l 1
 964 0 l 1
 964 450 l 1
 902 450 l 1
 902 50 l 1
 669 51 l 1
 710.333 99 731.333 159.333 732 232 c 0
 732.667 290 718.333 339.333 689 380 c 0
 657 426 613 449.333 557 450 c 0
EndSplineSet
EndChar
StartChar: 04
Encoding: 65545 -1
Width: 964
Flags: HW
Fore
503 -285 m 0
 481 -285.667 460 -271.667 440 -243 c 0
 421.333 -216.333 412 -191.333 412 -168 c 0
 412 -156 416 -144.333 424 -133 c 1
 432 -125 446 -121 466 -121 c 0
 504 -121 530.333 -139.667 545 -177 c 0
 547.667 -187 549.333 -198.667 550 -212 c 0
 550.667 -230.667 546.5 -247.333 537.5 -262 c 0
 528.5 -276.667 517 -284.333 503 -285 c 0
791 -45 m 1
 819 -59 839.333 -91 852 -141 c 0
 854.667 -152.333 856.333 -167 857 -185 c 0
 858.333 -242.333 836.333 -275.667 791 -285 c 1
 759 -285 737.667 -273.333 727 -250 c 0
 719.667 -234.667 716 -208.333 716 -171 c 0
 716 -124.333 703.5 -87 678.5 -59 c 0
 653.5 -31 618 -16.6667 572 -16 c 0
 520 -15.3333 477.333 -31.8333 444 -65.5 c 0
 410.667 -99.1667 393.667 -142 393 -194 c 0
 392.333 -230 401.667 -260.333 421 -285 c 0
 440.333 -309.667 467.667 -322.333 503 -323 c 0
 532.333 -323.667 556.333 -310.667 575 -284 c 0
 591.667 -260.667 600 -233.667 600 -203 c 0
 600 -168.333 590.5 -139.833 571.5 -117.5 c 0
 552.5 -95.1667 525.667 -83.6667 491 -83 c 1
 496.333 -74.3333 505.333 -66 518 -58 c 0
 530 -52 543 -49 557 -49 c 0
 590.333 -49 616.667 -60.8333 636 -84.5 c 0
 655.333 -108.167 665.333 -137 666 -171 c 0
 667.333 -271 709 -321.667 791 -323 c 0
 827 -323.667 854.667 -309.333 874 -280 c 0
 890 -256 898.333 -223 899 -181 c 0
 899.667 -147 893.333 -113.667 880 -81 c 0
 864 -42.3333 842.333 -17.3333 815 -6 c 1
 791 -45 l 1
747 43 m 1
 784 5 l 1
 823.333 28.3333 854.667 59.8333 878 99.5 c 0
 901.333 139.167 913.333 181.667 914 227 c 0
 914.667 290.333 894.5 343 853.5 385 c 0
 812.5 427 760.333 448.333 697 449 c 0
 631.667 449.667 579.167 429.5 539.5 388.5 c 0
 499.833 347.5 480 294 480 228 c 0
 480 157.333 502.333 98 547 50 c 1
 347 50 l 1
 363 96 l 1
 367 112 369 127.333 369 142 c 0
 369 190 352.333 229.833 319 261.5 c 0
 285.667 293.167 245 309.333 197 310 c 0
 148.333 310.667 106.833 295 72.5 263 c 0
 38.1667 231 20.6667 190.667 20 142 c 0
 19.3333 84.6667 45 37.3333 97 0 c 1
 134 37 l 1
 96.6667 51 77.6667 81.6667 77 129 c 0
 76.3333 163.667 87.6667 194.167 111 220.5 c 0
 134.333 246.833 163 259.667 197 259 c 0
 227.667 258.333 253.833 246.833 275.5 224.5 c 0
 297.167 202.167 308.333 175.667 309 145 c 0
 309.667 101.667 289 72 247 56 c 1
 247 0 l 1
 622 0 l 1
 622 56 l 1
 597.333 74 578 98 564 128 c 0
 551.333 155.333 544.667 187 544 223 c 0
 543.333 272.333 556 313.333 582 346 c 0
 610.667 381.333 649 399 697 399 c 0
 743.667 399 781.333 381 810 345 c 0
 836.667 311.667 850 271.333 850 224 c 0
 850 144.667 815.667 84.3333 747 43 c 1
EndSplineSet
EndChar
StartChar: 05
Encoding: 65546 -1
Width: 1570
Flags: HW
Fore
149 212 m 0
 167 212 184 204 200 188 c 0
 216 172 224 155 224 137 c 0
 224 80.3333 199 51.3333 149 50 c 0
 127.667 49.3333 109.667 58.6667 95 78 c 0
 81.6667 94.6667 74.6667 114.333 74 137 c 0
 73.3333 158.333 80.5 176.167 95.5 190.5 c 0
 110.5 204.833 128.333 212 149 212 c 0
827 450 m 0
 783.667 450.667 750.667 442 728 424 c 0
 711.333 410.667 697.667 390 687 362 c 1
 663.667 420 617.667 449.333 549 450 c 0
 487.667 450.667 437.667 425.667 399 375 c 1
 360.333 424.333 306.333 449.333 237 450 c 0
 182.333 450.667 134 432 92 394 c 0
 39.3333 346 12.6667 277 12 187 c 0
 11.3333 136.333 21.3333 94.3333 42 61 c 0
 66 21 101.667 0.666667 149 0 c 0
 189.667 -0.666667 222.5 12 247.5 38 c 0
 272.5 64 285.333 97.3333 286 138 c 0
 286.667 172.667 274.667 201.833 250 225.5 c 0
 225.333 249.167 195.667 261.333 161 262 c 0
 139 262.667 120.667 258 106 248 c 0
 95.3333 240.667 84.6667 228.667 74 212 c 1
 74 262.667 88.8333 306.5 118.5 343.5 c 0
 148.167 380.5 187.667 399.333 237 400 c 0
 270.333 400.667 299.333 390 324 368 c 0
 348.667 346 361 319 361 287 c 2
 361 1 l 1
 424 1 l 1
 424 287 l 2
 424 322.333 436.333 350.333 461 371 c 0
 483.667 390.333 513 400 549 400 c 0
 575.667 400 599 388 619 364 c 0
 639 340 649 314.333 649 287 c 2
 649 1 l 1
 711 1 l 1
 711 287 l 2
 711 319 720.167 346 738.5 368 c 0
 756.833 390 781.667 401.333 813 402 c 0
 883.667 403.333 919 359.667 919 271 c 0
 919 187.667 927 126.667 943 88 c 0
 967 30 1013.33 1 1082 1 c 0
 1148.67 1 1194.67 26.6667 1220 78 c 1
 1245.33 27.3333 1286.67 1.66667 1344 1 c 0
 1405.33 0.333333 1453 23 1487 69 c 0
 1517 110.333 1532 162.667 1532 226 c 0
 1532 272 1523 314.667 1505 354 c 0
 1485 399.333 1456.33 431.333 1419 450 c 1
 1369 412 l 1
 1399 392.667 1422.67 364 1440 326 c 0
 1456 290.667 1464.33 253.667 1465 215 c 0
 1465.67 173 1456.33 136.667 1437 106 c 0
 1414.33 70.6667 1383.33 53 1344 53 c 0
 1318 53 1296.83 62.5 1280.5 81.5 c 0
 1264.17 100.5 1256 123.333 1256 150 c 2
 1256 450 l 1
 1194 450 l 1
 1194 150 l 2
 1194 120 1185.17 96.5 1167.5 79.5 c 0
 1149.83 62.5 1125.67 53.6667 1095 53 c 0
 1049.67 52.3333 1018 72.6667 1000 114 c 0
 988 142 981.667 185.667 981 245 c 0
 980.333 317 970.667 367 952 395 c 0
 928 431 886.333 449.333 827 450 c 0
EndSplineSet
EndChar
StartChar: 06
Encoding: 65547 -1
Width: 1119
Flags: HW
Fore
149 212 m 0
 167 212 184 204 200 188 c 0
 216 172 224 155 224 137 c 0
 224 80.3333 199 51.3333 149 50 c 0
 127.667 49.3333 109.667 58.6667 95 78 c 0
 81.6667 94.6667 74.6667 114.333 74 137 c 0
 73.3333 158.333 80.5 176.167 95.5 190.5 c 0
 110.5 204.833 128.333 212 149 212 c 0
717 205 m 2
 717 264.333 722 308 732 336 c 0
 745.333 374 769.667 393 805 393 c 0
 826.333 393 843 385.333 855 370 c 0
 867 354.667 873.333 336 874 314 c 0
 874.667 276 859.333 232 828 182 c 0
 790 122 753 80.6667 717 58 c 1
 717 205 l 2
792 58 m 1
 813.333 75.3333 833.667 96 853 120 c 0
 870.333 141.333 886.667 164 902 188 c 0
 930 230.667 944 271.667 944 311 c 0
 944 354.333 922.667 390 880 418 c 1
 930.667 418 969.667 397.333 997 356 c 0
 1009.67 336.667 1016 313.667 1016 287 c 2
 1016 58 l 1
 792 58 l 1
1078 0 m 1
 1078 281 l 2
 1078 332.333 1061 376 1027 412 c 0
 995 446 946.333 463 881 463 c 0
 784.333 463 720 430.667 688 366 c 1
 680 387.333 668.333 404.333 653 417 c 0
 627.667 437 592.667 447.333 548 448 c 0
 486.667 448.667 437 424.333 399 375 c 1
 360.333 424.333 306.333 449.333 237 450 c 0
 182.333 450.667 134 432 92 394 c 0
 39.3333 346 12.6667 277 12 187 c 0
 11.3333 136.333 21.3333 94.3333 42 61 c 0
 66 21 101.667 0.666667 149 0 c 0
 189.667 -0.666667 222.5 12 247.5 38 c 0
 272.5 64 285.333 97.3333 286 138 c 0
 286.667 172.667 274.667 201.833 250 225.5 c 0
 225.333 249.167 195.667 261.333 161 262 c 0
 139 262.667 120.667 258 106 248 c 0
 95.3333 240.667 84.6667 228.667 74 212 c 1
 74 262.667 88.8333 306.5 118.5 343.5 c 0
 148.167 380.5 187.667 399.333 237 400 c 0
 270.333 400.667 299.333 390 324 368 c 0
 348.667 346 361 319 361 287 c 2
 361 0 l 1
 424 0 l 1
 424 287 l 2
 424 322.333 436.333 350.333 461 371 c 0
 483.667 390.333 513 400 549 400 c 0
 576.333 400 600 388.167 620 364.5 c 0
 640 340.833 650 315 650 287 c 2
 650 0 l 1
 1078 0 l 1
EndSplineSet
EndChar
StartChar: 07
Encoding: 65548 -1
Width: 802
Flags: HW
Fore
679 -77 m 1
 689 -77 697.333 -82.6667 704 -94 c 1
 706.667 -102 708.5 -108.5 709.5 -113.5 c 0
 710.5 -118.5 711.333 -127.333 712 -140 c 0
 712 -168.667 706.333 -198 695 -228 c 0
 681 -266.667 662.333 -286 639 -286 c 0
 622.333 -286 607.667 -278.667 595 -264 c 1
 585 -250 579.667 -231.667 579 -209 c 0
 578.333 -187.667 584.333 -165.333 597 -142 c 0
 616.333 -106 643.667 -84.3333 679 -77 c 1
326 -12 m 1
 301.333 -21.3333 280 -44.6667 262 -82 c 0
 245.333 -114.667 237 -145.667 237 -175 c 2
 237 -187 l 1
 239 -199 l 2
 245.667 -239 258.667 -269 278 -289 c 0
 300 -311.667 324.333 -323.333 351 -324 c 0
 397 -324.667 428.667 -312.667 446 -288 c 0
 460 -268 467 -228.667 467 -170 c 0
 467 -137.333 476.167 -110.333 494.5 -89 c 0
 512.833 -67.6667 538 -56.6667 570 -56 c 0
 582.667 -56 598.333 -60 617 -68 c 1
 565 -108.667 539 -156.333 539 -211 c 0
 539 -242.333 548 -269 566 -291 c 0
 584 -313 608.333 -324 639 -324 c 0
 671.667 -324 697.667 -311.333 717 -286 c 0
 735 -262.667 744.333 -234.333 745 -201 c 0
 745.667 -151 729.167 -108.667 695.5 -74 c 0
 661.833 -39.3333 620 -21.6667 570 -21 c 0
 524 -20.3333 487.667 -33.3333 461 -60 c 0
 434.333 -86.6667 420.667 -123.333 420 -170 c 0
 420 -190.667 419.333 -206.667 418 -218 c 0
 416.667 -240.667 413.667 -256.333 409 -265 c 0
 401.667 -279 382.333 -286 351 -286 c 1
 307 -282 284.333 -248.333 283 -185 c 0
 282.333 -158.333 287.667 -132.333 299 -107 c 0
 311.667 -78.3333 329 -59 351 -49 c 1
 326 -12 l 1
614 363 m 0
 627.333 373 640.333 378.333 653 379 c 0
 683.667 380.333 699 346.667 699 278 c 0
 699 236.667 692 192.333 678 145 c 0
 658.667 82.3333 633.333 51 602 51 c 0
 572.667 51 551 65.3333 537 94 c 0
 525.667 115.333 519.667 142.333 519 175 c 0
 517.667 251 549.333 313.667 614 363 c 0
201 413 m 1
 164 450 l 1
 72.6667 395.333 27 312 27 200 c 0
 27 142 41.3333 95.3333 70 60 c 0
 101.333 21.3333 145.333 1.66667 202 1 c 0
 265.333 0.333333 309.667 23.6667 335 71 c 0
 353.667 106.333 363.333 166 364 250 c 0
 364.667 334 410.333 384 501 400 c 1
 532 396 l 1
 543.333 396 554 393.333 564 388 c 1
 529.333 360 502.667 327 484 289 c 0
 467.333 253.667 458.667 215.667 458 175 c 0
 457.333 130.333 467.667 91.3333 489 58 c 0
 513.667 19.3333 547 -1.73472e-18 589 0 c 0
 639 0 678 18.6667 706 56 c 0
 730 88.6667 742.333 131 743 183 c 0
 743.667 251 723.333 311 682 363 c 0
 636 421 575.667 450 501 450 c 0
 441 450 392.833 432 356.5 396 c 0
 320.167 360 301.667 311.667 301 251 c 0
 300.333 183 293.333 133.667 280 103 c 0
 264.667 69 238.333 51.3333 201 50 c 1
 163.667 55.3333 135.833 72.5 117.5 101.5 c 0
 99.1667 130.5 89.6667 166 89 208 c 0
 88.3333 249.333 98 289.5 118 328.5 c 0
 138 367.5 165.667 395.667 201 413 c 1
EndSplineSet
EndChar
StartChar: 08
Encoding: 65549 -1
Width: 1048
Flags: HW
Fore
154 211 m 0
 172 211 189 203 205 187 c 0
 221 171 229 154 229 136 c 0
 229 80 204 51.3333 154 50 c 0
 132.667 49.3333 115 58 101 76 c 0
 87 94 79.6667 114 79 136 c 0
 78.3333 157.333 85.5 175.167 100.5 189.5 c 0
 115.5 203.833 133.333 211 154 211 c 0
391 -212 m 1
 391 -238 l 1
 954 -238 l 1
 954 450 l 1
 891 450 l 1
 891 50 l 1
 654 50 l 1
 695.333 100 716.333 160.333 717 231 c 0
 717.667 289 703.333 338.667 674 380 c 0
 641.333 425.333 597 448.333 541 449 c 0
 489 449.667 443.333 424.667 404 374 c 1
 365.333 423.333 311.333 448.333 242 449 c 0
 172 449.667 115.333 421.333 72 364 c 0
 32.6667 312.667 12.6667 251 12 179 c 0
 11.3333 129.667 22.3333 88.6667 45 56 c 0
 70.3333 19.3333 106.667 0.666667 154 0 c 0
 194.667 -0.666667 227.667 10.8333 253 34.5 c 0
 278.333 58.1667 291 90 291 130 c 0
 291 168 279.667 199.167 257 223.5 c 0
 234.333 247.833 204 260.333 166 261 c 0
 118 261.667 85 245 67 211 c 1
 67 261.667 83.5 305.5 116.5 342.5 c 0
 149.5 379.5 191 398.333 241 399 c 0
 275.667 399.667 305.167 389.5 329.5 368.5 c 0
 353.833 347.5 366 320 366 286 c 2
 366 1 l 1
 429 1 l 1
 429 286 l 2
 429 321.333 441.333 349.333 466 370 c 0
 488.667 389.333 518 399 554 399 c 0
 582.667 399 606.667 374.333 626 325 c 0
 641.333 286.333 649 249.667 649 215 c 0
 649 129 617.333 74 554 50 c 1
 554 0 l 1
 854 0 l 1
 391 -212 l 1
579 -187 m 1
 891 -25 l 1
 891 -187 l 1
 579 -187 l 1
EndSplineSet
EndChar
StartChar: 09
Encoding: 65550 -1
Width: 1073
Flags: HW
Fore
154 212 m 0
 172 212 189 204 205 188 c 0
 221 172 229 155 229 137 c 0
 229 80.3333 204 51.3333 154 50 c 0
 132.667 49.3333 114.667 58.6667 100 78 c 0
 86.6667 94.6667 79.6667 114.333 79 137 c 0
 78.3333 158.333 85.5 176.167 100.5 190.5 c 0
 115.5 204.833 133.333 212 154 212 c 0
241 450 m 0
 187 450.667 139 432 97 394 c 0
 44.3333 346 17.6667 277.333 17 188 c 0
 16.3333 135.333 25.6667 92.6667 45 60 c 0
 69 20.6667 105.333 0.666667 154 0 c 0
 194.667 -0.666667 227.5 12 252.5 38 c 0
 277.5 64 290.333 97.3333 291 138 c 0
 291.667 175.333 280.167 205.333 256.5 228 c 0
 232.833 250.667 202.667 262 166 262 c 0
 128.667 262 99.6667 245.333 79 212 c 1
 79 263.333 93 306.667 121 342 c 0
 151.667 380.667 192 400 242 400 c 0
 276 400 305.167 389.167 329.5 367.5 c 0
 353.833 345.833 366 319 366 287 c 2
 366 1 l 1
 429 1 l 1
 429 287 l 2
 429 322.333 441.333 350.333 466 371 c 0
 488.667 390.333 518 400 554 400 c 0
 580.667 400 604 388 624 364 c 0
 644 340 654 314.333 654 287 c 2
 654 1 l 1
 716 1 l 1
 716 287 l 2
 716 318.333 725 345 743 367 c 0
 761 389 785.333 400 816 400 c 0
 858 400 890 382.667 912 348 c 0
 930.667 318.667 940.333 281.667 941 237 c 0
 941.667 198.333 934 161.667 918 127 c 0
 899.333 87 873.667 61.3333 841 50 c 1
 879 0 l 1
 946.333 40 988 115.333 1004 226 c 1
 1004 288 990.667 339 964 379 c 0
 932.667 425.667 887.667 449.333 829 450 c 0
 759 450.667 713.333 421.333 692 362 c 1
 668.667 420 622.667 449.333 554 450 c 0
 492.667 450.667 442.667 425.667 404 375 c 1
 365.333 424.333 311 449.333 241 450 c 0
416 -187 m 0
 428 -186.333 437.167 -191.333 443.5 -202 c 0
 449.833 -212.667 453.333 -224.333 454 -237 c 0
 455.333 -269.667 438.667 -286 404 -286 c 0
 394.667 -286 385.333 -281 376 -271 c 1
 370 -259.667 366.667 -248.333 366 -237 c 0
 364.667 -205 381.333 -188.333 416 -187 c 0
891 -299 m 1
 916 -324 l 1
 942 -307.333 962.333 -284 977 -254 c 0
 991.667 -224 999.333 -193 1000 -161 c 0
 1000.67 -124.333 991.5 -92.6667 972.5 -66 c 0
 953.5 -39.3333 926.333 -21.3333 891 -12 c 1
 865 -12 844.5 -16.5 829.5 -25.5 c 0
 814.5 -34.5 801.667 -50.6667 791 -74 c 1
 776.333 -33.3333 747.333 -12.6667 704 -12 c 0
 658 -10.6667 620.333 -31.3333 591 -74 c 1
 557.667 -33.3333 516 -12.6667 466 -12 c 0
 419.333 -11.3333 381.333 -31 352 -71 c 0
 326 -107 313 -149.333 313 -198 c 0
 313 -234 321 -263.333 337 -286 c 0
 355 -310.667 381.333 -323.333 416 -324 c 0
 441.333 -324.667 462 -317.5 478 -302.5 c 0
 494 -287.5 502.333 -267.333 503 -242 c 0
 503.667 -216.667 495.667 -195 479 -177 c 0
 462.333 -159 441.333 -149.667 416 -149 c 0
 390 -148.333 369.333 -161 354 -187 c 1
 354 -151.667 363.667 -120.667 383 -94 c 0
 404.333 -64.6667 432 -49.6667 466 -49 c 0
 491.333 -48.3333 514.333 -57 535 -75 c 0
 555.667 -93 566 -113.667 566 -137 c 2
 566 -324 l 1
 616 -324 l 1
 616 -137 l 2
 616 -79.6667 641 -50.3333 691 -49 c 0
 711.667 -48.3333 729.333 -57.5 744 -76.5 c 0
 758.667 -95.5 766 -115.667 766 -137 c 2
 766 -324 l 1
 816 -324 l 1
 816 -137 l 2
 816 -111 822.5 -90.1667 835.5 -74.5 c 0
 848.5 -58.8333 867 -50.3333 891 -49 c 1
 910.333 -55.6667 926 -72 938 -98 c 0
 947.333 -120 952 -142.667 952 -166 c 0
 952 -225.333 931.667 -269.667 891 -299 c 1
EndSplineSet
EndChar
StartChar: 10
Encoding: 65551 -1
Width: 983
Flags: HW
Fore
746 -42 m 1
 790 -72.6667 812 -118 812 -178 c 0
 812 -210 804.333 -236.333 789 -257 c 0
 772.333 -279.667 748.667 -291 718 -291 c 0
 668.667 -291 643.667 -261.833 643 -203.5 c 0
 642.333 -145.167 637 -105 627 -83 c 0
 609.667 -45 575.333 -25.6667 524 -25 c 0
 473.333 -24.3333 437.667 -41.6667 417 -77 c 1
 399.667 -43 370 -25.6667 328 -25 c 0
 284 -24.3333 249.167 -38.3333 223.5 -67 c 0
 197.833 -95.6667 184.667 -132.333 184 -177 c 0
 183.333 -248.333 211.333 -297.333 268 -324 c 1
 305 -299 l 1
 283 -287 265.833 -269 253.5 -245 c 0
 241.167 -221 235 -196 235 -170 c 0
 235 -138 242.833 -111.5 258.5 -90.5 c 0
 274.167 -69.5 297.333 -58.6667 328 -58 c 0
 344.667 -57.3333 359.167 -63.5 371.5 -76.5 c 0
 383.833 -89.5 390 -105.333 390 -124 c 2
 390 -324 l 1
 437 -324 l 1
 437 -124 l 2
 437 -81.3333 463 -59.3333 515 -58 c 0
 549 -57.3333 572 -71.3333 584 -100 c 0
 592 -119.333 596 -148.667 596 -188 c 0
 596 -236 604 -270 620 -290 c 0
 638.667 -312 671.333 -323.333 718 -324 c 0
 760 -324.667 794 -310 820 -280 c 0
 844.667 -252 857.333 -216.667 858 -174 c 0
 858.667 -112 833.667 -62.3333 783 -25 c 1
 746 -42 l 1
766 424 m 1
 793.333 404.667 814.5 376 829.5 338 c 0
 844.5 300 852.333 260.667 853 220 c 0
 853.667 174 843 133.667 821 99 c 0
 800.333 67 769.667 50.6667 729 50 c 0
 663 49.3333 629.667 92.6667 629 180 c 0
 628.333 267.333 621 328.333 607 363 c 0
 583.667 421 538.667 450 472 450 c 0
 404 450 356 424 328 372 c 1
 304 424 264.333 450 209 450 c 0
 149 450 101.333 426.667 66 380 c 0
 36 340 21 288 21 224 c 0
 21 178 30 135.333 48 96 c 0
 68 50.6667 96.6667 18.6667 134 0 c 1
 179 38 l 1
 148.333 57.3333 125 85.6667 109 123 c 0
 93.6667 157 86 193.333 86 232 c 0
 86 276 95.3333 313.333 114 344 c 0
 136.667 380.667 168.333 399.333 209 400 c 0
 235 400.667 255.333 390.833 270 370.5 c 0
 284.667 350.167 292 326.667 292 300 c 2
 292 0 l 1
 354 0 l 1
 354 300 l 2
 354 330 364 354 384 372 c 0
 404 390 429 399.333 459 400 c 0
 503 400.667 533.667 379.667 551 337 c 0
 561 311.667 566.333 267.667 567 205 c 0
 567.667 133.667 578 83.6667 598 55 c 0
 623.333 19 668.667 0.666667 734 0 c 0
 792.667 -0.666667 839 22.3333 873 69 c 0
 902.333 109.667 917.333 160.667 918 222 c 0
 918.667 264.667 910.5 306.167 893.5 346.5 c 0
 876.5 386.833 850.667 421.333 816 450 c 1
 766 424 l 1
EndSplineSet
EndChar
StartChar: 11
Encoding: 65552 -1
Width: 1348
Flags: HW
Fore
256 422 m 0
 282.667 422 308 416 332 404 c 1
 282 364.667 256.667 301.667 256 215 c 0
 255.333 163.667 267.333 116.667 292 74 c 0
 321.333 23.3333 360 -2 408 -2 c 0
 449.333 -2 481.333 22.6667 504 72 c 0
 521.333 110 530.333 152.333 531 199 c 0
 531.667 238.333 525.167 275.833 511.5 311.5 c 0
 497.833 347.167 478.333 376.667 453 400 c 1
 473 408 493.667 412 515 412 c 0
 547.667 412 574.167 402.667 594.5 384 c 0
 614.833 365.333 625 339.667 625 307 c 2
 625 -2 l 1
 701 -2 l 1
 701 307 l 2
 701 330.333 713 353.667 737 377 c 0
 761 400.333 784.667 412 808 412 c 0
 890 412 931.333 351 932 229 c 0
 932.667 172.333 944.667 122 968 78 c 0
 996 25.3333 1035.33 -1.33333 1086 -2 c 0
 1152.67 -2.66667 1206 22.6667 1246 74 c 0
 1282 120.667 1300 178.333 1300 247 c 0
 1300 295 1290 339 1270 379 c 0
 1248.67 421.667 1218 454.333 1178 477 c 1
 1173 478 l 2
 1165.67 478 1157.33 471.333 1148 458 c 0
 1144 452 1143 447.667 1145 445 c 1
 1173.67 424.333 1197.17 397.833 1215.5 365.5 c 0
 1233.83 333.167 1243 298 1243 260 c 0
 1243 130.667 1193 66 1093 66 c 0
 1061 66 1035.67 88.3333 1017 133 c 0
 1003 167 996 202.667 996 240 c 0
 996 296.667 984.333 347.667 961 393 c 0
 931.667 448.333 891.333 476.333 840 477 c 0
 757.333 477.667 700.667 443.667 670 375 c 1
 654 440.333 601.667 473.667 513 475 c 0
 497 475 485 474.333 477 473 c 0
 449.667 471.667 420.333 462.333 389 445 c 1
 379.667 449.667 370.333 453.667 361 457 c 2
 330 468 l 2
 313.333 474 293.667 477 271 477 c 0
 191.667 477 129.333 458.333 84 421 c 0
 35.3333 381 10.6667 322 10 244 c 0
 9.33333 187.333 25 135 57 87 c 0
 83.6667 47 118.667 17.3333 162 -2 c 1
 169.333 -2 178 0.166667 188 4.5 c 0
 198 8.83333 203.333 14.3333 204 21 c 1
 166 61 139 94.3333 123 121 c 0
 99 161.667 86.6667 202.667 86 244 c 0
 85.3333 295.333 100.667 337.833 132 371.5 c 0
 163.333 405.167 204.667 422 256 422 c 0
422 66 m 0
 380 66 352.333 93 339 147 c 0
 335 164.333 332.667 187 332 215 c 0
 330.667 285 356 336.333 408 369 c 1
 454.667 335.667 478.667 279 480 199 c 0
 480.667 153 476.333 118.667 467 96 c 0
 458.333 76 443.333 66 422 66 c 0
EndSplineSet
EndChar
StartChar: 12
Encoding: 65553 -1
Width: 904
Flags: HW
Fore
389 0 m 1
 419.667 4 443 8.33333 459 13 c 0
 507.667 27.6667 538.667 48.3333 552 75 c 1
 568.667 25.6667 606 0.666667 664 0 c 0
 725.333 -0.666667 773.667 21 809 65 c 0
 840.333 104.333 856.333 155.667 857 219 c 0
 857.667 267 848.333 311.333 829 352 c 0
 808.333 396.667 778.333 429.333 739 450 c 1
 702 412 l 1
 766 376 798.667 312.333 800 221 c 0
 800.667 174.333 790 135.333 768 104 c 0
 743.333 68.6667 708.667 50.6667 664 50 c 0
 642 49.3333 621.667 60.6667 603 84 c 0
 585.667 105.333 577 127.333 577 150 c 2
 577 450 l 1
 514 450 l 1
 514 150 l 2
 514 105.333 493 76.3333 451 63 c 0
 424.333 55 378.667 50.6667 314 50 c 0
 282 49.3333 265 56 263 70 c 0
 263 78 279 83.6667 311 87 c 0
 349.667 90.3333 376.667 99.3333 392 114 c 0
 410.667 132 420.333 154 421 180 c 0
 421.667 219.333 402.667 246.667 364 262 c 1
 406 280.667 427 309.667 427 349 c 0
 427 385 407.667 412 369 430 c 0
 339.667 443.333 304.667 450 264 450 c 0
 190.667 450.667 132.667 427.5 90 380.5 c 0
 47.3333 333.5 25.6667 273 25 199 c 0
 24.3333 135.667 41.6667 69.3333 77 0 c 1
 127 25 l 1
 102.333 84.3333 89.6667 141.333 89 196 c 0
 88.3333 256 102.333 304 131 340 c 0
 161.667 379.333 206 399.333 264 400 c 0
 294.667 400.667 319.333 395 338 383 c 0
 356.667 371 366 357 366 341 c 0
 366 329 359 316.333 345 303 c 1
 330.333 292.333 311.667 287 289 287 c 2
 202 287 l 1
 202 237 l 1
 289 237 l 2
 306.333 237 322 231.667 336 221 c 0
 350 210.333 357.333 196.667 358 180 c 0
 359.333 152.667 341 138 303 136 c 1
 289 137 l 2
 263.667 139 239.333 132.333 216 117 c 0
 196 103.667 186 88.3333 186 71 c 0
 186 50.3333 202 33.3333 234 20 c 0
 263.333 8 315 1.33333 389 0 c 1
EndSplineSet
EndChar
StartChar: 13
Encoding: 65554 -1
Width: 1004
Flags: HW
Fore
766 424 m 1
 793.333 404.667 814.5 376 829.5 338 c 0
 844.5 300 852.333 260.667 853 220 c 0
 853.667 174 843 133.667 821 99 c 0
 800.333 67 769.667 50.6667 729 50 c 0
 663 49.3333 629.667 92.6667 629 180 c 0
 628.333 267.333 621 328.333 607 363 c 0
 583.667 421 538.667 450 472 450 c 0
 404 450 356 424 328 372 c 1
 304 424 264.333 450 209 450 c 0
 149 450 101.333 426.667 66 380 c 0
 36 340 21 288 21 224 c 0
 21 178 30 135.333 48 96 c 0
 68 50.6667 96.6667 18.6667 134 0 c 1
 179 38 l 1
 148.333 57.3333 125 85.6667 109 123 c 0
 93.6667 157 86 193.333 86 232 c 0
 86 276 95.3333 313.333 114 344 c 0
 136.667 380.667 168.333 399.333 209 400 c 0
 235 400.667 255.333 390.833 270 370.5 c 0
 284.667 350.167 292 326.667 292 300 c 2
 292 0 l 1
 354 0 l 1
 354 300 l 2
 354 330 364 354 384 372 c 0
 404 390 429 399.333 459 400 c 0
 503 400.667 533.667 379.667 551 337 c 0
 561 311.667 566.333 267.667 567 205 c 0
 567.667 133.667 578 83.6667 598 55 c 0
 623.333 19 668.667 0.666667 734 0 c 0
 792.667 -0.666667 839 22.3333 873 69 c 0
 902.333 109.667 917.333 160.667 918 222 c 0
 918.667 264.667 910.5 306.167 893.5 346.5 c 0
 876.5 386.833 850.667 421.333 816 450 c 1
 766 424 l 1
509 -286 m 0
 487 -286 466 -272 446 -244 c 0
 427.333 -218 417.667 -193.333 417 -170 c 0
 416.333 -140 434.333 -124.667 471 -124 c 0
 497 -123.333 517.5 -131.5 532.5 -148.5 c 0
 547.5 -165.5 555.333 -187.333 556 -214 c 0
 556.667 -231.333 553.333 -247 546 -261 c 0
 537.333 -277.667 525 -286 509 -286 c 0
796 -49 m 1
 816 -59 832.333 -79.3333 845 -110 c 0
 855.667 -136.667 861.333 -162.667 862 -188 c 0
 862.667 -212.667 857.667 -234.167 847 -252.5 c 0
 836.333 -270.833 819.333 -282 796 -286 c 1
 764 -286 742.667 -274.667 732 -252 c 0
 724.667 -236.667 721 -210.667 721 -174 c 0
 721 -127.333 708.5 -90.3333 683.5 -63 c 0
 658.5 -35.6667 623 -21.6667 577 -21 c 0
 525 -20.3333 482.5 -36.5 449.5 -69.5 c 0
 416.5 -102.5 399.667 -144.667 399 -196 c 0
 398.333 -231.333 407.833 -261.167 427.5 -285.5 c 0
 447.167 -309.833 474.333 -322.333 509 -323 c 0
 537 -323.667 560.167 -312.5 578.5 -289.5 c 0
 596.833 -266.5 606 -239.667 606 -209 c 0
 606 -177 597.333 -150.333 580 -129 c 0
 560.667 -105.667 532.667 -91.3333 496 -86 c 1
 509.333 -64 531.333 -53 562 -53 c 0
 594.667 -53 621.333 -65 642 -89 c 0
 660.667 -111.667 670.333 -139.667 671 -173 c 0
 672.333 -271.667 714 -321.667 796 -323 c 0
 833.333 -323.667 861.333 -309 880 -279 c 0
 896 -254.333 904.333 -222.333 905 -183 c 0
 905.667 -148.333 899.333 -115.333 886 -84 c 0
 870.667 -47.3333 849 -23 821 -11 c 1
 796 -49 l 1
EndSplineSet
EndChar
StartChar: 14
Encoding: 65555 -1
Width: 797
Flags: HW
Fore
159 450 m 1
 67.6667 395.333 22 312 22 200 c 0
 22 142 36.3333 95.3333 65 60 c 0
 96.3333 21.3333 140.333 1.66667 197 1 c 0
 260.333 0.333333 304.667 23.6667 330 71 c 0
 348.667 106.333 358.333 166 359 250 c 0
 359.667 334 405.333 384 496 400 c 1
 527 396 l 1
 538.333 396 549 393.333 559 388 c 1
 524.333 360 497.667 327 479 289 c 0
 462.333 253.667 453.667 215.667 453 175 c 0
 452.333 130.333 462.667 91.3333 484 58 c 0
 508.667 19.3333 542 -1.73472e-18 584 0 c 0
 634 0 673 18.6667 701 56 c 0
 725 88.6667 737.333 131 738 183 c 0
 738.667 251 718.333 311 677 363 c 0
 631 421 570.667 450 496 450 c 0
 436 450 387.833 432 351.5 396 c 0
 315.167 360 296.667 311.667 296 251 c 0
 295.333 183 288.333 133.667 275 103 c 0
 259.667 69 233.333 51.3333 196 50 c 1
 158.667 55.3333 130.833 72.5 112.5 101.5 c 0
 94.1667 130.5 84.6667 166 84 208 c 0
 83.3333 249.333 93 289.5 113 328.5 c 0
 133 367.5 160.667 395.667 196 413 c 1
 159 450 l 1
321 -286 m 0
 299 -286 278 -272 258 -244 c 0
 239.333 -218 230 -193.333 230 -170 c 0
 230 -140 248 -124.667 284 -124 c 0
 310 -123.333 330.333 -131.667 345 -149 c 0
 359.667 -166.333 367.333 -188 368 -214 c 0
 368.667 -231.333 365.333 -247 358 -261 c 0
 349.333 -277.667 337 -286 321 -286 c 0
609 -49 m 1
 629 -59 645.333 -79.3333 658 -110 c 0
 668.667 -136.667 674.333 -162.667 675 -188 c 0
 675.667 -212.667 670.667 -234.167 660 -252.5 c 0
 649.333 -270.833 632.333 -282 609 -286 c 1
 577 -286 555.667 -274.667 545 -252 c 0
 537.667 -236.667 534 -210.667 534 -174 c 0
 534 -128 521.333 -91.1667 496 -63.5 c 0
 470.667 -35.8333 435.333 -21.6667 390 -21 c 0
 338 -20.3333 295.333 -36.3333 262 -69 c 0
 228.667 -101.667 211.667 -144 211 -196 c 0
 210.333 -231.333 219.833 -261.167 239.5 -285.5 c 0
 259.167 -309.833 286.333 -322.333 321 -323 c 0
 349 -323.667 372.167 -312.5 390.5 -289.5 c 0
 408.833 -266.5 418 -239.667 418 -209 c 0
 418 -159 397.333 -121.667 356 -97 c 0
 345.333 -91 329.667 -87.3333 309 -86 c 1
 322.333 -64 344.333 -53 375 -53 c 0
 407.667 -53 434.333 -65 455 -89 c 0
 473.667 -111.667 483.333 -139.667 484 -173 c 0
 485.333 -271.667 527 -321.667 609 -323 c 0
 646.333 -323.667 674.333 -309.333 693 -280 c 0
 708.333 -255.333 716.333 -223.333 717 -184 c 0
 717.667 -149.333 711.333 -116.333 698 -85 c 0
 682.667 -47.6667 661 -23 633 -11 c 1
 609 -49 l 1
609 363 m 0
 622.333 373 635.333 378.333 648 379 c 0
 678.667 380.333 694 346.667 694 278 c 0
 694 236.667 687 192.333 673 145 c 0
 653.667 82.3333 628.333 51 597 51 c 0
 567.667 51 546 65.3333 532 94 c 0
 520.667 115.333 514.667 142.333 514 175 c 0
 512.667 251 544.333 313.667 609 363 c 0
EndSplineSet
EndChar
StartChar: 15
Encoding: 65556 -1
Width: 501
Flags: HW
Fore
177 37 m 1
 119.667 73 90.3333 135.333 89 224 c 0
 88.3333 274 100.333 315 125 347 c 0
 152.333 382.333 190.333 400 239 400 c 0
 283.667 400 318.333 381.667 343 345 c 0
 364.333 313.667 375.333 274.667 376 228 c 0
 376.667 189.333 368.667 153 352 119 c 0
 334 83 309 55.6667 277 37 c 1
 301 0 l 1
 345.667 26 380.333 61.3333 405 106 c 0
 427 146 438.333 190 439 238 c 0
 439.667 299.333 421.667 349.833 385 389.5 c 0
 348.333 429.167 299.667 449.333 239 450 c 0
 176.333 450.667 124.333 427 83 379 c 0
 45 335 26 281.667 26 219 c 0
 26 122.333 68 49.3333 152 0 c 1
 177 37 l 1
252 -324 m 1
 264 -299 l 1
 231.333 -278.333 215 -243.667 215 -195 c 0
 215 -161 223 -131.667 239 -107 c 0
 257 -77.6667 282 -62.6667 314 -62 c 0
 342.667 -61.3333 365 -73.3333 381 -98 c 0
 395.667 -119.333 403 -145 403 -175 c 0
 403 -231.667 381.667 -273 339 -299 c 1
 352 -324 l 1
 408 -294 436.667 -243.333 438 -172 c 0
 438.667 -132.667 428.333 -98.6667 407 -70 c 0
 383.667 -40 352.667 -24.6667 314 -24 c 0
 272 -23.3333 238 -40.6667 212 -76 c 0
 188.667 -108 176.667 -145.667 176 -189 c 0
 175.333 -252.333 200.667 -297.333 252 -324 c 1
EndSplineSet
EndChar
StartChar: 16
Encoding: 65557 -1
Width: 514
Flags: HW
Fore
282 -174 m 0
 320.667 -174.667 354 -165.667 382 -147 c 0
 414 -125 430 -95.6667 430 -59 c 0
 430 -15 405.667 13 357 25 c 1
 381 27 401.667 39 419 61 c 1
 433.667 85.6667 441 110 441 134 c 0
 441 181.333 421.333 211.667 382 225 c 1
 420 243.667 439.333 275.333 440 320 c 0
 440.667 362.667 422.333 395.667 385 419 c 0
 353.667 439 315.333 449.333 270 450 c 0
 194.667 450.667 135 423 91 367 c 0
 51.6667 316.333 32 252 32 174 c 0
 32 127.333 38.6667 84 52 44 c 0
 56.6667 30.6667 62.6667 16 70 0 c 1
 120 25 l 1
 103.333 79.6667 94.6667 130.333 94 177 c 0
 93.3333 239 106.667 290 134 330 c 0
 165.333 376 210.667 399.333 270 400 c 0
 304 400.667 330.167 393.5 348.5 378.5 c 0
 366.833 363.5 376 345.667 376 325 c 0
 376 302.333 368.167 284.167 352.5 270.5 c 0
 336.833 256.833 317.667 250 295 250 c 2
 207 250 l 1
 207 200 l 1
 295 200 l 2
 318.333 200 337.667 195 353 185 c 0
 371 173 380.333 156 381 134 c 0
 381.667 111.333 371 93.3333 349 80 c 0
 331 68.6667 310 62.6667 286 62 c 2
 270 63 l 1
 170 63 l 1
 170 13 l 1
 257 13 l 2
 283.667 13 307.667 8 329 -2 c 0
 355.667 -14.6667 369 -33 369 -57 c 0
 369 -78.3333 357.333 -95.3333 334 -108 c 0
 314.667 -118.667 293.333 -124 270 -124 c 0
 232 -124 194.333 -111.667 157 -87 c 1
 157 -137 l 1
 193 -161 234.667 -173.333 282 -174 c 0
EndSplineSet
EndChar
StartChar: 17
Encoding: 65558 -1
Width: 1169
Flags: HW
Fore
164 288 m 0
 184 288.667 200.5 282 213.5 268 c 0
 226.5 254 233.333 236.667 234 216 c 0
 234.667 200 228.667 184.333 216 169 c 1
 204 157 186.667 150.667 164 150 c 0
 117.333 148.667 94 170.667 94 216 c 0
 94 236 100.667 252.833 114 266.5 c 0
 127.333 280.167 144 287.333 164 288 c 0
739 287 m 0
 758.333 287.667 774.667 280.833 788 266.5 c 0
 801.333 252.167 808.333 235 809 215 c 0
 809.667 195.667 803.167 180.167 789.5 168.5 c 0
 775.833 156.833 759 150.667 739 150 c 0
 718.333 149.333 701.5 154.833 688.5 166.5 c 0
 675.5 178.167 669 194.333 669 215 c 0
 669 235 675.667 251.833 689 265.5 c 0
 702.333 279.167 719 286.333 739 287 c 0
715 -99 m 2
 681.667 -99 664.333 -81.3333 663 -46 c 0
 662.333 -30.6667 666.833 -17 676.5 -5 c 0
 686.167 7 698.667 13 714 13 c 2
 927 13 l 2
 972.333 13 1010.33 21.3333 1041 38 c 0
 1079.67 58.6667 1099 89.6667 1099 131 c 0
 1099 150.333 1093.67 168.833 1083 186.5 c 0
 1072.33 204.167 1057.67 217 1039 225 c 1
 1053.67 233 1066 244 1076 258 c 1
 1084 273.333 1088.33 291.333 1089 312 c 0
 1089.67 362.667 1063.33 400 1010 424 c 0
 970.667 441.333 922 450 864 450 c 0
 780 450 713.667 427.667 665 383 c 0
 623 345 602 298.333 602 243 c 0
 602 200.333 614.333 166 639 140 c 0
 663.667 114 697 100.667 739 100 c 0
 777 99.3333 808.5 109.167 833.5 129.5 c 0
 858.5 149.833 871.333 178.333 872 215 c 0
 872.667 249.667 861.5 278.5 838.5 301.5 c 0
 815.5 324.5 786.667 336.333 752 337 c 0
 707.333 337.667 674.333 317 653 275 c 1
 667 312.333 687.333 341 714 361 c 0
 748 387 798 400 864 400 c 0
 904 400 938 395 966 385 c 0
 1006.67 369.667 1027 345.333 1027 312 c 0
 1027 270.667 1002 250 952 250 c 2
 902 250 l 1
 902 200 l 1
 952 200 l 2
 974 200 992.667 195 1008 185 c 0
 1026 173 1035.33 156.667 1036 136 c 0
 1036.67 109.333 1022 89.6667 992 77 c 0
 970 67.6667 944 63 914 63 c 2
 714 62 l 2
 679.333 62 651.833 50 631.5 26 c 0
 611.167 2 601 -27.6667 601 -63 c 0
 601 -87 605.333 -99 614 -99 c 2
 140 -99 l 2
 106.667 -99 89.3333 -81.3333 88 -46 c 0
 87.3333 -30.6667 91.8333 -17 101.5 -5 c 0
 111.167 7 123.667 13 139 13 c 2
 352 13 l 2
 397.333 13 435.333 21.3333 466 38 c 0
 504.667 58.6667 524 89.6667 524 131 c 0
 524 175.667 504 207 464 225 c 1
 478.667 233 491 244 501 258 c 1
 509 273.333 513.333 291.667 514 313 c 0
 514.667 363 488 400 434 424 c 0
 394.667 441.333 346.333 450 289 450 c 0
 218.333 450 159 433.333 111 400 c 0
 56.3333 362.667 28.6667 310.333 28 243 c 0
 27.3333 201 39.3333 166.833 64 140.5 c 0
 88.6667 114.167 122 100.667 164 100 c 0
 202 99.3333 233.5 109.167 258.5 129.5 c 0
 283.5 149.833 296.333 178.667 297 216 c 0
 297.667 250 286.333 278.833 263 302.5 c 0
 239.667 326.167 211 338 177 338 c 0
 131.667 338 98.6667 317 78 275 c 1
 92 312.333 112.333 341 139 361 c 0
 173 387 223 400 289 400 c 0
 396.333 400 450.667 371 452 313 c 0
 452.667 271 427.667 250 377 250 c 2
 327 250 l 1
 327 200 l 1
 377 200 l 2
 399 200 417.667 195 433 185 c 0
 451 173 460.333 156.667 461 136 c 0
 461.667 110 447 90.3333 417 77 c 0
 395 67.6667 369 63 339 63 c 2
 139 63 l 2
 103 63 74.6667 52.3333 54 31 c 0
 33.3333 9.66667 22.6667 -16 22 -46 c 0
 21.3333 -78 32.6667 -103.167 56 -121.5 c 0
 79.3333 -139.833 107.333 -149 140 -149 c 2
 1077 -149 l 1
 1077 -99 l 1
 715 -99 l 2
EndSplineSet
EndChar
StartChar: 18
Encoding: 65559 -1
Width: 723
Flags: HW
Fore
371 292 m 2
 371 325.333 384 352 410 372 c 0
 433.333 390.667 462 400.333 496 401 c 0
 530.667 401.667 557.667 394.5 577 379.5 c 0
 596.333 364.5 606.333 346.667 607 326 c 0
 607.667 305.333 598.833 288.5 580.5 275.5 c 0
 562.167 262.5 542.333 256 521 256 c 2
 433 255 l 1
 434 207 l 1
 521 207 l 2
 553.667 207 576.5 200.333 589.5 187 c 0
 602.5 173.667 609.333 157 610 137 c 0
 610.667 112.333 602.167 91.8333 584.5 75.5 c 0
 566.833 59.1667 545.667 50.6667 521 50 c 0
 507 49.3333 494 52 482 58 c 1
 463.333 63.3333 451.333 69 446 75 c 1
 446 25 l 1
 474 13 l 2
 487.333 7.66667 503 3.33333 521 0 c 1
 563.667 0 599.333 12.3333 628 37 c 0
 656.667 61.6667 671 95 671 137 c 0
 671 159.667 665.5 179.833 654.5 197.5 c 0
 643.5 215.167 628 226.333 608 231 c 1
 650.667 249 672 279.333 672 322 c 0
 672 364 652.333 396.667 613 420 c 0
 579.667 439.333 540.667 449.333 496 450 c 0
 424 450.667 374 426.333 346 377 c 1
 336.667 396.333 319 413.167 293 427.5 c 0
 267 441.833 239 449.333 209 450 c 0
 151.667 450.667 105 425.667 69 375 c 0
 38.3333 332.333 22.6667 276.333 22 207 c 0
 21.3333 116.333 50.3333 47.3333 109 0 c 1
 159 25 l 1
 134.333 43 115.667 69 103 103 c 0
 91 135 84.6667 171.333 84 212 c 0
 83.3333 258.667 92.3333 299.667 111 335 c 0
 133.667 378.333 166.333 400.333 209 401 c 0
 239 401.667 263.167 391.333 281.5 370 c 0
 299.833 348.667 309 322.667 309 292 c 2
 309 0 l 1
 371 0 l 1
 371 292 l 2
EndSplineSet
EndChar
StartChar: 19
Encoding: 65560 -1
Width: 1240
Flags: HW
Fore
1126 225 m 2
 1126 50 l 1
 864 50 l 1
 864 213 l 2
 864 337.667 910 400 1002 400 c 0
 1062.67 400 1101.33 367 1118 301 c 0
 1123.33 280.333 1126 255 1126 225 c 2
341 349 m 1
 377.667 313.667 402 268.667 414 214 c 1
 417 170 l 1
 419 138 411.667 109 395 83 c 0
 381 61 359 50 329 50 c 0
 301.667 50 281 64.6667 267 94 c 0
 255.667 116.667 250 143.333 250 174 c 0
 250 187.333 250.667 195.667 252 199 c 1
 254 213 l 2
 261.333 263.667 290.333 309 341 349 c 1
539 0 m 1
 1189 0 l 1
 1189 238 l 2
 1189 301.333 1175 351.333 1147 388 c 0
 1115.67 428.667 1067.33 449.333 1002 450 c 0
 904 450.667 841.667 408.667 815 324 c 0
 806.333 296.667 802 263.667 802 225 c 2
 802 50 l 1
 626 50 l 1
 654.667 78.6667 669.333 129 670 201 c 0
 670.667 266.333 655.333 322.333 624 369 c 0
 588 423 534.667 450 464 450 c 0
 418.667 450 381.333 437.333 352 412 c 1
 342 422.667 324.333 432 299 440 c 0
 277 446.667 257 450 239 450 c 0
 173.667 450.667 121 424.667 81 372 c 0
 45 324 26.6667 266.333 26 199 c 0
 25.3333 118.333 54.6667 52 114 0 c 1
 151 38 l 1
 131 55.3333 115.333 79.6667 104 111 c 0
 94 138.333 88.6667 169 88 203 c 0
 87.3333 255 99.3333 299.333 124 336 c 0
 151.333 378 190 399.333 240 400 c 0
 250 400 259.667 397.333 269 392 c 1
 289 375 l 1
 225 337 193 274.333 193 187 c 0
 193 138.333 203 97 223 63 c 0
 247 22.3333 281.667 1.66667 327 1 c 0
 377.667 0.333333 416.333 19.3333 443 58 c 0
 466.333 91.3333 478.333 134.667 479 188 c 0
 479.667 216.667 471.333 249.667 454 287 c 0
 440.667 317 419 346.333 389 375 c 1
 389 379.667 394.667 385.333 406 392 c 1
 414 394.667 420.5 396.5 425.5 397.5 c 0
 430.5 398.5 439.333 399.333 452 400 c 0
 500.667 400 540 379.667 570 339 c 0
 596.667 302.333 610 258.667 610 208 c 0
 610 178.667 604 148.167 592 116.5 c 0
 580 84.8333 562.333 58.6667 539 38 c 1
 539 0 l 1
EndSplineSet
EndChar
StartChar: 20
Encoding: 65561 -1
Width: 484
Flags: HW
Fore
347 25 m 1
 369.667 25 387.667 36 401 58 c 0
 413 76.6667 419 98 419 122 c 0
 419 157.333 406 186.333 380 209 c 0
 348.667 236.333 300.333 250 235 250 c 2
 189 250 l 2
 170.333 250 159.333 250.333 156 251 c 0
 146 251 138.667 252.333 134 255 c 1
 104 261 89 276 89 300 c 0
 89 366.667 133.667 400 223 400 c 0
 275.667 400 329.667 379.333 385 338 c 1
 410 375 l 1
 391.333 395.667 366.333 413.167 335 427.5 c 0
 303.667 441.833 266.333 449.333 223 450 c 0
 167 450.667 122 440 88 418 c 0
 47.3333 392.667 27 353.333 27 300 c 0
 27 245.333 55.6667 211.667 113 199 c 1
 273 193 l 2
 331 191 360 168.333 360 125 c 0
 360 75 315.667 50 227 50 c 2
 27 50 l 1
 27 0 l 1
 239 0 l 2
 265 0 288.333 -4 309 -12 c 0
 336.333 -23.3333 350 -40.3333 350 -63 c 0
 350 -89 332 -108.333 296 -121 c 0
 270.667 -130.333 242 -135.333 210 -136 c 1
 118 -115 l 2
 110 -113 94.3333 -107 71 -97 c 0
 55.6667 -90.3333 41 -82.6667 27 -74 c 1
 27 -124 l 1
 45 -142 75.6667 -157.333 119 -170 c 0
 156.333 -180 190.667 -185.333 222 -186 c 0
 268 -186.667 308.667 -178 344 -160 c 0
 388 -138 410.333 -106.333 411 -65 c 0
 411.667 -27 390.333 3 347 25 c 1
EndSplineSet
EndChar
StartChar: 21
Encoding: 65562 -1
Width: 865
Flags: HW
Fore
683 359 m 1
 723.667 318.333 748.333 274.333 757 227 c 1
 761 178 l 1
 763.667 143.333 757 112 741 84 c 0
 728.333 62 708.333 50.3333 681 49 c 1
 668 50 l 2
 620.667 53.3333 596.667 89 596 157 c 0
 595.333 195 604.5 236 623.5 280 c 0
 642.5 324 662.333 350.333 683 359 c 1
333 357 m 1
 371.667 320.333 395.667 276.667 405 226 c 1
 409 176 l 2
 411.667 142.667 404 112.333 386 85 c 0
 370.667 62.3333 348.333 50.6667 319 50 c 0
 291.667 49.3333 271.333 64 258 94 c 0
 248 115.333 242.667 141.667 242 173 c 0
 242 187 243.333 201.667 246 217 c 0
 255.333 264.333 272.667 300.667 298 326 c 0
 308.667 336.667 320.333 347 333 357 c 1
394 383 m 1
 430 393.667 465 399.333 499 400 c 0
 538.333 400.667 582.333 395 631 383 c 1
 601.667 362.333 579 331 563 289 c 0
 548.333 252.333 541 214 541 174 c 0
 541 126 550 86.6667 568 56 c 0
 590 19.3333 623.333 0.666667 668 0 c 0
 717.333 -0.666667 756 17.6667 784 55 c 0
 808 87 820.333 129.333 821 182 c 0
 821.667 222.667 813.833 262.833 797.5 302.5 c 0
 781.167 342.167 758.333 374.667 729 400 c 1
 739.667 410.667 749.167 426 757.5 446 c 0
 765.833 466 770 483.667 770 499 c 0
 770 537 758.833 567.333 736.5 590 c 0
 714.167 612.667 684 624.333 646 625 c 0
 619.333 625.667 595.667 620 575 608 c 1
 552.333 598 534.667 582.333 522 561 c 1
 546 523 l 1
 554.667 533.667 568.667 545.333 588 558 c 1
 607.333 568 626.667 573.333 646 574 c 0
 662 574.667 676.667 566 690 548 c 0
 701.333 532 707.333 515.667 708 499 c 0
 708.667 489 703.333 475 692 457 c 0
 686 447 677.667 436.333 667 425 c 1
 619 443 566 452 508 452 c 0
 446 452 391.333 441.667 344 421 c 1
 320 439.667 286.667 449.333 244 450 c 0
 182.667 450.667 131.167 431.833 89.5 393.5 c 0
 47.8333 355.167 24.3333 305.333 19 244 c 2
 17 222 l 1
 17 205 l 2
 17 163.667 26 126 44 92 c 0
 56.6667 68 81.6667 37.3333 119 0 c 1
 156 38 l 1
 102 76 74.6667 131 74 203 c 0
 73.3333 251.667 86.6667 295.667 114 335 c 0
 144.667 379 183.333 401 230 401 c 0
 252.667 401 274 395.333 294 384 c 1
 258 356 232 329 216 303 c 0
 196 270.333 185.667 233.333 185 192 c 0
 184.333 143.333 194 101 214 65 c 0
 238.667 22.3333 273.667 0.666667 319 0 c 0
 370.333 -0.666667 409.333 19.3333 436 60 c 0
 458.667 94 470.333 138 471 192 c 1
 466.333 246.667 458.5 286.333 447.5 311 c 0
 436.5 335.667 418.667 359.667 394 383 c 1
EndSplineSet
EndChar
StartChar: 22
Encoding: 65563 -1
Width: 856
Flags: HW
Fore
84 187 m 2
 84 239 87.3333 278 94 304 c 0
 107.333 351.333 133 375 171 375 c 0
 192.333 375 209 367.333 221 352 c 0
 233 336.667 239.333 318 240 296 c 0
 240.667 254 224 207.667 190 157 c 0
 158.667 110.333 123.333 74.6667 84 50 c 1
 84 187 l 2
247 400 m 1
 295 400 330.667 382 354 346 c 0
 374 315.333 384 275 384 225 c 2
 384 50 l 1
 159 50 l 1
 198.333 82.6667 231.667 118.667 259 158 c 0
 292.333 206 309.333 251 310 293 c 0
 310.667 320.333 301.667 345.333 283 368 c 0
 273.667 380 261.667 390.667 247 400 c 1
446 187 m 2
 446 246.333 451 290 461 318 c 0
 474.333 356 498.667 375 534 375 c 0
 555.333 375 572 367.333 584 352 c 0
 596 336.667 602.333 318 603 296 c 0
 603.667 253.333 586.667 206.667 552 156 c 0
 521.333 110.667 486 75.3333 446 50 c 1
 446 187 l 2
809 0 m 1
 809 225 l 2
 809 338.333 767.333 409 684 437 c 0
 660 445 630.667 449.333 596 450 c 0
 510 451.333 449.667 422 415 362 c 1
 399 392 375 414 343 428 c 0
 309 442.667 272.667 450 234 450 c 0
 165.333 450 112.833 430 76.5 390 c 0
 40.1667 350 22 295 22 225 c 2
 22 0 l 1
 809 0 l 1
521 50 m 1
 560.333 80.6667 594 116.667 622 158 c 0
 655.333 206.667 672.333 251.667 673 293 c 0
 673.667 336.333 652.333 372 609 400 c 1
 657 400 692.667 382 716 346 c 0
 736 315.333 746 275 746 225 c 2
 746 50 l 1
 521 50 l 1
EndSplineSet
EndChar
StartChar: 23
Encoding: 65564 -1
Width: 744
Flags: HW
Fore
293 -186 m 1
 605 -36 l 1
 605 -186 l 1
 293 -186 l 1
118 -236 m 1
 668 -236 l 1
 668 450 l 1
 605 450 l 1
 605 50 l 1
 318 50 l 1
 346.667 74 361 106.333 361 147 c 0
 361 188.333 347.5 222.167 320.5 248.5 c 0
 293.5 274.833 259.333 288 218 288 c 0
 178.667 288 145.333 275 118 249 c 0
 90.6667 223 77 190.333 77 151 c 2
 77 135 l 1
 81 113 l 1
 143 113 l 1
 139 142 l 1
 139 168.667 145.333 190.667 158 208 c 0
 172 228 192 238 218 238 c 0
 240.667 238 258.833 229.667 272.5 213 c 0
 286.167 196.333 293 176.333 293 153 c 0
 293 100.333 268 66 218 50 c 1
 6 50 l 1
 6 0 l 1
 593 0 l 1
 118 -224 l 1
 118 -236 l 1
EndSplineSet
EndChar
StartChar: 24
Encoding: 65565 -1
Width: 591
Flags: HW
Fore
132 -286 m 0
 110 -286 89 -272 69 -244 c 0
 50.3333 -218 40.6667 -193.333 40 -170 c 0
 39.3333 -140 57.3333 -124.667 94 -124 c 0
 120 -123.333 140.5 -131.5 155.5 -148.5 c 0
 170.5 -165.5 178.333 -187.333 179 -214 c 0
 179.667 -231.333 176.333 -247 169 -261 c 0
 160.333 -277.667 148 -286 132 -286 c 0
419 -49 m 1
 439 -59 455.333 -79.3333 468 -110 c 0
 478.667 -136.667 484.333 -162.667 485 -188 c 0
 485.667 -212.667 480.667 -234.167 470 -252.5 c 0
 459.333 -270.833 442.333 -282 419 -286 c 1
 387 -286 365.667 -274.667 355 -252 c 0
 347.667 -236.667 344 -210.667 344 -174 c 0
 344 -127.333 331.5 -90.3333 306.5 -63 c 0
 281.5 -35.6667 246 -21.6667 200 -21 c 0
 148 -20.3333 105.5 -36.5 72.5 -69.5 c 0
 39.5 -102.5 22.6667 -144.667 22 -196 c 0
 21.3333 -231.333 30.8333 -261.167 50.5 -285.5 c 0
 70.1667 -309.833 97.3333 -322.333 132 -323 c 0
 160 -323.667 183.167 -312.5 201.5 -289.5 c 0
 219.833 -266.5 229 -239.667 229 -209 c 0
 229 -177 220.333 -150.333 203 -129 c 0
 183.667 -105.667 155.667 -91.3333 119 -86 c 1
 132.333 -64 154.333 -53 185 -53 c 0
 217.667 -53 244.333 -65 265 -89 c 0
 283.667 -111.667 293.333 -139.667 294 -173 c 0
 295.333 -271.667 337 -321.667 419 -323 c 0
 456.333 -323.667 484.333 -309 503 -279 c 0
 519 -254.333 527.333 -222.333 528 -183 c 0
 528.667 -148.333 522.333 -115.333 509 -84 c 0
 493.667 -47.3333 472 -23 444 -11 c 1
 419 -49 l 1
140 188 m 2
 140 241.333 143.333 280.333 150 305 c 0
 163.333 351 189.333 374.333 228 375 c 0
 250 375.667 267 368.5 279 353.5 c 0
 291 338.5 297 319.667 297 297 c 0
 297 253 280 206.333 246 157 c 0
 216 113 180.667 77.3333 140 50 c 1
 140 188 l 2
290 450 m 0
 226.667 450.667 177.333 435.333 142 404 c 0
 99.3333 366 78 306.333 78 225 c 2
 78 0 l 1
 503 0 l 1
 503 225 l 2
 503 338.333 461.333 409 378 437 c 0
 353.333 445 324 449.333 290 450 c 0
215 50 m 1
 255 82.6667 288.333 118.333 315 157 c 0
 348.333 205.667 365.667 251 367 293 c 0
 368.333 335.667 347 371.333 303 400 c 1
 351 400 386.667 382 410 346 c 0
 430 315.333 440 275 440 225 c 2
 440 50 l 1
 215 50 l 1
EndSplineSet
EndChar
StartChar: 25
Encoding: 65566 -1
Width: 812
Flags: HW
Fore
633 353 m 1
 646 356 l 1
 665.333 356 679.667 336 689 296 c 0
 695.667 269.333 699 242.333 699 215 c 0
 699 176.333 694 142.667 684 114 c 0
 670 72.6667 647.333 51.6667 616 51 c 0
 571.333 50.3333 548.667 84.3333 548 153 c 0
 547.333 187.667 554.333 224.667 569 264 c 0
 585.667 309.333 607 339 633 353 c 1
379 289 m 2
 379 323 393.333 350.333 422 371 c 0
 447.333 389 477.667 398.333 513 399 c 0
 529 399 541.333 397.667 550 395 c 0
 567.333 391 580.667 385 590 377 c 1
 557.333 357.667 531.667 325.667 513 281 c 0
 497.667 242.333 489.667 201.667 489 159 c 0
 488.333 114.333 498 78 518 50 c 0
 540.667 18 573.333 1.66667 616 1 c 0
 666 0.333333 704.667 18 732 54 c 0
 756 86.6667 768 128.667 768 180 c 0
 768 269.333 738 339 678 389 c 1
 687.333 398.333 696.667 414.167 706 436.5 c 0
 715.333 458.833 720 476.667 720 490 c 0
 720.667 527.333 708.667 559.333 684 586 c 0
 659.333 612.667 628.333 626 591 626 c 0
 540.333 626 500.333 601 471 551 c 1
 495 513 l 1
 535 554 l 1
 554.333 568.667 573 576 591 576 c 0
 608.333 576 624.5 565.833 639.5 545.5 c 0
 654.5 525.167 660.667 506.333 658 489 c 1
 650 463 l 2
 646.667 452.333 639.333 436 628 414 c 1
 596 436 554 447.333 502 448 c 0
 469.333 448.667 438.5 443.333 409.5 432 c 0
 380.5 420.667 357.667 402.667 341 378 c 1
 315 426 273.333 450.333 216 451 c 0
 152.667 451.667 102 426 64 374 c 0
 30 328 12.6667 272 12 206 c 0
 11.3333 168 19 129.333 35 90 c 0
 49.6667 54 72.3333 24.3333 103 1 c 1
 153 26 l 1
 101 61.3333 74.6667 121 74 205 c 0
 73.3333 254.333 84.3333 297.667 107 335 c 0
 133 379 169.333 401.333 216 402 c 0
 247.333 402.667 272.333 391.667 291 369 c 0
 307.667 348.333 316 322 316 290 c 2
 316 1 l 1
 379 1 l 1
 379 289 l 2
EndSplineSet
EndChar
StartChar: 26
Encoding: 65567 -1
Width: 718
Flags: HW
Fore
461 -49 m 1
 481 -59 497.333 -79.3333 510 -110 c 0
 520.667 -136.667 526.333 -162.667 527 -188 c 0
 527.667 -212.667 522.667 -234.167 512 -252.5 c 0
 501.333 -270.833 484.333 -282 461 -286 c 1
 429 -286 407.667 -274.667 397 -252 c 0
 389.667 -236.667 386 -210.667 386 -174 c 0
 386 -127.333 373.5 -90.3333 348.5 -63 c 0
 323.5 -35.6667 288 -21.6667 242 -21 c 0
 190 -20.3333 147.5 -36.5 114.5 -69.5 c 0
 81.5 -102.5 64.6667 -144.667 64 -196 c 0
 63.3333 -231.333 72.8333 -261.167 92.5 -285.5 c 0
 112.167 -309.833 139.333 -322.333 174 -323 c 0
 202 -323.667 225.167 -312.5 243.5 -289.5 c 0
 261.833 -266.5 271 -239.667 271 -209 c 0
 271 -177 262.333 -150.333 245 -129 c 0
 225.667 -105.667 197.667 -91.3333 161 -86 c 1
 174.333 -64 196.333 -53 227 -53 c 0
 259.667 -53 286.333 -65 307 -89 c 0
 325.667 -111.667 335.333 -139.667 336 -173 c 0
 337.333 -271.667 379 -321.667 461 -323 c 0
 498.333 -323.667 526.333 -309 545 -279 c 0
 561 -254.333 569.333 -222.333 570 -183 c 0
 570.667 -148.333 564.333 -115.333 551 -84 c 0
 535.667 -47.3333 514 -23 486 -11 c 1
 461 -49 l 1
174 -286 m 0
 152 -286 131 -272 111 -244 c 0
 92.3333 -218 82.6667 -193.333 82 -170 c 0
 81.3333 -140 99.3333 -124.667 136 -124 c 0
 162 -123.333 182.5 -131.5 197.5 -148.5 c 0
 212.5 -165.5 220.333 -187.333 221 -214 c 0
 221.667 -231.333 218.333 -247 211 -261 c 0
 202.333 -277.667 190 -286 174 -286 c 0
649 0 m 1
 649 450 l 1
 586 450 l 1
 586 50 l 1
 337 50 l 1
 351 75.3333 358.333 102 359 130 c 0
 359.667 172.667 344.667 212 314 248 c 0
 285.333 282 248 299.333 202 300 c 0
 147.333 300.667 103.333 288.333 70 263 c 0
 32.6667 235 14 194.667 14 142 c 0
 14 111.333 21 82.6667 35 56 c 0
 50.3333 26 71.6667 7.33333 99 0 c 1
 124 38 l 1
 91.3333 62 74.6667 96 74 140 c 0
 73.3333 174 84.3333 201 107 221 c 0
 127.667 239.667 155.333 249.333 190 250 c 0
 222 250.667 248 240 268 218 c 0
 288 196 298.333 169 299 137 c 0
 299.667 89 279 60 237 50 c 1
 237 0 l 1
 649 0 l 1
EndSplineSet
EndChar
StartChar: 27
Encoding: 65568 -1
Width: 663
Flags: HW
Fore
471 -49 m 1
 491 -59 507.333 -79.3333 520 -110 c 0
 530.667 -136.667 536.333 -162.667 537 -188 c 0
 537.667 -212.667 532.667 -234.167 522 -252.5 c 0
 511.333 -270.833 494.333 -282 471 -286 c 1
 439 -286 417.667 -274.667 407 -252 c 0
 399.667 -236.667 396 -210.667 396 -174 c 0
 396 -127.333 383.5 -90.3333 358.5 -63 c 0
 333.5 -35.6667 298 -21.6667 252 -21 c 0
 200 -20.3333 157.5 -36.5 124.5 -69.5 c 0
 91.5 -102.5 74.6667 -144.667 74 -196 c 0
 73.3333 -231.333 82.8333 -261.167 102.5 -285.5 c 0
 122.167 -309.833 149.333 -322.333 184 -323 c 0
 212 -323.667 235.167 -312.5 253.5 -289.5 c 0
 271.833 -266.5 281 -239.667 281 -209 c 0
 281 -177 272.333 -150.333 255 -129 c 0
 235.667 -105.667 207.667 -91.3333 171 -86 c 1
 184.333 -64 206.333 -53 237 -53 c 0
 269.667 -53 296.333 -65 317 -89 c 0
 335.667 -111.667 345.333 -139.667 346 -173 c 0
 347.333 -271.667 389 -321.667 471 -323 c 0
 508.333 -323.667 536.333 -309 555 -279 c 0
 571 -254.333 579.333 -222.333 580 -183 c 0
 580.667 -148.333 574.333 -115.333 561 -84 c 0
 545.667 -47.3333 524 -23 496 -11 c 1
 471 -49 l 1
184 -286 m 0
 162 -286 141 -272 121 -244 c 0
 102.333 -218 92.6667 -193.333 92 -170 c 0
 91.3333 -140 109.333 -124.667 146 -124 c 0
 172 -123.333 192.5 -131.5 207.5 -148.5 c 0
 222.5 -165.5 230.333 -187.333 231 -214 c 0
 231.667 -231.333 228.333 -247 221 -261 c 0
 212.333 -277.667 200 -286 184 -286 c 0
484 0 m 1
 526.667 13.3333 560 47 584 101 c 0
 604 145.667 614.333 193.333 615 244 c 0
 615.667 302.667 602.667 350.333 576 387 c 0
 546 429 502.667 450 446 450 c 0
 383.333 450 340 429.333 316 388 c 0
 300 360 290.333 314 287 250 c 0
 283.667 176.667 279 130.333 273 111 c 0
 260.333 71 234.667 50.6667 196 50 c 0
 158.667 49.3333 129.667 67.3333 109 104 c 0
 92.3333 133.333 84 168.333 84 209 c 0
 84 314.333 121.333 386.333 196 425 c 1
 147 450 l 1
 107.667 422.667 76.8333 385.833 54.5 339.5 c 0
 32.1667 293.167 21 245.333 21 196 c 0
 21 138 35.3333 91.6667 64 57 c 0
 95.3333 19.6667 139.333 0.666667 196 0 c 0
 256 -0.666667 297.333 22 320 68 c 0
 336.667 102 345.333 162.667 346 250 c 0
 346.667 349.333 380 399.333 446 400 c 0
 484 400.667 512.333 384.333 531 351 c 0
 546.333 323.667 554 289.667 554 249 c 0
 554 206.333 545.667 165.333 529 126 c 0
 509 80 481.333 50.6667 446 38 c 1
 484 0 l 1
EndSplineSet
EndChar
StartChar: 28
Encoding: 65569 -1
Width: 856
Flags: HW
Fore
624 263 m 2
 586 263 553.833 251.5 527.5 228.5 c 0
 501.167 205.5 487.667 175.333 487 138 c 0
 486.333 98.6667 497.333 66.1667 520 40.5 c 0
 542.667 14.8333 573.333 1.66667 612 1 c 0
 662 0.333333 700.667 18 728 54 c 0
 752 86.6667 764 128.667 764 180 c 2
 764 196 l 1
 762 213 l 1
 824 213 l 1
 824 263 l 1
 752 263 l 1
 746.667 286.333 736.333 310 721 334 c 0
 705.667 358 690 376.333 674 389 c 1
 654.667 408.333 627.667 423.667 593 435 c 0
 562.333 445 531.667 450 501 450 c 0
 428.333 450 375.667 426.333 343 379 c 1
 318.333 426.333 278.667 450 224 450 c 0
 161.333 450 109.667 423.667 69 371 c 0
 33 324.333 14.6667 266 14 196 c 0
 13.3333 108.667 42 43.6667 100 1 c 1
 155 28 l 1
 104.333 61.3333 78.6667 119 78 201 c 0
 77.3333 251 88.6667 295 112 333 c 0
 139.333 377.667 176.667 400 224 400 c 0
 282.667 400 312 362.667 312 288 c 2
 312 1 l 1
 375 1 l 1
 375 288 l 2
 375 324 387.5 351.5 412.5 370.5 c 0
 437.5 389.5 468.667 399.333 506 400 c 0
 527.333 400.667 551.333 396.333 578 387 c 0
 601.333 379 621 367 637 351 c 1
 655.667 338.333 673 309 689 263 c 1
 624 263 l 2
612 213 m 2
 699 213 l 1
 701 178 l 2
 703 144.667 696.333 115 681 89 c 0
 665.667 63 642.667 50 612 50 c 0
 571.333 50 550.333 79.3333 549 138 c 0
 548.333 156.667 554.167 173.833 566.5 189.5 c 0
 578.833 205.167 594 213 612 213 c 2
EndSplineSet
EndChar
StartChar: 29
Encoding: 65570 -1
Width: 1018
Flags: HW
Fore
561 -286 m 0
 539 -286 518 -272 498 -244 c 0
 479.333 -218 469.667 -193.333 469 -170 c 0
 468.333 -140 486.333 -124.667 523 -124 c 0
 549 -123.333 569.5 -131.5 584.5 -148.5 c 0
 599.5 -165.5 607.333 -187.333 608 -214 c 0
 608.667 -231.333 605.333 -247 598 -261 c 0
 589.333 -277.667 577 -286 561 -286 c 0
848 -49 m 1
 868 -59 884.333 -79.3333 897 -110 c 0
 907.667 -136.667 913.333 -162.667 914 -188 c 0
 914.667 -212.667 909.667 -234.167 899 -252.5 c 0
 888.333 -270.833 871.333 -282 848 -286 c 1
 816 -286 794.667 -274.667 784 -252 c 0
 776.667 -236.667 773 -210.667 773 -174 c 0
 773 -128 760.333 -91.1667 735 -63.5 c 0
 709.667 -35.8333 674.333 -21.6667 629 -21 c 0
 577 -20.3333 534.5 -36.5 501.5 -69.5 c 0
 468.5 -102.5 451.667 -144.667 451 -196 c 0
 450.333 -232.667 459.5 -263 478.5 -287 c 0
 497.5 -311 525 -323 561 -323 c 0
 590.333 -323 614.333 -311 633 -287 c 0
 649.667 -265 658 -239 658 -209 c 0
 658 -177 649.333 -150.333 632 -129 c 0
 612.667 -105.667 584.667 -91.3333 548 -86 c 1
 561.333 -64 583.333 -53 614 -53 c 0
 646.667 -53 673.333 -65 694 -89 c 0
 712.667 -111.667 722.333 -139.667 723 -173 c 0
 724.333 -271.667 766 -321.667 848 -323 c 0
 885.333 -323.667 913.333 -309 932 -279 c 0
 948 -254.333 956.333 -222.333 957 -183 c 0
 957.667 -148.333 951.333 -115.333 938 -84 c 0
 922.667 -47.3333 901 -23 873 -11 c 1
 848 -49 l 1
154 213 m 0
 173.333 213.667 190.5 206.167 205.5 190.5 c 0
 220.5 174.833 228.333 157.333 229 138 c 0
 230.333 81.3333 205.333 52.3333 154 51 c 0
 131.333 50.3333 113.333 59.6667 100 79 c 0
 86.6667 98.3333 79.6667 118 79 138 c 0
 78.3333 160 85.1667 177.833 99.5 191.5 c 0
 113.833 205.167 132 212.333 154 213 c 0
542 450 m 0
 488.667 450.667 442.667 425.667 404 375 c 1
 380 403 353 423.333 323 436 c 0
 301.667 445.333 274.667 450 242 450 c 0
 172.667 450.667 116 422.333 72 365 c 0
 32 313 11.6667 251.333 11 180 c 0
 10.3333 130.667 21.3333 89.3333 44 56 c 0
 70 18.6667 106.667 1.73472e-18 154 0 c 0
 198 0 232.667 13.6667 258 41 c 0
 280 65 291.333 95 292 131 c 0
 292.667 168.333 281.333 199.5 258 224.5 c 0
 234.667 249.5 204.333 262.333 167 263 c 0
 119.667 263.667 86.3333 247 67 213 c 1
 67 264.333 83.3333 308.167 116 344.5 c 0
 148.667 380.833 190.667 399.333 242 400 c 0
 277.333 400.667 306.167 390.167 328.5 368.5 c 0
 350.833 346.833 362 320 362 288 c 2
 362 0 l 1
 424 0 l 1
 424 288 l 2
 424 326 439.333 355.333 470 376 c 0
 494 392 522 400 554 400 c 0
 584 400 608.333 375.667 627 327 c 0
 642.333 288.333 650 251.333 650 216 c 0
 650 132.667 618 77.6667 554 51 c 1
 554 1 l 1
 949 0 l 1
 949 450 l 1
 887 450 l 1
 887 50 l 1
 654 51 l 1
 695.333 99 716.333 159.333 717 232 c 0
 717.667 290 703.333 339.333 674 380 c 0
 642 426 598 449.333 542 450 c 0
EndSplineSet
EndChar
StartChar: 30
Encoding: 65571 -1
Width: 1077
Flags: HW
Fore
249 263 m 1
 249 355 278.333 401 337 401 c 0
 370.333 401 396 386 414 356 c 0
 427.333 332.667 434.667 301.667 436 263 c 1
 249 263 l 1
349 52 m 0
 309 51.3333 281 69.3333 265 106 c 0
 255 130 249.667 166 249 214 c 1
 436 214 l 1
 436 164 432.667 129 426 109 c 0
 413.333 71.6667 387.667 52.6667 349 52 c 0
137 52 m 1
 116.333 52 100.333 59 89 73 c 0
 77.6667 87 71.6667 105.333 71 128 c 0
 70.3333 149.333 76 168 88 184 c 0
 100 200 116.333 210 137 214 c 1
 187 214 l 1
 191 128 l 1
 191.667 108 188.333 90.6667 181 76 c 0
 175 64 160.333 56 137 52 c 1
636 213 m 1
 724 213 l 2
 746.667 213 764.667 205.833 778 191.5 c 0
 791.333 177.167 798 158.667 798 136 c 0
 798 85.3333 773.333 57 724 51 c 1
 692 55 667.333 68 650 90 c 1
 636 112 629.667 136 631 162 c 1
 632 187 l 1
 636 213 l 1
724 263 m 2
 649 263 l 1
 679.667 353.667 734 399.333 812 400 c 0
 862 400.667 900.667 379.667 928 337 c 0
 952 301 964.333 256.667 965 204 c 0
 965.667 123.333 939.333 64 886 26 c 1
 936 1 l 1
 996.667 57.6667 1027 128.667 1027 214 c 0
 1027 280.667 1008.33 336 971 380 c 0
 931 426.667 878 450 812 450 c 0
 750 450 701 433.667 665 401 c 0
 635 373.667 608.667 328 586 264 c 1
 499 263 l 1
 499 315 487.333 358 464 392 c 0
 436.667 431.333 398.333 451 349 451 c 0
 295.667 451 254.667 432.333 226 395 c 0
 200 361.667 187 317.667 187 263 c 1
 137 263 l 2
 97.6667 263 67.1667 250.167 45.5 224.5 c 0
 23.8333 198.833 12.6667 166 12 126 c 0
 11.3333 92 21.5 62.8333 42.5 38.5 c 0
 63.5 14.1667 90.6667 2 124 2 c 0
 156.667 2 181.333 7 198 17 c 0
 207.333 22.3333 216 34 224 52 c 1
 244.667 18.6667 286.333 2 349 2 c 0
 449 2 499 72.3333 499 213 c 1
 574 214 l 1
 573 196 l 1
 573 182 l 2
 573 62.6667 623.333 2.33333 724 1 c 0
 763.333 0.333333 795.833 11.6667 821.5 35 c 0
 847.167 58.3333 860 89.3333 860 128 c 0
 860 168 847.333 200.5 822 225.5 c 0
 796.667 250.5 764 263 724 263 c 2
EndSplineSet
EndChar
StartChar: 31
Encoding: 65572 -1
Width: 807
Flags: HW
Fore
400 400 m 0
 431.333 400.667 458 379 480 335 c 0
 498 299 507.333 253.667 508 199 c 0
 508.667 166.333 504.333 137.333 495 112 c 0
 482.333 77.3333 462.333 59.6667 435 59 c 0
 425.667 59 414 62 400 68 c 0
 367.333 82.6667 341 109 321 147 c 0
 302.333 181.667 292.667 218.333 292 257 c 0
 291.333 295.667 299.333 328 316 354 c 0
 335.333 384 363.333 399.333 400 400 c 0
150 400 m 0
 200 400.667 261.333 370.333 334 309 c 0
 406.667 247.667 443 192.333 443 143 c 0
 443 120.333 433.667 101.333 415 86 c 0
 393.667 68.6667 363.667 58.6667 325 56 c 2
 280 53 l 2
 215.333 49 161.667 73 119 125 c 0
 87 164.333 71 213 71 271 c 0
 71 303 76.3333 330.667 87 354 c 0
 101 384 122 399.333 150 400 c 0
675 -237 m 1
 675 81 l 1
 723.667 128.333 748.333 186.333 749 255 c 0
 749 286.333 742.667 318.833 730 352.5 c 0
 717.333 386.167 697.667 418.667 671 450 c 1
 612 424 l 1
 660 380 684 326.333 684 263 c 0
 684 206.333 664.333 158.667 625 120 c 0
 582.333 78.6667 524 57.3333 450 56 c 1
 484.667 74 512.333 103.333 533 144 c 0
 552.333 181.333 562 221 562 263 c 0
 562 316.333 548.667 360 522 394 c 0
 492.667 431.333 452 450 400 450 c 1
 343.333 441.333 301.667 416 275 374 c 1
 243.667 424.667 202 450 150 450 c 0
 102.667 450 66 432.333 40 397 c 0
 18 365.667 6.66667 325.333 6 276 c 0
 5.33333 196 31.5 130 84.5 78 c 0
 137.5 26 204 0 284 0 c 2
 324 0 l 1
 331.333 1.33333 339.667 2.66667 349 4 c 0
 372.333 7.33333 389.333 11.6667 400 17 c 1
 443 5 l 1
 443 5 451 3.66667 467 1 c 0
 471.667 1 481.333 0.666667 496 0 c 0
 508.667 -0.666667 526 3 548 11 c 2
 601 30 l 1
 125 -224 l 1
 125 -237 l 1
 675 -237 l 1
612 -20 m 1
 612 -186 l 1
 300 -186 l 1
 612 -20 l 1
EndSplineSet
EndChar
StartChar: 32
Encoding: 65573 -1
Width: 1159
Flags: HW
Fore
971 353 m 1
 1008.33 319 1033 276 1045 224 c 1
 1049 177 l 2
 1051.67 144.333 1043.67 113.667 1025 85 c 0
 1010.33 62.3333 986.667 50.6667 954 50 c 0
 911.333 49.3333 889.333 85.6667 888 159 c 0
 887.333 194.333 894 230.333 908 267 c 0
 923.333 309.667 944.333 338.333 971 353 c 1
167 215 m 0
 186.333 215.667 203.5 208.167 218.5 192.5 c 0
 233.5 176.833 241.333 159.333 242 140 c 0
 243.333 81.3333 218.333 51.3333 167 50 c 0
 147 49.3333 128.667 59.3333 112 80 c 1
 99.3333 100 92.6667 120 92 140 c 0
 91.3333 162 98.1667 179.833 112.5 193.5 c 0
 126.833 207.167 145 214.333 167 215 c 0
917 377 m 1
 887 355.667 863.667 324.667 847 284 c 0
 833 248 825.667 209.667 825 169 c 0
 824.333 123 834 84.6667 854 54 c 0
 876.667 18 910 0 954 0 c 0
 1006 0 1045.67 18 1073 54 c 0
 1097.67 86 1110.33 128.667 1111 182 c 0
 1111.67 222.667 1103.5 262.5 1086.5 301.5 c 0
 1069.5 340.5 1047.67 370.333 1021 391 c 1
 1027.67 397.667 1035.67 410.667 1045 430 c 0
 1052.33 446 1057 466 1059 490 c 1
 1060 504 l 2
 1062 534 1051 562.333 1027 589 c 0
 1005 613 976.667 625 942 625 c 0
 882.667 625 836.667 600.667 804 552 c 1
 835 514 l 1
 870.333 554.667 906 575 942 575 c 0
 958 575 971.333 566.333 982 549 c 0
 991.333 535 996.333 519.333 997 502 c 1
 995 483 l 1
 986 459 l 1
 967 427 l 1
 923 441.667 884 449.333 850 450 c 0
 816.667 450.667 786.667 445 760 433 c 0
 736 422.333 717.333 403.667 704 377 c 1
 675.333 424.333 629.667 448.667 567 450 c 0
 506.333 451.333 456.333 427.333 417 378 c 1
 378.333 425.333 324 449.333 254 450 c 0
 180.667 450.667 121.333 422 76 364 c 0
 36 312.667 16 252.667 16 184 c 0
 16 132.667 28 90.3333 52 57 c 0
 79.3333 19.6667 117.667 0.666667 167 0 c 0
 207 -0.666667 239.833 12.3333 265.5 39 c 0
 291.167 65.6667 304.333 99.3333 305 140 c 0
 305.667 177.333 294.333 207.5 271 230.5 c 0
 247.667 253.5 217.333 265 180 265 c 0
 160.667 265 141.667 260.667 123 252 c 0
 102.333 242 87.6667 229.333 79 214 c 1
 79 265.333 95.5 309 128.5 345 c 0
 161.5 381 203.333 399.333 254 400 c 0
 288.667 400.667 318.333 391 343 371 c 0
 367.667 351 380 324 380 290 c 1
 379 0 l 1
 442 0 l 1
 442 290 l 2
 442 326 454.333 353.667 479 373 c 0
 501 390.333 530.333 399.333 567 400 c 0
 592.333 400.667 615.333 390 636 368 c 0
 656.667 346 667 320 667 290 c 2
 667 0 l 1
 729 0 l 1
 730 290 l 1
 730 323.333 739.667 349.833 759 369.5 c 0
 778.333 389.167 805 399.333 839 400 c 0
 855.667 400.667 875.667 396.333 899 387 c 0
 906.333 384.333 912.333 381 917 377 c 1
EndSplineSet
EndChar
StartChar: 33
Encoding: 65574 -1
Width: 1297
Flags: HW
Fore
758 -2 m 2
 768 -2 l 2
 810 -2 843.167 4.33333 867.5 17 c 0
 891.833 29.6667 914.667 53.3333 936 88 c 1
 940 61.3333 952.167 39.6667 972.5 23 c 0
 992.833 6.33333 1019 -2 1051 -2 c 0
 1117.67 -2.66667 1170.67 22.6667 1210 74 c 0
 1246.67 120.667 1265 178 1265 246 c 0
 1265 294.667 1255 339 1235 379 c 0
 1213.67 421.667 1183 454.333 1143 477 c 1
 1137 478 l 2
 1131 478 1123.33 472.5 1114 461.5 c 0
 1104.67 450.5 1101.67 443 1105 439 c 1
 1173.67 389.667 1208 329.333 1208 258 c 0
 1208 208.667 1194.33 165.333 1167 128 c 0
 1137 86.6667 1098.33 66 1051 66 c 0
 1027.67 66 1008.33 79 993 105 c 0
 979.667 127 973 150.667 973 176 c 2
 973 477 l 1
 896 477 l 1
 896 137 l 1
 889.333 115 874.5 97 851.5 83 c 0
 828.5 69 804.667 61.6667 780 61 c 0
 735.333 60.3333 704 78 686 114 c 0
 673.333 140 666.667 178.333 666 229 c 0
 665.333 297.667 657.667 351 643 389 c 0
 620.333 447.667 581.667 477 527 477 c 2
 520 477 l 2
 478 477 444.333 468.667 419 452 c 0
 393.667 435.333 370.667 408.333 350 371 c 1
 344 399.667 330.333 424.5 309 445.5 c 0
 287.667 466.5 262.667 477 234 477 c 0
 166 477.667 112.333 451.333 73 398 c 0
 37 350 19 291 19 221 c 0
 19 110.333 60.3333 30.6667 143 -18 c 0
 147.667 -20 153.167 -15.5 159.5 -4.5 c 0
 165.833 6.5 167 14.6667 163 20 c 1
 133 42.6667 111 71.3333 97 106 c 0
 83 140.667 75.6667 179 75 221 c 0
 74.3333 271.667 89.3333 317 120 357 c 0
 150 395 188 414 234 414 c 0
 256.667 414 276 398.667 292 368 c 0
 306 341.333 313 315.667 313 291 c 2
 313 -2 l 1
 389 -2 l 1
 389 312 l 1
 409 367.333 445.333 401.333 498 414 c 1
 511 415 l 2
 540.333 417 561.333 396.333 574 353 c 0
 582.667 323.667 587.333 277.667 588 215 c 0
 588.667 159 602.667 110.333 630 69 c 0
 662 21.6667 704.667 -2 758 -2 c 2
EndSplineSet
EndChar
StartChar: 34
Encoding: 65575 -1
Width: 1000
Flags: HW
Fore
366 292 m 2
 366 328 380.667 355.667 410 375 c 0
 434.667 391.667 466 400.333 504 401 c 1
 570.667 388.333 604 352.333 604 293 c 2
 604 0 l 1
 666 0 l 1
 666 293 l 2
 666 321 673.833 345.833 689.5 367.5 c 0
 705.167 389.167 726.667 400.333 754 401 c 0
 790.667 401.667 820.667 386.333 844 355 c 0
 867.333 323.667 879.333 285.667 880 241 c 0
 880.667 201.667 871.833 163.833 853.5 127.5 c 0
 835.167 91.1667 810.333 61 779 37 c 1
 829 1 l 1
 865.667 25 894 59.6667 914 105 c 0
 932.667 147 942 191.333 942 238 c 0
 942 297.333 927 346.333 897 385 c 0
 864.333 427.667 816.667 449.333 754 450 c 0
 701.333 450.667 659.667 426.667 629 378 c 1
 617 396.667 601.333 413.333 582 428 c 1
 558.667 442 532.667 449.333 504 450 c 0
 418 452 359.667 427.667 329 377 c 1
 303 425 261.333 449.333 204 450 c 0
 143.333 450.667 96 429.333 62 386 c 0
 31.3333 346.667 16 296 16 234 c 0
 16 135.333 53.6667 57.3333 129 0 c 1
 179 37 l 1
 147 57.6667 122.5 86 105.5 122 c 0
 88.5 158 79.6667 197.667 79 241 c 0
 78.3333 284.333 88 320.667 108 350 c 0
 130.667 383.333 162.667 400.333 204 401 c 0
 234 401.667 258.167 391.333 276.5 370 c 0
 294.833 348.667 304 322.667 304 292 c 2
 304 0 l 1
 366 0 l 1
 366 292 l 2
EndSplineSet
EndChar
StartChar: 35
Encoding: 65576 -1
Width: 779
Flags: HW
Fore
595 353 m 1
 615 333.667 631.333 312 644 288 c 0
 656.667 264 665 242 669 222 c 1
 673 174 l 2
 675.667 142 668.333 112.667 651 86 c 0
 637 64 614.333 53 583 53 c 0
 559 53 539.667 65 525 89 c 0
 508.333 115.667 501.333 145 504 177 c 1
 507 216 l 1
 517 268.667 546.333 314.333 595 353 c 1
190 413 m 1
 152 450 l 1
 62 396 17 314 17 204 c 0
 17 146 31 98.6667 59 62 c 0
 90.3333 21.3333 134 0.666667 190 0 c 0
 252.667 -0.666667 297 23.3333 323 72 c 0
 341.667 107.333 351.333 167.333 352 252 c 0
 352.667 350 398.667 399 490 399 c 0
 505.333 399 515 398.333 519 397 c 0
 525.667 397 538.333 394.667 557 390 c 1
 482.333 328.667 445 262 445 190 c 0
 445 65.3333 490.667 3 582 3 c 0
 633.333 3 672 22.3333 698 61 c 0
 720 93 731.333 136.333 732 191 c 0
 732.667 265 703.667 331.333 645 390 c 1
 652.333 397.333 659.667 409.333 667 426 c 0
 677 448 682 469.333 682 490 c 0
 682 528 669.833 560 645.5 586 c 0
 621.167 612 590 625 552 625 c 0
 501.333 625 461.667 600.667 433 552 c 1
 457 515 l 1
 469.667 530.333 483 543.333 497 554 c 0
 515 568 533.333 575 552 575 c 0
 568 575 583.167 565 597.5 545 c 0
 611.833 525 619.333 506.667 620 490 c 0
 620.667 470 617.667 455 611 445 c 1
 611 443 608 437 602 427 c 1
 559.333 441 520.333 448.333 485 449 c 0
 423.667 449.667 376.167 432.667 342.5 398 c 0
 308.833 363.333 291.667 315.333 291 254 c 0
 290.333 196.667 285.667 154 277 126 c 0
 261.667 76.6667 232.667 51.3333 190 50 c 1
 152.667 55.3333 124.833 72.5 106.5 101.5 c 0
 88.1667 130.5 78.6667 166 78 208 c 0
 77.3333 250 86.6667 289.667 106 327 c 0
 126 367 154 395.667 190 413 c 1
EndSplineSet
EndChar
StartChar: 36
Encoding: 65577 -1
Width: 1203
Flags: HW
Fore
164 212 m 0
 182 212 199 204 215 188 c 0
 231 172 239 155 239 137 c 0
 239 81 214 52.3333 164 51 c 0
 142.667 50.3333 125 59 111 77 c 0
 97 95 89.6667 115 89 137 c 0
 88.3333 158.333 95.5 176.167 110.5 190.5 c 0
 125.5 204.833 143.333 212 164 212 c 0
713 371 m 1
 731.667 371 741.333 350.667 742 310 c 0
 742.667 285.333 737.333 254.667 726 218 c 0
 712 173.333 695.333 150.667 676 150 c 0
 656.667 149.333 641.667 159.333 631 180 c 0
 622.333 196.667 617.667 215.667 617 237 c 0
 616.333 263 623.667 288 639 312 c 0
 659.667 346 684.333 365.667 713 371 c 1
1097 50 m 1
 901 50 l 1
 924.333 67.3333 942.667 95.6667 956 135 c 0
 967.333 168.333 973 202 973 236 c 0
 973 300.667 956.667 351.667 924 389 c 0
 889.333 429 840 449.333 776 450 c 0
 759.333 450 743.667 447.333 729 442 c 0
 727 442 721.667 440 713 436 c 0
 709 434.667 701 431 689 425 c 1
 649.667 441 603.667 449.333 551 450 c 0
 499 450.667 453.333 425.667 414 375 c 1
 375.333 424.333 321 449.333 251 450 c 0
 181 450.667 124.333 422.667 81 366 c 0
 42.3333 314 22.6667 252 22 180 c 0
 21.3333 130.667 32.3333 89.6667 55 57 c 0
 80.3333 20.3333 116.667 1.66667 164 1 c 0
 210.667 0.333333 246 13.6667 270 41 c 0
 290 63.6667 300.333 95.6667 301 137 c 0
 301.667 171.667 289.5 201.167 264.5 225.5 c 0
 239.5 249.833 210 262 176 262 c 0
 128 262 95 245.333 77 212 c 1
 77 262.667 93.5 306.5 126.5 343.5 c 0
 159.5 380.5 201 399.333 251 400 c 0
 287 400.667 316.167 390.167 338.5 368.5 c 0
 360.833 346.833 372 320 372 288 c 2
 372 0 l 1
 434 0 l 1
 434 288 l 2
 434 322.667 449.333 350.667 480 372 c 0
 505.333 390 533.333 399.333 564 400 c 0
 575.333 400 587.333 398 600 394 c 2
 632 383 l 1
 580 345 553.667 297 553 239 c 0
 552.333 203 563.833 171.167 587.5 143.5 c 0
 611.167 115.833 640.667 101.667 676 101 c 0
 717.333 100.333 750.333 112.5 775 137.5 c 0
 799.667 162.5 812 195.333 812 236 c 0
 812 292 787.667 342.333 739 387 c 1
 757 395 l 1
 776 400 l 1
 820 400 853.333 384.333 876 353 c 0
 896 325.667 906 289.333 906 244 c 0
 906 202.667 898 164.333 882 129 c 0
 862.667 87.6667 835.667 61.3333 801 50 c 1
 551 50 l 1
 551 0 l 1
 1159 0 l 1
 1159 450 l 1
 1097 450 l 1
 1097 50 l 1
EndSplineSet
EndChar
StartChar: 37
Encoding: 65578 -1
Width: 782
Flags: HW
Fore
372 188 m 2
 372 240.667 375.333 279.333 382 304 c 0
 394.667 350.667 420.333 374.333 459 375 c 0
 481 375.667 498 368.5 510 353.5 c 0
 522 338.5 528 319.667 528 297 c 0
 528 253.667 511 207 477 157 c 0
 447 111.667 412 76 372 50 c 1
 372 188 l 2
534 400 m 1
 582 400 618 382 642 346 c 0
 662 316 672 275.667 672 225 c 2
 672 50 l 1
 447 50 l 1
 486.333 82.6667 519.667 118.667 547 158 c 0
 580.333 206 597.333 251 598 293 c 0
 598.667 336.333 577.333 372 534 400 c 1
322 313 m 1
 318 296.333 313.667 272.333 309 241 c 1
 306 158 l 1
 307 77 l 1
 307 59.6667 307.667 34 309 0 c 1
 734 0 l 1
 734 225 l 2
 734 302.333 714.333 360 675 398 c 0
 640.333 432 589.333 449.333 522 450 c 0
 490 450 461 445.667 435 437 c 0
 398.333 424.333 369 403.667 347 375 c 1
 335.667 397 316.5 415 289.5 429 c 0
 262.5 443 235.667 450 209 450 c 0
 149 450.667 102 428.333 68 383 c 0
 37.3333 343 21.6667 292.333 21 231 c 0
 20.3333 130.333 58 53.3333 134 0 c 1
 186 27 l 1
 152.667 47 127 77.3333 109 118 c 0
 92.3333 154.667 84 194 84 236 c 0
 84 281.333 93.3333 318.667 112 348 c 0
 134 382.667 166.333 400 209 400 c 0
 244.333 400 272.667 390.333 294 371 c 0
 310.667 355.667 320 336.333 322 313 c 1
EndSplineSet
EndChar
StartChar: 38
Encoding: 65579 -1
Width: 728
Flags: HW
Fore
592 0 m 1
 592 -284 l 1
 417 -284 l 1
 427.667 -266 433.333 -245.333 434 -222 c 0
 434.667 -192 423.667 -163.667 401 -137 c 0
 379.667 -112.333 352.333 -99.6667 319 -99 c 0
 277.667 -98.3333 243.667 -109 217 -131 c 0
 188.333 -153.667 173.667 -185.333 173 -226 c 0
 172.333 -282.667 195.333 -315.333 242 -324 c 1
 261 -296 l 1
 233 -281.333 219 -256.333 219 -221 c 0
 219 -194.333 227.333 -173.667 244 -159 c 0
 260.667 -144.333 282.667 -137 310 -137 c 0
 333.333 -137 352.5 -145.333 367.5 -162 c 0
 382.5 -178.667 390.333 -198.667 391 -222 c 0
 391.667 -238 386.333 -253 375 -267 c 0
 368.333 -276.333 358.333 -283 345 -287 c 1
 345 -324 l 1
 654 -324 l 1
 654 450 l 1
 592 450 l 1
 592 50 l 1
 342 50 l 1
 356 75.3333 363.333 102.333 364 131 c 0
 364.667 175 349.667 214.667 319 250 c 0
 288.333 285.333 251.333 303 208 303 c 0
 152 303 106.667 288.333 72 259 c 0
 35.3333 228.333 16.6667 185.667 16 131 c 0
 15.3333 99.6667 22 71.6667 36 47 c 0
 52.6667 19 75.3333 3.33333 104 0 c 1
 129 40 l 1
 114.333 49.3333 102 63.3333 92 82 c 0
 90 87.3333 86.3333 97.6667 81 113 c 1
 81 118.333 80.3333 127 79 139 c 0
 79 173 89.6667 200.5 111 221.5 c 0
 132.333 242.5 160.333 253 195 253 c 0
 227 253 253 242.167 273 220.5 c 0
 293 198.833 303.333 172 304 140 c 0
 304.667 92 284 63 242 53 c 1
 242 0 l 1
 592 0 l 1
EndSplineSet
EndChar
StartChar: 39
Encoding: 65580 -1
Width: 742
Flags: HW
Fore
142 50 m 1
 121.333 50 105.333 57 94 71 c 0
 82.6667 85 76.6667 103.667 76 127 c 0
 75.3333 148.333 81 167 93 183 c 0
 105 199 121.333 209 142 213 c 1
 192 213 l 1
 196 127 l 1
 196.667 107.667 193 90.3333 185 75 c 0
 178.333 63 164 54.6667 142 50 c 1
354 50 m 0
 318.667 49.3333 293 63.3333 277 92 c 0
 263 116.667 255.333 157 254 213 c 1
 441 213 l 1
 441 163 437.667 127.667 431 107 c 0
 419 69.6667 393.333 50.6667 354 50 c 0
254 262 m 1
 254 354 283.333 400 342 400 c 0
 375.333 400 401 385 419 355 c 0
 432.333 331.667 439.667 300.667 441 262 c 1
 254 262 l 1
192 262 m 1
 142 262 l 2
 102.667 262 72.1667 249.167 50.5 223.5 c 0
 28.8333 197.833 17.6667 165 17 125 c 0
 16.3333 90.3333 26.3333 61.3333 47 38 c 0
 67.6667 12.6667 95 -8.67362e-19 129 0 c 0
 155.667 0 175.667 2.66667 189 8 c 0
 207 15.3333 220.333 29.3333 229 50 c 1
 251.667 16.6667 293.333 1.73472e-18 354 0 c 0
 454 0 504 71 504 213 c 1
 579 213 l 2
 599 213 615 203 627 183 c 0
 636.333 165.667 641 146.333 641 125 c 0
 641 106.333 635.167 89.1667 623.5 73.5 c 0
 611.833 57.8333 597 50 579 50 c 2
 566 50 l 2
 560 50 554 50.5 548 51.5 c 0
 542 52.5 535.667 56 529 62 c 1
 529 12 l 1
 579 0 l 1
 618.333 0 649 12 671 36 c 0
 693 60 704 94 704 138 c 0
 704 181.333 692.5 212.833 669.5 232.5 c 0
 646.5 252.167 612 262 566 262 c 2
 504 262 l 1
 504 314 492.333 357 469 391 c 0
 441.667 430.333 403.333 450 354 450 c 0
 300.667 450 259.667 431.333 231 394 c 0
 205 360.667 192 316.667 192 262 c 1
554 -49 m 1
 574 -59 590.333 -79.3333 603 -110 c 0
 613.667 -136.667 619.333 -162.667 620 -188 c 0
 620.667 -212.667 615.667 -234.167 605 -252.5 c 0
 594.333 -270.833 577.333 -282 554 -286 c 1
 522 -286 500.667 -274.667 490 -252 c 0
 482.667 -236.667 479 -210.667 479 -174 c 0
 479 -128 466.333 -91.1667 441 -63.5 c 0
 415.667 -35.8333 380.333 -21.6667 335 -21 c 0
 283 -20.3333 240.333 -36.3333 207 -69 c 0
 173.667 -101.667 156.667 -144 156 -196 c 0
 155.333 -231.333 164.833 -261.167 184.5 -285.5 c 0
 204.167 -309.833 231.333 -322.333 266 -323 c 0
 294 -323.667 317.167 -312.5 335.5 -289.5 c 0
 353.833 -266.5 363 -239.667 363 -209 c 0
 363 -159 342.333 -121.667 301 -97 c 0
 290.333 -91 274.667 -87.3333 254 -86 c 1
 267.333 -64 289.333 -53 320 -53 c 0
 352.667 -53 379.333 -65 400 -89 c 0
 418.667 -111.667 428.333 -139.667 429 -173 c 0
 430.333 -271.667 472 -321.667 554 -323 c 0
 591.333 -323.667 619.333 -309.333 638 -280 c 0
 653.333 -255.333 661.333 -223.333 662 -184 c 0
 662.667 -149.333 656.333 -116.333 643 -85 c 0
 627.667 -47.6667 606 -23 578 -11 c 1
 554 -49 l 1
229 -124 m 0
 232.333 -120.667 237.667 -118 245 -116 c 1
 257.667 -116 269 -128.333 279 -153 c 0
 289 -177.667 294.333 -204.333 295 -233 c 0
 295.667 -245.667 293.667 -257.167 289 -267.5 c 0
 284.333 -277.833 276.667 -284 266 -286 c 1
 248 -286 232.833 -277.333 220.5 -260 c 0
 208.167 -242.667 202 -221.333 202 -196 c 0
 202 -166 211 -142 229 -124 c 0
EndSplineSet
EndChar
StartChar: 40
Encoding: 65581 -1
Width: 989
Flags: HW
Fore
629 350 m 1
 665 317.333 689.333 272 702 214 c 1
 705 173 l 1
 707 141 699.667 111.667 683 85 c 0
 669 63 647.333 51.6667 618 51 c 0
 590.667 50.3333 569.667 64.6667 555 94 c 0
 543.667 116.667 538 143.333 538 174 c 0
 538 187.333 538.667 195.667 540 199 c 1
 542 213 l 2
 549.333 264.333 578.333 310 629 350 c 1
628 412 m 1
 610 426 578.333 437.667 533 447 c 0
 523 449 510 450 494 450 c 0
 410 450 354.667 425 328 375 c 1
 301.333 424.333 259.667 449.333 203 450 c 0
 143 450.667 96 428.667 62 384 c 0
 31.3333 344 15.6667 293.333 15 232 c 0
 14.3333 131.333 52 54 128 0 c 1
 178 25 l 1
 146.667 44.3333 122 73.3333 104 112 c 0
 87.3333 148.667 78.6667 189.667 78 235 c 0
 77.3333 279 86.6667 316.333 106 347 c 0
 128.667 382.333 161 400 203 400 c 0
 235 400 259.667 389.5 277 368.5 c 0
 294.333 347.5 303 320.667 303 288 c 2
 303 0 l 1
 365 0 l 1
 365 288 l 2
 365 327.333 376 356.333 398 375 c 0
 416.667 391 443 399.333 477 400 c 0
 505 400.667 538.333 392.333 577 375 c 1
 545.667 355.667 521.333 325.667 504 285 c 0
 488.667 249 480.667 210.667 480 170 c 0
 479.333 123.333 490 84.3333 512 53 c 0
 536.667 18.3333 571.333 0.666667 616 0 c 0
 665.333 -0.666667 703.667 16.3333 731 51 c 0
 755.667 82.3333 768.333 123.333 769 174 c 0
 769.667 212.667 762 249.667 746 285 c 0
 729.333 323 706.333 353 677 375 c 1
 684.333 381.667 694.667 388 708 394 c 0
 720 398 732 400 744 400 c 0
 788.667 400 826.667 379 858 337 c 0
 886.667 299 901.333 257 902 211 c 0
 902.667 180.333 896 149.167 882 117.5 c 0
 868 85.8333 846 55 816 25 c 1
 853 0 l 1
 919 44 952.333 112 953 204 c 0
 953.667 267.333 937 323 903 371 c 0
 865.667 423.667 816.333 450.333 755 451 c 0
 741 451 730.833 450.5 724.5 449.5 c 0
 718.167 448.5 708 445.667 694 441 c 0
 675.333 436.333 653.333 426.667 628 412 c 1
EndSplineSet
EndChar
StartChar: 41
Encoding: 65582 -1
Width: 750
Flags: HW
Fore
265 263 m 1
 265 354.333 294.333 400 353 400 c 0
 386.333 400 412 385 430 355 c 0
 443.333 331.667 450.667 301 452 263 c 1
 265 263 l 1
365 51 m 0
 329.667 50.3333 304 64.3333 288 93 c 0
 274 117.667 266.333 158 265 214 c 1
 452 214 l 1
 452 164 448.667 128.667 442 108 c 0
 430 70.6667 404.333 51.6667 365 51 c 0
153 51 m 1
 132.333 51 116.333 58 105 72 c 0
 93.6667 86 87.6667 104.667 87 128 c 0
 86.3333 149.333 92 168 104 184 c 0
 116 200 132.333 210 153 214 c 1
 203 214 l 1
 207 128 l 1
 207.667 108.667 204 91.3333 196 76 c 0
 189.333 64 175 55.6667 153 51 c 1
78 238 m 1
 45.3333 213.333 28.6667 176 28 126 c 0
 27.3333 91.3333 37.5 61.8333 58.5 37.5 c 0
 79.5 13.1667 107 1 141 1 c 0
 173.667 1 198.333 6 215 16 c 0
 225 22 233.333 33.6667 240 51 c 1
 262 18.3333 304 1.66667 366 1 c 0
 465.333 -0.333333 515 70.6667 515 214 c 1
 590 214 l 2
 610 214 626 204 638 184 c 0
 647.333 166.667 652 147.333 652 126 c 0
 652 106.667 646.333 90 635 76 c 0
 623.667 60 608.667 51.6667 590 51 c 0
 570.667 50.3333 552.333 58.6667 535 76 c 1
 535 26 l 1
 537.667 23.3333 547 17.6667 563 9 c 0
 572.333 5 581.333 2.33333 590 1 c 1
 631.333 1 663 14 685 40 c 0
 705 64 715 97 715 139 c 0
 715 182.333 703.5 213.833 680.5 233.5 c 0
 657.5 253.167 623 263 577 263 c 2
 515 263 l 1
 515 315 503.333 358 480 392 c 0
 453.333 430 415 449.333 365 450 c 0
 311.667 450.667 270 430 240 388 c 1
 220.667 420 197.667 439.667 171 447 c 0
 165 448.333 156 449.667 144 451 c 0
 113.333 451 86 439 62 415 c 0
 38 391 25.6667 363.667 25 333 c 0
 24.3333 295 42 263.333 78 238 c 1
128 263 m 1
 112.667 274.333 101.333 286 94 298 c 0
 86.6667 310 83 322.667 83 336 c 0
 83 354.667 89.1667 370 101.5 382 c 0
 113.833 394 129.333 400.333 148 401 c 0
 178 401.667 200.333 380.667 215 338 c 1
 209.667 324 206.667 311.667 206 301 c 1
 203 263 l 1
 128 263 l 1
EndSplineSet
EndChar
StartChar: 42
Encoding: 65583 -1
Width: 1143
Flags: HW
Fore
512 51 m 0
 474 50.3333 444.667 66 424 98 c 0
 406 125.333 397 159 397 199 c 0
 397 239 404.667 274.667 420 306 c 0
 438 343.333 464.333 366.333 499 375 c 1
 523 371.667 543.333 362.667 560 348 c 0
 577.333 331.333 586.333 311.333 587 288 c 0
 587.667 270.667 580.333 255.833 565 243.5 c 0
 549.667 231.167 532 225 512 225 c 2
 475 225 l 1
 475 175 l 1
 512 175 l 2
 531.333 175 548.5 169.333 563.5 158 c 0
 578.5 146.667 586.333 131.667 587 113 c 0
 587.667 95 580 80.1667 564 68.5 c 0
 548 56.8333 530.667 51 512 51 c 0
149 51 m 0
 126.333 50.3333 108 58.3333 94 75 c 0
 81.3333 89.6667 74.6667 108.667 74 132 c 0
 73.3333 155.333 79.8333 174.667 93.5 190 c 0
 107.167 205.333 125.667 213 149 213 c 0
 170.333 213 188.167 205 202.5 189 c 0
 216.833 173 224 154 224 132 c 0
 224 79.3333 199 52.3333 149 51 c 0
561 400 m 1
 605 403 l 2
 642.333 405.667 675 395.333 703 372 c 0
 726.333 352.667 741.667 316.333 749 263 c 1
 749 0 l 1
 812 0 l 1
 812 263 l 2
 812 304.333 822.5 337.5 843.5 362.5 c 0
 864.5 387.5 895.333 400.333 936 401 c 0
 965.333 401.667 990 396 1010 384 c 0
 1034 370.667 1046.33 350.333 1047 323 c 0
 1047.67 301.667 1038.33 284 1019 270 c 0
 1002.33 257.333 983 251 961 251 c 2
 874 251 l 1
 874 201 l 1
 961 201 l 2
 1019 201 1048.67 178.667 1050 134 c 0
 1050.67 110 1042 90.1667 1024 74.5 c 0
 1006 58.8333 985 50.6667 961 50 c 0
 951.667 50 939 52.6667 923 58 c 0
 903.667 64.6667 891.667 70.3333 887 75 c 1
 887 25 l 2
 887 21 900 14.3333 926 5 c 1
 961 0 l 1
 1003 0 1038.5 12.1667 1067.5 36.5 c 0
 1096.5 60.8333 1111 93.6667 1111 135 c 0
 1111 156.333 1105.33 175.667 1094 193 c 0
 1082.67 210.333 1067.33 221.333 1048 226 c 1
 1090 245.333 1111.33 276.333 1112 319 c 0
 1112.67 361 1093 394.333 1053 419 c 0
 1019.67 439.667 980.667 450 936 450 c 0
 906.667 450 878.167 441.833 850.5 425.5 c 0
 822.833 409.167 801.667 388.333 787 363 c 1
 759.667 419.667 705.333 448.667 624 450 c 0
 594 450.667 571 448.333 555 443 c 2
 499 425 l 1
 414 443 l 2
 393.333 447 363.333 449.333 324 450 c 0
 238 450.667 166 426.667 108 378 c 0
 46.6667 326.667 15.6667 259 15 175 c 0
 14.3333 127 26.6667 87 52 55 c 0
 79.3333 19 116 1 162 1 c 0
 200 1 230.667 14.3333 254 41 c 0
 276 65.6667 287.333 97.3333 288 136 c 0
 288.667 174 277.333 204.5 254 227.5 c 0
 230.667 250.5 200 262.333 162 263 c 0
 146 263 128.333 258 109 248 c 1
 94.3333 238 82.6667 226.333 74 213 c 1
 80 265.667 101.667 308.667 139 342 c 0
 186.333 384.667 244 404.333 312 401 c 2
 371 398 l 2
 391 396.667 408.667 393.333 424 388 c 1
 397.333 378 376 350.333 360 305 c 0
 348 269 341.667 233 341 197 c 0
 340.333 139 354 92.6667 382 58 c 0
 412 20.6667 455.333 1.66667 512 1 c 0
 547.333 0.333333 578.833 10.1667 606.5 30.5 c 0
 634.167 50.8333 648.333 78.3333 649 113 c 0
 649.667 131.667 645.333 149.167 636 165.5 c 0
 626.667 181.833 610.333 193.333 587 200 c 1
 602.333 205.333 616.333 215.5 629 230.5 c 0
 641.667 245.5 648.333 260.333 649 275 c 0
 650.333 328.333 621 370 561 400 c 1
EndSplineSet
EndChar
StartChar: 43
Encoding: 65584 -1
Width: 804
Flags: HW
Fore
714 450 m 1
 651 450 l 1
 651 55 l 1
 376 55 l 1
 402.667 67 422.667 91.3333 436 128 c 0
 446.667 156.667 452 188.333 452 223 c 0
 452 291 433.333 345.667 396 387 c 0
 358.667 428.333 306.333 449.333 239 450 c 0
 176.333 450.667 124 427.333 82 380 c 0
 41.3333 335.333 20.6667 281 20 217 c 0
 19.3333 125 63 52.6667 151 0 c 1
 189 42 l 1
 117 78.6667 80.6667 138.333 80 221 c 0
 79.3333 270.333 93.6667 312.167 123 346.5 c 0
 152.333 380.833 191 398.333 239 399 c 0
 285.667 399.667 323.333 381.333 352 344 c 0
 377.333 310 390.333 269 391 221 c 0
 391.667 148.333 361.667 93 301 55 c 1
 301 0 l 1
 601 0 l 1
 151 -211 l 1
 151 -237 l 1
 714 -237 l 1
 714 450 l 1
651 -186 m 1
 326 -186 l 1
 651 -20 l 1
 651 -186 l 1
EndSplineSet
EndChar
